<svg width="746" height="579" viewBox="0 0 746 579" fill="none" xmlns="http://www.w3.org/2000/svg">
<g clip-path="url(#clip0_287_791)">
<path d="M526.509 367.11C520.524 373.395 499.079 382.724 492.296 381.652C485.513 380.654 474.192 381.028 472.796 380.554C471.2 380.554 401.328 423.132 355.669 437.249C341.655 441.589 329.81 443.236 323.027 440.118C275.349 418.143 223.556 314.505 212.234 286.968C191.961 237.706 197.771 196.6 203.956 194.655C225.7 187.945 262.531 232.293 283.653 261.452C297.667 280.807 356.966 355.487 358.612 356.584C359.335 357.108 362.277 357.033 366.716 356.609C391.952 354.14 466.661 339.049 474.192 338.026C486.311 336.305 502.096 339.523 514.515 340.596C526.908 341.693 529.626 363.817 526.484 367.11H526.509Z" fill="#FBFAF9"/>
<path d="M355.694 437.274C341.68 441.615 329.835 443.261 323.052 440.143C275.374 418.168 223.581 314.53 212.26 286.993C191.986 237.731 197.796 196.625 203.981 194.68C225.725 187.97 262.556 232.318 283.678 261.477C297.692 280.832 356.991 355.512 358.637 356.609C359.36 357.133 362.302 357.058 366.741 356.634C357.714 382.25 355.171 410.112 355.694 437.274Z" fill="#0068AF"/>
<path d="M358.637 352.643C358.562 353.815 357.29 356.035 355.121 359.428C354.372 360.6 353.55 361.897 352.552 363.319C352.527 363.393 352.452 363.493 352.378 363.593C351.206 365.364 349.884 367.359 348.438 369.579C347.764 370.677 346.991 371.799 346.243 372.971C346.044 373.271 345.869 373.595 345.67 373.894C343.824 376.813 341.829 380.03 339.71 383.547C339.411 384.071 339.086 384.57 338.787 385.119C338.488 385.642 338.164 386.141 337.865 386.665C337.74 386.915 337.565 387.189 337.416 387.463C335.67 390.481 333.85 393.699 331.98 397.116C331.805 397.416 331.68 397.74 331.506 398.039C330.433 400.035 329.361 402.08 328.264 404.2C327.69 405.322 327.067 406.495 326.493 407.692C325.845 408.964 325.197 410.261 324.548 411.583C324.474 411.708 324.424 411.882 324.349 412.032C322.903 414.975 321.481 418.043 320.01 421.236C319.885 421.535 319.736 421.86 319.611 422.159C318.215 425.277 316.768 428.494 315.397 431.812C315.147 432.336 314.923 432.884 314.723 433.408C314.424 434.132 314.1 434.88 313.801 435.628C313.801 435.628 313.776 435.653 313.776 435.703C312.953 437.698 312.18 439.719 311.357 441.764C311.108 442.338 308.315 441.19 304.2 438.621C302.978 437.873 301.657 436.975 300.26 435.977C300.136 435.878 300.011 435.803 299.886 435.703C298.29 434.531 296.545 433.234 294.799 431.812C293.428 430.689 292.031 429.442 290.635 428.145C290.336 427.896 290.011 427.597 289.712 427.322C287.992 425.726 286.296 423.98 284.625 422.159C284.351 421.86 284.077 421.535 283.802 421.236C282.53 419.839 281.259 418.318 280.112 416.796C279.114 415.499 278.167 414.152 277.244 412.78C276.97 412.381 276.72 411.982 276.446 411.583C276.346 411.458 276.271 411.309 276.172 411.184C275.424 410.062 274.675 408.889 273.878 407.692C271.883 404.649 269.838 401.431 267.718 398.039C267.519 397.74 267.344 397.416 267.145 397.116C266.945 396.767 266.746 396.468 266.521 396.119C266.222 395.645 265.898 395.171 265.599 394.647C264.152 392.327 262.681 389.933 261.185 387.463C260.387 386.166 259.614 384.869 258.816 383.572C257.893 382.001 256.946 380.429 255.973 378.808C255.026 377.212 254.053 375.566 253.105 373.919C252.931 373.62 252.731 373.296 252.557 372.996C252.382 372.697 252.208 372.423 252.033 372.098C250.362 369.23 248.692 366.312 246.996 363.344C246.248 362.046 245.525 360.749 244.777 359.452C243.979 358.006 243.206 356.584 242.383 355.137C242.083 354.589 241.759 354.015 241.46 353.466C240.812 352.269 240.114 351.047 239.465 349.8C239.291 349.5 239.116 349.176 238.941 348.877C237.196 345.684 235.45 342.466 233.805 339.224C233.131 338.002 232.458 336.729 231.81 335.482C231.785 335.407 231.735 335.382 231.71 335.308C230.413 332.813 229.141 330.319 227.87 327.825C227.496 327.101 227.147 326.378 226.797 325.68C226.623 325.38 226.498 325.056 226.324 324.757C224.728 321.539 223.132 318.297 221.611 315.104C220.987 313.807 220.389 312.51 219.79 311.213C219.242 310.09 218.718 308.993 218.219 307.87C217.92 307.197 217.596 306.499 217.297 305.85C216.648 304.403 216 302.982 215.377 301.585C215.252 301.286 215.102 300.961 215.002 300.662C213.556 297.419 212.21 294.152 210.888 291.009C210.339 289.712 209.816 288.415 209.342 287.118C208.718 285.646 208.17 284.175 207.621 282.728C206.973 280.957 206.325 279.161 205.701 277.465C205.601 277.166 205.502 276.841 205.402 276.542C204.779 274.821 204.23 273.15 203.731 271.504C203.532 270.955 203.382 270.431 203.207 269.932C202.908 268.984 202.584 267.937 202.31 266.889C201.936 265.667 201.587 264.345 201.238 262.998C200.489 259.98 199.741 256.737 199.093 253.345C199.018 253.046 198.968 252.722 198.918 252.422C198.295 249.304 197.796 246.062 197.347 242.769C197.148 241.472 196.973 240.125 196.824 238.828C196.425 235.611 196.101 232.393 195.926 229.225C195.901 228.926 195.851 228.602 195.851 228.303C195.652 224.985 195.577 221.768 195.652 218.65C195.652 217.303 195.727 215.981 195.776 214.709C195.951 211.291 196.325 208.049 196.948 205.106C196.973 204.806 197.048 204.482 197.148 204.183C197.971 200.342 199.168 197.074 200.839 194.53C201.487 193.532 202.185 192.684 202.958 191.936C203.208 191.736 203.407 191.537 203.681 191.387C204.13 191.038 204.679 190.763 205.227 190.589C205.951 190.339 206.724 190.215 207.596 190.215C208.594 190.215 209.641 190.339 210.788 190.589C212.733 191.038 214.928 191.861 217.247 192.983C217.546 193.158 217.87 193.283 218.169 193.457C218.793 193.757 219.466 194.131 220.114 194.53C222.533 195.902 225.152 197.548 227.82 199.419C229.117 200.342 230.413 201.289 231.76 202.337C232.558 202.911 233.331 203.534 234.154 204.183C234.528 204.482 234.902 204.806 235.326 205.106C237.346 206.702 239.365 208.398 241.385 210.169C241.685 210.443 242.009 210.693 242.308 210.967C243.704 212.189 245.101 213.462 246.522 214.734C247.969 216.031 249.365 217.328 250.761 218.675C251.16 219.049 251.559 219.423 251.958 219.797C253.28 221.094 254.602 222.366 255.898 223.663C257.469 225.21 259.015 226.781 260.512 228.328C260.811 228.627 261.135 228.951 261.409 229.25C262.806 230.722 264.177 232.194 265.524 233.59C265.823 233.94 266.147 234.264 266.446 234.588C267.793 236.06 269.04 237.506 270.287 238.853C270.736 239.377 271.184 239.876 271.633 240.4C272.282 241.148 272.98 241.946 273.728 242.794C274.476 243.692 275.274 244.64 276.122 245.663C277.344 247.11 278.665 248.631 280.062 250.277C280.635 251.001 281.234 251.674 281.832 252.422C282.082 252.722 282.356 253.046 282.63 253.345C284.825 255.989 287.169 258.858 289.687 261.876C289.986 262.25 290.311 262.624 290.61 262.998C291.682 264.27 292.729 265.567 293.827 266.889C295.921 269.433 298.066 272.052 300.26 274.771C300.734 275.345 301.208 275.968 301.707 276.542C301.981 276.841 302.23 277.166 302.455 277.465C303.028 278.188 303.627 278.912 304.2 279.585C306.195 282.079 308.24 284.574 310.26 287.118C311.332 288.415 312.355 289.712 313.402 291.009C313.527 291.184 313.676 291.358 313.801 291.533C314.1 291.907 314.424 292.331 314.723 292.705C316.843 295.374 318.963 298.018 321.057 300.687C321.332 300.986 321.581 301.31 321.805 301.61C322.653 302.682 323.526 303.755 324.374 304.827C325.671 306.499 327.017 308.17 328.314 309.816C328.688 310.29 329.062 310.764 329.436 311.263C330.433 312.61 331.456 313.907 332.453 315.154C334.324 317.573 336.194 319.943 337.914 322.238C338.214 322.637 338.538 323.061 338.837 323.46C339.186 323.909 339.51 324.358 339.859 324.807L340.583 325.73C343.176 329.197 345.62 332.439 347.764 335.383C348.014 335.732 348.238 336.056 348.487 336.38C349.236 337.403 349.934 338.376 350.582 339.299C351.23 340.221 351.854 341.069 352.427 341.942C354.372 344.736 355.943 347.156 357.041 348.951C357.215 349.301 357.39 349.6 357.564 349.874C358.312 351.271 358.736 352.244 358.687 352.743L358.637 352.643Z" fill="#0E3855"/>
<path d="M351.206 335.183C347.939 336.156 315.297 371.974 310.16 380.804C305.023 389.633 286.171 426.624 287.917 431.263C290.336 437.673 303.228 440.667 308.09 442.961C316.644 446.977 326.344 452.415 333.251 447.526C335.471 445.954 334.598 423.281 340.657 399.611C343.051 390.282 363.474 356.285 364.322 352.992C365.17 349.7 356.916 333.462 351.206 335.158V335.183Z" fill="#081C2E"/>
<path d="M719.019 313.882C698.247 324.058 673.186 327.251 650.668 331.691C638.324 334.085 625.956 336.305 613.537 338.251C607.902 339.174 602.216 339.997 596.556 340.82C593.09 341.319 587.628 343.065 584.137 341.793C583.364 341.518 582.716 340.82 582.716 339.947C582.716 339.698 582.716 339.473 582.741 339.224C582.766 337.153 642.04 324.931 660.443 305.077C669.794 294.975 678.672 277.839 671.565 264.17C667.325 256.039 657.55 254.019 649.197 255.64C640.469 257.336 630.644 266.39 638.399 270.98C639.297 269.633 641.865 270.456 641.192 272.152C639.197 276.243 629.522 280.034 625.208 274.073C618.275 264.57 626.28 249.753 633.786 244.391C653.61 230.298 692.112 228.103 703.907 254.867C712.461 249.479 722.959 252.946 726.126 262.549C734.305 256.189 744.703 265.043 745.826 274.896C747.746 292.306 733.482 306.823 719.044 313.857L719.019 313.882Z" fill="#FDFAF6"/>
<path d="M543.341 356.31L394.994 392.028L390.805 370.801L540.324 341.144L543.341 356.31Z" fill="#FAFAF8"/>
<path d="M737.621 301.984C737.621 301.984 738.345 345.933 722.809 349.001C707.274 352.094 639.796 365.489 639.796 365.489C639.796 365.489 572.317 378.883 556.782 381.976C541.247 385.069 525.138 344.162 525.138 344.162L737.646 301.984H737.621Z" fill="#3894D1"/>
<path d="M458.183 343.664C461.899 342.242 476.686 341.693 481.05 344.187C491.523 350.174 512.47 350.398 516.111 353.167C519.751 355.935 496.436 364.291 486.81 362.795C477.185 361.298 455.266 367.185 440.354 359.752C425.441 352.319 458.158 343.664 458.158 343.664H458.183Z" fill="#FBFAF9"/>
<path d="M495.588 382.924C489.129 382.425 470.402 380.754 467.609 379.257C464.841 377.761 467.809 374.767 470.726 373.695C473.644 372.622 492.645 372.423 496.336 373.695C500.027 374.967 501.448 383.373 495.588 382.924Z" fill="#FBFAF9"/>
<path d="M506.834 378.484C499.204 376.962 477.085 372.273 473.993 370.203C470.901 368.133 474.841 365.364 478.481 364.665C482.097 363.967 504.814 366.661 509.029 368.606C513.243 370.552 513.791 379.881 506.834 378.484Z" fill="#FBFAF9"/>
<path d="M305.223 459.848C305.223 463.065 305.223 466.283 305.148 469.451C305.173 469.75 305.173 470.074 305.148 470.374C305.123 473.616 305.073 476.834 304.973 480.026C304.948 481.373 304.898 482.67 304.874 483.967C304.749 487.21 304.624 490.428 304.475 493.571C304.475 493.87 304.45 494.194 304.45 494.493C304.35 496.439 304.25 498.385 304.15 500.28C304.051 501.577 303.976 502.874 303.901 504.146C303.801 505.443 303.702 506.79 303.627 508.087C303.352 511.405 303.103 514.622 302.804 517.69C302.779 517.99 302.729 518.314 302.729 518.613C302.38 522.005 302.056 525.223 301.657 528.266C301.482 529.638 301.308 530.935 301.133 532.207C300.834 534.402 300.51 536.447 300.185 538.393C300.011 539.59 299.811 540.713 299.612 541.81C299.537 542.109 299.512 542.434 299.437 542.733C298.689 546.624 297.866 549.892 297.019 552.386C296.445 554.057 295.847 555.354 295.273 556.327C294.899 556.876 294.525 557.325 294.151 557.599H34.7615C34.5121 557.35 34.3625 556.95 34.2877 556.327C34.188 555.429 34.2129 554.107 34.4124 552.386C34.5121 551.438 34.6867 550.341 34.8862 549.143C35.1854 547.298 35.6343 545.128 36.1829 542.733C36.2577 542.434 36.3076 542.109 36.3824 541.81C37.0307 538.942 37.8287 535.674 38.7513 532.207C38.7513 532.132 38.7763 532.032 38.8261 531.958C39.1004 530.76 39.4496 529.538 39.7737 528.266C40.5717 525.223 41.4445 522.005 42.3671 518.613C42.4419 518.314 42.5417 517.99 42.6414 517.69C43.4643 514.622 44.362 511.405 45.3096 508.087C45.6587 506.79 46.0328 505.493 46.4068 504.146C47.0801 501.827 47.7534 499.432 48.4516 497.038C48.701 496.19 48.9254 495.366 49.1748 494.493C49.2496 494.244 49.2995 494.019 49.3743 493.745C49.3743 493.72 49.3992 493.645 49.4491 493.571C50.3468 490.428 51.2196 487.235 52.1921 483.967C52.5661 482.67 52.9402 481.324 53.2893 480.026C54.212 476.834 55.1346 473.616 56.0323 470.374C56.1321 470.074 56.2318 469.75 56.3066 469.451C57.2293 466.258 58.127 463.04 59.0496 459.848V459.773C59.4237 458.476 59.7728 457.204 60.1468 455.907C61.0446 452.689 61.9173 449.471 62.815 446.254C62.84 446.079 62.8899 445.905 62.9397 445.73C62.9647 445.605 63.0145 445.456 63.0395 445.331C63.9372 442.113 64.785 438.871 65.6329 435.678C65.982 434.381 66.3062 433.084 66.6553 431.787C67.5031 428.544 68.3759 425.327 69.1489 422.134C69.2487 421.835 69.3235 421.51 69.3983 421.211C70.2212 417.919 70.9942 414.751 71.7672 411.558C72.0665 410.436 72.3158 409.338 72.5902 408.216C72.6151 408.041 72.6899 407.842 72.7148 407.667C72.9891 406.545 73.2385 405.372 73.5128 404.275C73.9866 402.155 74.4604 400.06 74.9092 398.014L75.1087 397.091C75.8319 393.774 76.4802 390.556 77.0538 387.438C77.3281 386.141 77.5774 384.844 77.7769 383.547C78.4003 380.155 78.8991 376.937 79.323 373.894C79.3978 373.595 79.4227 373.271 79.4477 372.971C79.697 371.151 79.8965 369.38 80.0711 367.709C80.1958 366.262 80.3454 364.79 80.52 363.319C80.6446 362.046 80.7943 360.749 80.9189 359.427C81.293 356.285 81.667 353.067 82.1159 349.775C82.1408 349.475 82.1907 349.151 82.2406 348.852C82.5149 346.657 82.8141 344.437 83.1383 342.167C83.263 341.169 83.4126 340.172 83.5871 339.199C83.7617 337.927 83.9612 336.605 84.1607 335.308C84.6345 332.115 85.1581 328.897 85.7067 325.655C85.7815 325.355 85.8065 325.031 85.8813 324.732C86.2553 322.537 86.6294 320.342 87.0533 318.122C87.2279 317.124 87.4024 316.102 87.6019 315.079C87.8513 313.782 88.0757 312.485 88.35 311.188C88.9235 307.97 89.5719 304.753 90.2701 301.535C90.2951 301.236 90.3699 300.911 90.4447 300.612C91.118 297.394 91.8162 294.177 92.5393 290.959C92.8386 289.662 93.1129 288.365 93.4371 287.068C94.1851 283.825 94.9831 280.608 95.806 277.415C95.8808 277.116 95.9307 276.792 96.0554 276.492C96.2549 275.594 96.5042 274.671 96.7287 273.798C97.0279 272.626 97.3521 271.429 97.6513 270.281C97.9506 269.159 98.2747 267.987 98.574 266.864C98.948 265.567 99.3221 264.27 99.6961 262.973C100.619 259.681 101.566 256.463 102.614 253.32C102.688 253.021 102.788 252.697 102.888 252.397C103.96 249.08 105.033 245.862 106.18 242.744L107.302 239.677C107.401 239.402 107.501 239.128 107.601 238.828C108.773 235.76 109.97 232.817 111.192 229.999C111.292 229.724 111.391 229.45 111.541 229.2C111.666 228.901 111.815 228.577 111.94 228.278C113.486 224.811 115.057 221.568 116.653 218.625C117.401 217.253 118.199 215.956 118.947 214.684C119.571 213.661 120.169 212.688 120.817 211.765C121.117 211.291 121.441 210.818 121.74 210.369C123.186 208.373 124.608 206.602 126.079 205.056C126.378 204.707 126.652 204.407 126.977 204.133L127.276 203.834C128.298 202.836 129.695 201.813 131.39 200.815C132.562 200.067 133.884 199.344 135.28 198.62C138.048 197.224 141.19 195.827 144.557 194.48C144.682 194.405 144.806 194.38 144.931 194.305C145.23 194.206 145.554 194.056 145.854 193.931C148.971 192.734 152.187 191.612 155.404 190.539C155.429 190.539 155.479 190.514 155.504 190.514C156.801 190.065 158.097 189.666 159.394 189.242C162.785 188.169 166.052 187.247 169.044 186.473C169.344 186.398 169.668 186.349 169.967 186.224C173.957 185.226 177.398 184.553 179.618 184.353C180.141 184.278 180.615 184.253 180.989 184.253C181.812 184.253 182.66 184.278 183.533 184.353C186.55 184.528 189.792 185.151 193.183 186.099C193.482 186.174 193.806 186.274 194.106 186.374C197.223 187.296 200.464 188.494 203.756 189.89C204.23 190.14 204.704 190.339 205.202 190.539C206.025 190.913 206.848 191.287 207.671 191.711C209.491 192.609 211.287 193.532 213.082 194.48C214.529 195.278 215.925 196.076 217.322 196.899C217.621 197.074 217.945 197.274 218.244 197.448C221.561 199.469 224.778 201.589 227.895 203.858C228.019 203.933 228.144 204.033 228.269 204.133C228.668 204.407 229.116 204.756 229.54 205.056C230.338 205.604 231.086 206.178 231.835 206.777C235.176 209.371 238.293 212.04 241.061 214.684C241.186 214.783 241.335 214.933 241.435 215.033C241.734 215.332 242.059 215.656 242.358 215.931C243.28 216.854 244.178 217.752 245.001 218.625C245.35 218.999 245.674 219.373 246.023 219.747C247.669 221.568 249.415 224.461 251.285 228.278C251.41 228.577 251.584 228.901 251.734 229.2C251.834 229.4 251.933 229.649 252.008 229.849C253.28 232.493 254.552 235.486 255.873 238.804C255.873 238.828 255.898 238.903 255.948 238.978C256.422 240.175 256.896 241.447 257.394 242.744C258.517 245.763 259.689 249.005 260.861 252.397C260.96 252.697 261.06 253.021 261.16 253.32C262.232 256.388 263.279 259.606 264.352 262.973C264.751 264.245 265.175 265.542 265.574 266.839C265.873 267.837 266.197 268.76 266.496 269.708C267.17 271.928 267.868 274.222 268.541 276.517C268.641 276.817 268.741 277.141 268.815 277.44C269.763 280.583 270.735 283.801 271.683 287.093C272.057 288.365 272.431 289.687 272.805 290.984C273.728 294.177 274.626 297.394 275.548 300.637C275.648 300.936 275.723 301.261 275.823 301.56C275.922 301.934 276.022 302.358 276.122 302.732C276.92 305.576 277.693 308.369 278.491 311.213C278.865 312.51 279.214 313.807 279.588 315.104C279.713 315.727 279.887 316.301 280.062 316.925C280.785 319.519 281.508 322.163 282.181 324.757C282.256 325.056 282.356 325.38 282.431 325.68C283.328 328.897 284.176 332.14 285.024 335.333C285.373 336.63 285.697 337.927 286.046 339.224C286.894 342.516 287.767 345.734 288.615 348.877C288.69 349.176 288.79 349.5 288.864 349.8C289.139 350.872 289.413 351.92 289.687 352.942C289.986 354.115 290.311 355.262 290.61 356.409C290.884 357.432 291.134 358.455 291.408 359.452C291.757 360.799 292.081 362.096 292.43 363.344C293.328 366.686 294.176 369.903 294.999 372.996C295.074 373.296 295.123 373.62 295.248 373.919C296.146 377.337 296.994 380.554 297.817 383.572C297.941 384.096 298.091 384.57 298.215 385.044C298.415 385.842 298.614 386.615 298.839 387.463C299.363 389.559 299.836 391.778 300.285 394.098C300.485 395.096 300.659 396.094 300.859 397.116C300.884 397.416 300.959 397.74 300.983 398.039C301.507 401.107 301.981 404.325 302.38 407.692C302.554 408.964 302.679 410.261 302.829 411.583C303.203 414.701 303.502 417.919 303.751 421.236C303.776 421.535 303.826 421.86 303.826 422.159C303.951 423.88 304.101 425.576 304.2 427.372C304.3 428.844 304.4 430.315 304.475 431.812C304.574 433.109 304.599 434.406 304.724 435.703C304.849 438.896 304.973 442.113 305.023 445.356C305.048 445.655 305.048 445.979 305.048 446.279C305.148 449.471 305.223 452.714 305.248 455.932C305.248 457.229 305.273 458.576 305.273 459.873L305.223 459.848Z" fill="#0E3855"/>
<path d="M290.759 358.106C287.044 344.387 283.254 330.718 279.363 317.049C278.865 308.245 277.518 299.39 276.346 290.71C276.296 290.286 275.623 290.286 275.673 290.71C276.321 296.796 276.67 302.932 277.069 309.068C273.478 296.621 269.813 284.2 265.998 271.828C265.823 271.279 265 271.504 265.125 272.077C271.633 300.138 278.84 327.999 286.246 355.836C293.727 383.921 301.981 411.907 304.998 440.916C305.098 441.889 306.569 441.939 306.544 440.916C306.195 412.556 298.091 385.268 290.735 358.106H290.759Z" fill="#081C2E"/>
<path d="M165.528 178.641C156.501 181.51 141.839 192.335 140.766 196.775C139.694 201.215 141.639 222.042 144.008 224.037C146.377 226.033 174.431 254.817 202.484 254.792C205.152 254.792 208.893 229.425 209.99 227.454C211.087 225.509 226.423 244.79 227.969 243.218C229.515 241.672 232.159 217.378 230.812 211.341C229.466 205.305 210.165 187.82 201.736 182.283C193.308 176.746 173.633 176.047 165.528 178.641Z" fill="#081C2E"/>
<path d="M208.444 134.417L214.404 190.065V190.165L215.252 197.972C215.252 197.972 223.281 217.976 207.048 223.563C179.343 233.092 153.659 207.375 151.016 203.534C149.644 201.564 145.654 181.909 142.063 163.202C138.622 145.342 135.58 128.306 135.58 128.306L143.709 129.005L208.469 134.442L208.444 134.417Z" fill="#FBFAF9"/>
<path d="M208.444 134.417L214.404 190.065V190.165C195.677 190.364 176.949 185.451 160.367 176.197C153.734 172.48 147.624 168.115 142.063 163.202C138.622 145.342 135.58 128.306 135.58 128.306L143.709 129.005L208.469 134.442L208.444 134.417Z" fill="#0068AF"/>
<path d="M208.843 27.2626L234.528 74.6292C234.528 74.6292 241.41 16.8365 208.843 27.2626Z" fill="#0A2637"/>
<path d="M121.89 54.6499C115.007 81.3389 135.056 141.95 157.449 159.934C172.785 172.256 201.711 172.081 221.311 160.059C230.214 154.596 237.171 146.689 240.064 136.413C249.29 103.513 224.154 32.4009 206.948 23.4463C176.55 7.58265 130.343 22.0246 121.915 54.6499H121.89Z" fill="#FBFAF9"/>
<path d="M189.767 92.2639C183.184 93.3863 185.927 106.456 192.011 105.409C198.021 104.386 195.278 91.316 189.767 92.2639Z" fill="#0A2637"/>
<path d="M224.454 84.7062C230.862 82.8604 234.104 95.8058 228.169 97.5268C222.334 99.2229 219.092 86.2526 224.454 84.7062Z" fill="#0A2637"/>
<path d="M202.809 132.971C203.981 133.719 205.227 134.816 206.699 134.642C208.145 134.467 209.641 133.495 210.838 132.721C210.963 132.646 211.112 132.746 211.063 132.896C210.339 134.667 208.32 136.114 206.375 136.163C204.479 136.213 203.233 134.841 202.435 133.245C202.335 133.021 202.609 132.871 202.784 132.971H202.809Z" fill="#0A2637"/>
<path d="M183.383 87.3501C185.079 86.527 186.5 85.5043 188.071 84.5066C189.867 83.4091 191.388 82.7107 192.31 80.6903C192.784 79.6178 192.161 77.9965 191.163 77.4478C188.844 76.1258 186.326 76.924 184.106 78.1711C181.712 79.518 180.216 81.1892 179.219 83.7334C178.246 86.2027 181.164 88.4227 183.383 87.3252V87.3501Z" fill="#0A2637"/>
<path d="M228.119 77.0736C226.249 77.1485 224.503 76.924 222.633 76.7993C220.539 76.6745 218.843 76.7993 217.097 75.4523C216.15 74.729 215.95 73.0329 216.549 72.0352C217.97 69.7654 220.563 69.2665 223.107 69.3164C225.85 69.3663 227.97 70.1146 230.064 71.8855C232.084 73.6066 230.588 76.924 228.119 77.0487V77.0736Z" fill="#0A2637"/>
<path d="M202.559 119.177C202.559 119.177 201.836 129.479 206.923 129.778C213.656 130.202 215.576 121.248 215.576 121.248C209.716 122.844 202.559 119.177 202.559 119.177Z" fill="white"/>
<path d="M210.489 72.4592C213.457 85.4046 218.693 97.7264 221.86 110.672C219.865 110.347 216.574 109.674 214.953 110.048C214.853 110.098 214.978 110.796 215.252 111.769C218.12 111.944 220.962 112.692 223.83 113.565C224.778 113.565 225.401 113.341 225.251 112.817C221.636 99.4973 217.621 84.6812 211.212 72.2098C211.013 71.7857 210.364 72.0352 210.489 72.4592Z" fill="#0A2637"/>
<path d="M217.771 120.624C212.683 122.395 208.394 121.622 202.584 119.177C202.235 119.003 201.961 119.352 202.285 119.626C205.277 122.669 209.018 123.891 212.758 123.842C214.429 123.842 216.15 123.542 217.771 123.043C218.095 122.969 218.419 122.869 218.693 122.744C218.992 122.644 219.242 122.545 219.541 122.42C219.99 122.245 220.189 121.796 220.164 121.347C220.139 121.173 220.115 121.048 220.04 120.923C219.666 120.449 219.317 120.375 219.192 120.35C219.017 120.35 218.818 120.375 218.444 120.474C218.169 120.549 217.945 120.624 217.795 120.674L217.771 120.624Z" fill="#0A2637"/>
<path d="M138.248 116.708C153.285 115.635 145.155 86.3025 145.155 86.3025C145.155 86.3025 168.197 84.0576 162.686 48.8382C162.686 48.8382 192.136 55.0989 210.14 45.4211C228.144 35.7432 223.805 1.94555 218.394 0.548751C212.958 -0.848053 201.138 10.7753 201.138 10.7753C201.138 10.7753 202.684 -2.39451 195.702 0.399093C188.72 3.1927 184.331 10.2017 184.331 10.2017C184.331 10.2017 127.475 15.5893 117.526 28.6095C109.945 38.5119 113.237 51.5071 113.237 51.5071C113.237 51.5071 99.4469 59.3891 101.517 71.4864C103.586 83.6087 120.718 117.98 138.273 116.733L138.248 116.708Z" fill="#0A2637"/>
<path d="M161.589 42.5277C161.464 42.2533 161.015 42.378 161.14 42.6773C168.571 62.0081 166.102 85.6291 141.465 87.3252C140.742 87.3751 140.866 88.3977 141.54 88.4227C150.866 88.8218 159.743 83.7833 164.307 75.4274C170.241 64.6022 166.601 52.8291 161.564 42.5027L161.589 42.5277Z" fill="#0A2637"/>
<path d="M218.718 1.89568C218.718 1.89568 218.519 1.99545 218.618 2.07028C224.653 6.48517 224.553 19.4056 223.88 26.215C223.032 34.6707 218.693 42.2533 211.586 46.5934C199.143 54.201 181.712 51.5071 168.222 48.514C167.349 48.3144 167.773 49.2623 168.621 49.4868C184.63 53.9017 209.841 56.9447 220.563 40.7069C224.853 34.1968 226.174 25.7162 225.65 17.9839C225.301 12.6461 224.154 4.26525 218.693 1.89568H218.718Z" fill="#0A2637"/>
<path d="M143.41 118.479C143.41 118.479 126.977 98.9486 118 105.01C109.023 111.046 122.688 140.254 134.134 143.397C145.604 146.54 148.697 135.964 148.697 135.964L143.41 118.479Z" fill="#FBFAF9"/>
<path d="M339.236 503.448C335.571 507.863 313.926 500.704 298.191 502.151C292.131 502.725 270.287 511.455 258.093 506.865C251.21 504.221 235.825 492.947 233.705 493.446C231.585 493.97 105.506 483.768 75.8819 471.272C70.1715 468.877 64.4111 465.934 58.7755 462.716C35.1606 449.072 14.0644 429.866 10.4486 420.313C9.52593 417.894 10.8226 410.76 13.6404 400.833C24.3382 362.795 56.6808 283.102 66.805 265.019C79.5725 242.221 115.656 209.171 123.785 210.144C146.527 212.738 135.854 307.821 134.208 319.02C132.712 329.122 111.017 381.053 109.372 392.726C109.197 393.998 109.247 394.772 109.571 394.996C110.12 395.345 113.586 397.016 119.022 399.66C148.347 413.803 235.675 455.034 242.508 458.127C250.687 461.743 275.174 468.827 290.735 471.82C301.707 473.915 342.927 498.983 339.236 503.448Z" fill="#FBFAF9"/>
<path d="M109.346 392.751C109.172 394.023 109.222 394.797 109.546 395.021C110.095 395.37 113.561 397.041 118.997 399.685C117.65 400.583 116.404 401.506 115.107 402.429C104.983 409.762 95.5317 417.993 86.8787 426.998C76.3804 437.873 66.9046 449.92 58.7503 462.766C35.1355 449.122 14.0392 429.916 10.4234 420.363C9.50078 417.944 10.7975 410.81 13.6153 400.883C24.3131 362.845 56.6557 283.152 66.7799 265.068C79.5474 242.271 115.63 209.221 123.76 210.194C146.502 212.788 135.829 307.87 134.183 319.07C132.687 329.172 110.992 381.103 109.346 392.776V392.751Z" fill="#0068AF"/>
<path d="M142.637 266.839C142.637 270.132 142.612 273.349 142.512 276.492C142.512 276.792 142.512 277.116 142.487 277.415C142.412 280.733 142.238 283.975 142.088 287.068C142.013 288.415 141.963 289.712 141.839 290.959C141.639 294.426 141.365 297.669 141.091 300.612C141.066 300.911 141.066 301.236 141.016 301.535C140.642 305.326 140.268 308.619 139.919 311.188C139.719 312.759 139.52 314.056 139.345 315.079C139.32 315.353 139.245 315.603 139.22 315.827C138.846 317.773 138.123 320.891 137.101 324.732C137.026 325.031 136.976 325.355 136.901 325.655C136.427 327.476 135.879 329.446 135.33 331.541C134.981 332.763 134.657 334.011 134.308 335.308C133.934 336.58 133.585 337.877 133.211 339.199C132.637 341.219 132.039 343.314 131.44 345.435C131.141 346.557 130.792 347.704 130.443 348.852C130.368 349.151 130.268 349.475 130.168 349.775C129.246 352.992 128.298 356.235 127.376 359.427C126.977 360.774 126.553 362.071 126.179 363.319C125.156 366.661 124.159 369.928 123.211 372.971C123.111 373.271 123.012 373.595 122.912 373.894C122.538 375.092 122.189 376.264 121.815 377.361C121.515 378.384 121.191 379.357 120.892 380.28C120.518 381.452 120.144 382.55 119.795 383.572C119.321 385.019 118.872 386.316 118.423 387.463C117.301 390.706 116.403 392.826 115.955 393.375C115.431 393.998 113.76 394.772 111.242 395.844C110.344 396.243 109.322 396.667 108.224 397.116C107.95 397.216 107.651 397.366 107.327 397.465C106.878 397.665 106.379 397.84 105.88 398.039C103.461 399.037 100.669 400.159 97.6762 401.506C97.3769 401.606 97.0528 401.756 96.7535 401.88C93.7113 403.227 90.4695 404.724 87.1031 406.395C86.2802 406.794 85.4324 407.243 84.5596 407.692C84.1107 407.941 83.6369 408.166 83.1881 408.44C81.3428 409.438 79.4476 410.486 77.5524 411.583C76.2059 412.381 74.8842 413.179 73.5377 414.052C73.2384 414.252 72.9143 414.452 72.615 414.676C69.498 416.696 66.4308 418.891 63.4883 421.236C63.3137 421.361 63.1392 421.51 62.9646 421.635C62.7651 421.81 62.5656 421.984 62.3162 422.159C61.219 423.082 60.1218 424.03 59.0745 425.027C56.7055 427.123 54.4613 429.417 52.3915 431.812C51.3193 432.984 50.3467 434.206 49.4241 435.429C49.3243 435.528 49.2495 435.603 49.2246 435.703C48.9503 436.002 48.7009 436.326 48.5014 436.626C46.4816 439.37 44.6612 442.263 43.165 445.356C42.9655 445.655 42.791 445.979 42.6414 446.279C41.3447 448.873 40.2475 451.641 39.3497 454.535C39.3248 454.635 39.1502 454.61 38.8261 454.46C38.1528 454.186 36.7314 453.288 34.8861 451.916C32.966 450.519 30.4973 448.573 27.879 446.279C27.5797 445.979 27.2306 445.655 26.8566 445.356C26.3329 444.907 25.8342 444.433 25.2856 443.909C24.9863 443.635 24.6622 443.36 24.3629 443.011C21.969 440.791 19.5502 438.297 17.256 435.678C16.3583 434.68 15.5105 433.683 14.7125 432.66C14.4631 432.361 14.2387 432.086 13.9893 431.762C12.8173 430.29 11.77 428.744 10.7725 427.247C9.67533 425.526 8.72774 423.83 7.92977 422.109C7.75522 421.81 7.63053 421.485 7.53079 421.186C6.08447 417.869 5.41119 414.651 5.71042 411.633V411.533C5.83511 410.261 6.00966 408.939 6.23409 407.642C6.63307 404.524 7.18168 401.307 7.8799 397.989C7.8799 397.69 7.95471 397.366 8.05445 397.066C8.67787 393.924 9.40102 390.706 10.2489 387.413C10.3735 386.69 10.598 385.967 10.7975 385.218C10.9221 384.645 11.0718 384.096 11.2463 383.497C12.0692 380.305 12.9919 377.087 13.9893 373.844C14.0641 373.545 14.1639 373.221 14.2886 372.922C14.3883 372.398 14.5629 371.924 14.7374 371.425C15.5603 368.731 16.458 366.012 17.3807 363.294L18.7273 359.403C19.8494 356.185 21.0214 352.967 22.2184 349.75C22.3181 349.45 22.4677 349.126 22.5675 348.827C23.1909 347.23 23.7894 345.609 24.4128 344.013C24.712 343.264 25.0362 342.466 25.3354 341.693C25.6845 340.87 25.9838 340.022 26.3329 339.199C26.8566 337.902 27.4052 336.605 27.9288 335.308C29.2255 332.065 30.597 328.847 31.9685 325.655C32.0932 325.355 32.2428 325.031 32.3675 324.732C33.2154 322.786 34.0881 320.866 34.936 318.945C35.4846 317.648 36.0581 316.351 36.6815 315.079C37.2551 313.782 37.8536 312.485 38.452 311.188C38.5767 310.889 38.7263 310.564 38.851 310.265C40.2475 307.297 41.619 304.378 43.0154 301.535C43.1401 301.236 43.2897 300.911 43.4643 300.612C45.0602 297.295 46.6811 294.077 48.2521 290.959C48.3269 290.834 48.4266 290.66 48.5014 290.51C48.8007 289.887 49.1248 289.288 49.4241 288.689C49.6984 288.141 49.9976 287.592 50.2719 287.043C52.0175 283.651 53.7381 280.433 55.359 277.39C55.5585 277.091 55.7081 276.767 55.8826 276.467C56.9798 274.472 58.0272 272.601 59.0745 270.78C59.8725 269.408 60.6206 268.087 61.3687 266.814C61.9173 265.867 62.4659 264.969 62.9646 264.071C63.214 263.672 63.4384 263.273 63.6878 262.898C66.1066 258.883 68.2262 255.615 69.9717 253.245C70.2211 252.896 70.4206 252.597 70.6201 252.323C71.0939 251.699 71.5427 251.15 71.9168 250.726C72.1163 250.452 72.3657 250.202 72.5901 249.928C72.8893 249.579 73.2135 249.205 73.5127 248.856C75.2583 246.835 77.1784 244.79 79.1982 242.67C80.4201 241.373 81.7418 240.026 83.0385 238.729C83.0634 238.704 83.1382 238.629 83.1631 238.604C84.4349 237.307 85.7316 236.035 87.0532 234.738C88.9983 232.867 91.0181 230.971 93.038 229.126C93.3871 228.826 93.7113 228.552 94.0604 228.203C94.9082 227.405 95.8059 226.631 96.7037 225.833C97.0029 225.584 97.3271 225.309 97.6263 225.01C100.27 222.74 102.888 220.57 105.431 218.55C106.055 218.026 106.653 217.552 107.277 217.103C108.399 216.205 109.496 215.382 110.568 214.609C110.768 214.484 110.967 214.31 111.192 214.16C114.758 211.591 118.024 209.471 120.842 208.024C121.141 207.849 121.466 207.675 121.765 207.55C125.505 205.779 128.273 205.255 129.57 206.552C130.218 207.201 130.842 207.899 131.415 208.648C132.762 210.369 133.909 212.339 134.981 214.609C135.081 214.858 135.181 215.083 135.33 215.332C135.779 216.355 136.178 217.427 136.602 218.55C137.674 221.493 138.597 224.736 139.345 228.203C139.42 228.502 139.47 228.826 139.52 229.126C140.168 232.194 140.692 235.411 141.091 238.729C141.29 240.026 141.44 241.323 141.564 242.67C141.864 245.812 142.138 249.08 142.312 252.323C142.312 252.622 142.337 252.946 142.337 253.245C142.512 256.463 142.612 259.681 142.637 262.898C142.662 264.195 142.662 265.492 142.662 266.789L142.637 266.839Z" fill="#0E3855"/>
<path d="M136.552 334.983C134.134 338.65 131.44 342.591 128.972 346.682C132.213 335.532 135.705 324.482 139.769 313.632C140.019 313.009 138.996 312.734 138.772 313.358C128.722 339.373 118.473 365.239 112.788 392.676C112.389 394.647 115.257 395.47 115.83 393.524C119.321 381.477 122.563 369.33 125.954 357.208C127.251 354.389 128.448 351.471 129.844 348.727C132.164 344.187 134.757 339.822 137.5 335.532C137.899 334.909 136.926 334.36 136.527 334.958L136.552 334.983Z" fill="#081C2E"/>
<path d="M123.386 208.822C122.987 208.573 122.638 209.146 123.012 209.421C139.395 221.867 141.365 250.477 141.814 258.982C142.687 275.47 141.44 289.587 138.797 305.7C138.672 306.524 139.944 306.898 140.168 306.05C145.879 284.574 148.447 224.461 123.386 208.822Z" fill="#081C2E"/>
<path d="M8.7307e-05 416.746C-0.44877 422.782 29.6246 463.789 41.6191 459.798C46.756 458.077 60.7703 429.293 74.1363 418.742C87.5022 408.191 116.03 395.769 118.872 394.672C121.715 393.574 128.523 367.459 126.278 365.788C124.034 364.142 75.832 368.606 56.4314 377.561C37.0557 386.515 0.573627 409.039 8.7307e-05 416.746Z" fill="#081C2E"/>
<path d="M303.602 476.51C338.613 486.861 334.498 519.686 331.73 529.089C328.962 538.493 314.549 568.275 279.538 557.923C244.527 547.572 252.208 512.402 254.053 506.142C256.123 499.108 268.566 466.183 303.577 476.534L303.602 476.51Z" fill="#64C080"/>
<path d="M258.866 509.16C258.866 509.16 272.032 510.457 264.402 533.579C264.402 533.579 247.644 518.164 258.866 509.16Z" fill="#081C2E"/>
<path d="M264.352 511.33C264.352 511.33 265.175 522.155 245.4 519.287C245.4 519.287 255.474 503.548 264.352 511.33Z" fill="#081C2E"/>
<path d="M260.861 510.507C260.861 510.507 270.985 506.616 259.963 489.954C259.963 489.954 250.038 505.793 260.861 510.507Z" fill="#081C2E"/>
<path d="M258.267 509.808C258.267 509.808 266.696 499.607 281.633 518.863C281.633 518.863 259.489 524.151 258.267 509.808Z" fill="#081C2E"/>
<path d="M260.162 508.711C260.162 508.711 255.923 494.194 280.81 495.84C280.81 495.84 273.304 518.189 260.162 508.711Z" fill="#081C2E"/>
<path d="M263.23 511.13C263.23 511.13 250.163 513.126 240.911 502.301C240.911 502.301 240.986 496.214 247.37 494.568C247.37 494.568 254.452 506.89 265.748 507.638L264.027 510.557" fill="#081C2E"/>
<path d="M390.879 529.987C380.157 564.907 347.39 560.442 338.014 557.574C328.663 554.706 299.038 539.989 309.736 505.069C320.459 470.149 355.544 478.206 361.779 480.126C368.811 482.271 401.577 495.067 390.855 529.987H390.879Z" fill="#67C07F"/>
<path d="M358.686 484.89C358.686 484.89 357.24 498.035 334.199 490.178C334.199 490.178 349.784 473.591 358.686 484.89Z" fill="#081C2E"/>
<path d="M356.467 490.353C356.467 490.353 345.645 491.051 348.712 471.321C348.712 471.321 364.347 481.548 356.467 490.353Z" fill="#081C2E"/>
<path d="M357.34 486.861C357.34 486.861 361.105 497.038 377.888 486.162C377.888 486.162 362.178 476.061 357.34 486.861Z" fill="#081C2E"/>
<path d="M358.063 484.292C358.063 484.292 368.162 492.822 348.787 507.563C348.787 507.563 343.725 485.364 358.063 484.292Z" fill="#081C2E"/>
<path d="M359.135 486.187C359.135 486.187 373.673 482.097 371.778 506.965C371.778 506.965 349.51 499.208 359.135 486.187Z" fill="#081C2E"/>
<path d="M356.692 489.23C356.692 489.23 354.846 476.135 365.744 467.006C365.744 467.006 371.828 467.131 373.424 473.566C373.424 473.566 361.031 480.5 360.158 491.8L357.265 490.054" fill="#081C2E"/>
<path d="M441.825 561.016L453.196 540.912H636.803L648.199 561.016" stroke="#0A2637" stroke-width="2.66" stroke-miterlimit="10"/>
<path d="M474.516 561.016L482.297 540.912H607.702L615.507 561.016" stroke="#0A2637" stroke-width="2.66" stroke-miterlimit="10"/>
<path d="M680.916 557.599H20.6973V578.975H680.916V557.599Z" fill="#FAFAF8"/>
<path d="M254.876 489.38H208.693V557.599H254.876V489.38Z" fill="#A0D0D4"/>
<path d="M260.063 480.675H203.507V494.244H260.063V480.675Z" fill="#64C080"/>
<path d="M204.679 459.424C204.679 459.424 192.31 557.599 176.151 557.599H90.5444C74.3856 557.599 62.0171 459.424 62.0171 459.424H204.679Z" fill="#FDFAF6"/>
</g>
<defs>
<clipPath id="clip0_287_791">
<rect width="746" height="579" fill="white"/>
</clipPath>
</defs>
</svg>
