<svg width="592" height="477" viewBox="0 0 592 477" fill="none" xmlns="http://www.w3.org/2000/svg">
<g clip-path="url(#clip0_261_128)">
<g style="mix-blend-mode:multiply" opacity="0.32">
<path d="M281.62 476.53C437.154 476.53 563.24 458.201 563.24 435.59C563.24 412.979 437.154 394.65 281.62 394.65C126.086 394.65 0 412.979 0 435.59C0 458.201 126.086 476.53 281.62 476.53Z" fill="#0F2E4F"/>
</g>
<path d="M397.51 178.3L388.11 197.52C386.36 201.11 380.93 198.95 382.12 195.14L389.89 170.3L397.5 178.3H397.51Z" fill="#8C6F65"/>
<path d="M408.33 183.84C412 183.23 415.53 181.06 417.1 177.69C418.67 174.32 417.81 169.8 414.71 167.74C417.52 166.45 420.23 164.64 421.76 161.96C423.29 159.28 423.32 155.56 421.17 153.34C419.89 152.02 417.79 150.46 418.76 148.9C419.15 148.28 419.91 148.02 420.51 147.61C422.08 146.54 422.53 144.42 422.49 142.52C422.33 134.97 415.55 128.17 408 127.99C406.99 127.97 405.87 128.1 405.2 128.85C404.38 129.78 404.6 131.2 404.34 132.41C403.84 134.7 401.56 136.17 399.3 136.83C397.05 137.48 394.64 137.59 392.46 138.45C387.8 140.3 385 145.89 386.3 150.73C386.61 151.88 387.12 152.99 387.12 154.18C387.13 157.36 383.78 159.33 381.88 161.88C378.99 165.76 379.61 171.51 382.45 175.42C387.42 182.24 400.3 185.17 408.31 183.84H408.33Z" fill="#E2DDEF"/>
<g style="mix-blend-mode:multiply" opacity="0.32">
<path d="M413 157.21C413.61 160.32 411.79 164.1 408.64 164.46C409.7 161.78 408.09 158.73 405.93 156.83C403.34 154.55 391.99 149.51 396.7 144.4C401.85 138.81 412.22 153.18 413.01 157.2L413 157.21Z" fill="#99C1D7"/>
</g>
<g style="mix-blend-mode:multiply" opacity="0.32">
<path d="M391.18 170.06C389.23 167.63 388.44 163.01 392.02 161.72C395.24 160.55 396.13 165.83 397.7 167.67C398.64 168.77 403.78 173.35 405.49 172.18C401.12 175.17 394.51 174.2 391.19 170.07L391.18 170.06Z" fill="#99C1D7"/>
</g>
<path d="M342.43 175.85L351.63 195.16C353.35 198.77 348.28 201.67 346.04 198.36L331.43 176.82L342.43 175.84V175.85Z" fill="#8C6F65"/>
<path d="M353.5 170.82C355.31 167.57 355.8 163.45 354.14 160.13C352.48 156.81 348.4 154.67 344.86 155.81C345.59 152.81 345.87 149.56 344.72 146.7C343.57 143.83 340.68 141.5 337.61 141.8C335.78 141.98 333.25 142.66 332.63 140.93C332.38 140.24 332.66 139.49 332.71 138.75C332.84 136.86 331.47 135.18 329.96 134.03C323.95 129.46 314.41 130.54 309.57 136.34C308.92 137.11 308.33 138.07 308.5 139.06C308.72 140.28 309.97 140.99 310.75 141.95C312.23 143.77 311.96 146.47 311.07 148.64C310.18 150.81 308.76 152.76 308.09 155.01C306.64 159.81 309.28 165.48 313.88 167.48C314.97 167.95 316.16 168.25 317.09 168.98C319.59 170.95 319.05 174.79 319.86 177.87C321.1 182.54 325.98 185.64 330.82 185.84C339.25 186.19 349.55 177.93 353.5 170.83V170.82Z" fill="#E2DDEF"/>
<g style="mix-blend-mode:multiply" opacity="0.32">
<path d="M335.55 150.6C338.37 152.06 340.19 155.84 338.51 158.53C337.07 156.04 333.68 155.4 330.85 155.91C327.45 156.52 316.44 162.27 315.37 155.41C314.2 147.9 331.9 148.72 335.54 150.6H335.55Z" fill="#99C1D7"/>
</g>
<g style="mix-blend-mode:multiply" opacity="0.32">
<path d="M332.04 175.68C328.93 175.7 324.82 173.44 326.03 169.84C327.12 166.6 331.81 169.18 334.22 169.09C335.67 169.04 342.45 167.86 342.6 165.79C342.22 171.07 337.35 175.64 332.05 175.67L332.04 175.68Z" fill="#99C1D7"/>
</g>
<path d="M369.92 179.25L370.44 200.64C370.54 204.63 364.73 205.22 364.03 201.28L359.48 175.66L369.92 179.25Z" fill="#8C6F65"/>
<path d="M382.08 179.18C385.05 176.95 387.19 173.39 387.02 169.68C386.85 165.97 384.01 162.35 380.31 161.95C382.2 159.51 383.78 156.66 383.9 153.57C384.02 150.48 382.33 147.18 379.4 146.19C377.66 145.6 375.07 145.2 375.21 143.36C375.27 142.63 375.82 142.05 376.17 141.41C377.06 139.73 376.49 137.65 375.58 135.98C371.96 129.36 362.81 126.45 356.03 129.77C355.12 130.21 354.19 130.84 353.95 131.82C353.65 133.02 354.5 134.18 354.83 135.38C355.44 137.65 354.09 140 352.4 141.62C350.7 143.24 348.61 144.44 347.08 146.21C343.8 150 343.89 156.26 347.28 159.95C348.08 160.83 349.05 161.58 349.6 162.63C351.08 165.45 349.01 168.74 348.5 171.88C347.72 176.65 350.92 181.47 355.25 183.63C362.81 187.39 375.58 184.05 382.08 179.18Z" fill="#64C080"/>
<g style="mix-blend-mode:multiply" opacity="0.32">
<path d="M373.94 153.39C375.92 155.87 376.04 160.07 373.41 161.84C373.11 158.98 370.28 157.01 367.49 156.32C364.14 155.49 351.74 156.25 353.57 149.55C355.56 142.22 371.39 150.19 373.95 153.39H373.94Z" fill="#99C1D7"/>
</g>
<g style="mix-blend-mode:multiply" opacity="0.32">
<path d="M360.51 174.86C357.66 173.61 354.83 169.87 357.4 167.07C359.72 164.55 362.94 168.83 365.18 169.73C366.53 170.27 373.19 171.97 374.17 170.14C371.67 174.81 365.35 176.99 360.5 174.86H360.51Z" fill="#99C1D7"/>
</g>
<path d="M444.31 47.4399H432.45V317.44H444.31V47.4399Z" fill="#16382F"/>
<path d="M183.94 47.4399H172.08V317.44H183.94V47.4399Z" fill="#16382F"/>
<path d="M128.79 341.74L491.92 341.74V225.71L128.79 225.71V341.74Z" fill="#64C080"/>
<path d="M440.25 192.9L491.92 208.37H126.69L176.1 192.9H440.25Z" fill="#64C080"/>
<path d="M126.7 225.7L491.93 225.7V208.36L126.7 208.36V225.7Z" fill="#16382F"/>
<path d="M138.55 96.98H126.69V366.98H138.55V96.98Z" fill="#64C080"/>
<g style="mix-blend-mode:multiply" opacity="0.32">
<path d="M138.55 341.63L484.07 341.63V278.48L138.55 278.48V341.63Z" fill="#99C1D7"/>
</g>
<path d="M408.66 412.04C444.796 412.04 474.09 382.746 474.09 346.61C474.09 310.474 444.796 281.18 408.66 281.18C372.524 281.18 343.23 310.474 343.23 346.61C343.23 382.746 372.524 412.04 408.66 412.04Z" stroke="#486598" stroke-width="8.62" stroke-miterlimit="10"/>
<path d="M408.44 281.18V412.03" stroke="#486598" stroke-width="2.15" stroke-miterlimit="10"/>
<path d="M473.87 346.61H343.02" stroke="#486598" stroke-width="2.15" stroke-miterlimit="10"/>
<path d="M362.18 300.34L454.7 392.87" stroke="#486598" stroke-width="2.15" stroke-miterlimit="10"/>
<path d="M454.7 300.34L362.18 392.87" stroke="#486598" stroke-width="2.15" stroke-miterlimit="10"/>
<path d="M433.27 286.08L383.61 407.14" stroke="#486598" stroke-width="2.15" stroke-miterlimit="10"/>
<path d="M468.97 371.44L347.91 321.78" stroke="#486598" stroke-width="2.15" stroke-miterlimit="10"/>
<path d="M383.2 286.25L433.68 406.97" stroke="#486598" stroke-width="2.15" stroke-miterlimit="10"/>
<path d="M468.8 321.36L348.08 371.85" stroke="#486598" stroke-width="2.15" stroke-miterlimit="10"/>
<path d="M209.4 412.04C245.536 412.04 274.83 382.746 274.83 346.61C274.83 310.474 245.536 281.18 209.4 281.18C173.264 281.18 143.97 310.474 143.97 346.61C143.97 382.746 173.264 412.04 209.4 412.04Z" stroke="#486598" stroke-width="8.62" stroke-miterlimit="10"/>
<path d="M209.18 281.18V412.03" stroke="#486598" stroke-width="2.15" stroke-miterlimit="10"/>
<path d="M274.6 346.61H143.75" stroke="#486598" stroke-width="2.15" stroke-miterlimit="10"/>
<path d="M162.92 300.34L255.44 392.87" stroke="#486598" stroke-width="2.15" stroke-miterlimit="10"/>
<path d="M255.44 300.34L162.92 392.87" stroke="#486598" stroke-width="2.15" stroke-miterlimit="10"/>
<path d="M234.01 286.08L184.35 407.14" stroke="#486598" stroke-width="2.15" stroke-miterlimit="10"/>
<path d="M269.71 371.44L148.65 321.78" stroke="#486598" stroke-width="2.15" stroke-miterlimit="10"/>
<path d="M183.94 286.25L234.42 406.97" stroke="#486598" stroke-width="2.15" stroke-miterlimit="10"/>
<path d="M269.54 321.36L148.82 371.85" stroke="#486598" stroke-width="2.15" stroke-miterlimit="10"/>
<path d="M491.92 96.98H480.06V366.98H491.92V96.98Z" fill="#64C080"/>
<path d="M484.94 18.49L450.41 11.51L470.99 63.84L517.74 74.3L484.94 18.49Z" fill="#64C080"/>
<path d="M450.41 11.51L470.99 63.84L426.34 56.16L412.74 7.32996L450.41 11.51Z" fill="#FDF8F7"/>
<path d="M426.34 56.16L380.3 50.58L370.53 1.73999L412.74 7.32999L426.34 56.16Z" fill="#64C080"/>
<path d="M335.3 47.44L380.3 50.58L370.53 1.74L331.81 0L335.3 47.44Z" fill="#FDF8F7"/>
<path d="M335.3 47.44H288.55L291.34 0H331.81L335.3 47.44Z" fill="#64C080"/>
<path d="M291.34 0L288.55 47.44H243.2L252.97 1.74L291.34 0Z" fill="#FDF8F7"/>
<path d="M243.2 47.44L197.86 52.67L212.16 7.32999L252.97 1.73999L243.2 47.44Z" fill="#64C080"/>
<path d="M197.86 52.67L153.21 60.7L171.76 13.98L212.16 7.32996L197.86 52.67Z" fill="#FDF8F7"/>
<path d="M171.76 13.98L153.21 60.7L108.21 71.86L135.76 21.98L171.76 13.98Z" fill="#64C080"/>
<path d="M517.74 74.3V100.81L495.41 109.88L470.99 92.09V63.84L517.74 74.3Z" fill="#16382F"/>
<path d="M470.99 63.84V92.09L450.41 100.46L426.34 84.07V56.16L470.99 63.84Z" fill="#F8F8F7"/>
<path d="M426.34 56.16V84.07L404.36 93.84L380.3 78.31V50.58L426.34 56.16Z" fill="#16382F"/>
<path d="M380.3 50.5799V78.3099L356.05 86.8599L335.3 76.3899V47.4399L380.3 50.5799Z" fill="#F8F8F7"/>
<path d="M335.3 47.4399V76.3899L309.83 86.8599L288.55 76.0499V47.4399H335.3Z" fill="#16382F"/>
<path d="M288.55 47.4399V76.0499L264.83 88.9499L243.2 78.3099V47.4399H288.55Z" fill="#F8F8F7"/>
<path d="M243.2 47.4399V78.3099L220.18 91.7399L197.86 82.3199V52.6699L243.2 47.4399Z" fill="#16382F"/>
<path d="M197.86 52.67V82.32L175.88 96.98L151.46 91.74L153.21 60.7L197.86 52.67Z" fill="#F8F8F7"/>
<path d="M153.21 60.7L151.46 91.7399L129.49 107.44L108.21 102.91V71.86L153.21 60.7Z" fill="#16382F"/>
<path d="M206.08 199.35H280.39C287.39 199.35 293.11 193.63 293.11 186.63C293.11 179.63 287.39 173.91 280.39 173.91H206.08C199.08 173.91 193.36 179.63 193.36 186.63C193.36 193.63 199.08 199.35 206.08 199.35Z" fill="#486598"/>
<path d="M515.84 137.58C516.81 139.5 518.18 141.33 519.63 143.47C520.95 145.43 521.82 147.97 520.88 150.13C519.4 153.54 514.8 153.84 511.09 154.06C498.69 154.82 486.92 160.81 478.07 169.52C476.43 171.13 474.84 172.89 474.03 175.04C473.21 177.19 473.31 179.82 474.81 181.57C476.9 184.02 481.51 184.9 481.32 188.12C481.27 189.03 480.77 189.86 480.21 190.58C475.55 196.62 466.79 197.43 460.51 201.76C457.23 204.02 454.69 207.22 452.55 210.58C449.71 215.06 447.43 220.25 448.08 225.51C449.1 233.86 457.67 239.89 466.08 240.02C474.49 240.15 482.37 235.52 488.25 229.52C494.14 223.52 498.66 215.93 505.92 211.68C508.85 209.96 512.27 208.85 515.63 209.33C525.82 210.77 530.2 225.17 540.38 226.63C542.17 226.89 544.13 226.65 545.52 225.48C546.98 224.26 547.53 222.28 547.91 220.42C549.67 211.9 549.59 203.01 547.7 194.52C547.01 191.43 546.1 188.11 547.36 185.21C548.42 182.78 550.78 181.22 552.7 179.4C554.62 177.57 556.27 174.86 555.33 172.38C554.72 170.78 553.15 169.66 552.73 168C551.81 164.41 557.35 160.51 558.9 157.51C560.89 153.67 562.14 149.48 562.71 145.2C564.39 132.59 560.91 112.91 545.97 110.23C539.86 109.13 533.52 110.88 528.05 113.81C522.04 117.03 516.58 122.1 514.93 128.71C514.01 132.39 514.58 135.05 515.85 137.58H515.84Z" fill="#0C232E"/>
<path d="M521.26 347.93C521.26 347.93 517.22 362.78 512.22 427.91C510.8 430.25 508.91 434.26 510 437.19C511.09 440.12 527.11 436.22 525.19 431.05C519.16 414.79 537.05 380.15 540.54 366.23L538.81 349.89L521.26 347.93Z" fill="#E9EBEC"/>
<path d="M525.14 425.31C519.82 426.99 517.98 426.85 512.38 426.49L503.16 434.04C503.16 434.04 492.55 442.19 493.64 445.12C494.73 448.06 523.95 438.49 523.95 438.49C523.95 438.49 528.86 436.91 526.94 431.75C525.78 428.63 524.79 428.1 525.14 425.31Z" fill="#0057A0"/>
<path d="M564.36 414.65C561.8 412.44 559.71 409.18 557.96 405.26C558.46 397.98 528.98 272.79 528.98 272.79L500.14 266.7C500.14 266.7 499.98 270.18 500.52 278.33C501.38 291.41 506.09 306.91 508.13 312.49C509.28 315.64 514.63 328.37 521.11 343.62L520.79 343.75C520.79 343.75 524.42 358.7 551.48 418.16C551.37 420.9 551.64 425.32 554.01 427.36C556.38 429.4 568.52 418.25 564.35 414.65H564.36Z" fill="#E9EBEC"/>
<g style="mix-blend-mode:multiply" opacity="0.32">
<path d="M564.36 414.65C561.8 412.44 559.71 409.18 557.96 405.26C558.46 397.98 528.98 272.79 528.98 272.79L500.14 266.7C500.14 266.7 499.98 270.18 500.52 278.33C501.38 291.41 506.09 306.91 508.13 312.49C509.28 315.64 514.63 328.37 521.11 343.62L520.79 343.75C520.79 343.75 524.42 358.7 551.48 418.16C551.37 420.9 551.64 425.32 554.01 427.36C556.38 429.4 568.52 418.25 564.35 414.65H564.36Z" fill="#E9EBEC"/>
</g>
<path d="M550.4 242.32C550.4 242.32 559.85 250.99 562.09 270.39C564.87 294.56 521.97 417.66 521.97 417.66C521.97 417.66 518.73 411.25 516.08 407.3C513.43 403.35 525.39 275.75 525.39 275.75L500.18 267.37C500.18 267.37 500.38 253.99 506.44 246.75C511.32 253.33 550.39 242.31 550.39 242.31L550.4 242.32Z" fill="#E9EBEC"/>
<path d="M550.4 242.32L548.05 235.86C548.05 235.86 518.86 242.73 505.9 240.46C504.36 238.93 506.44 246.76 506.44 246.76C506.44 246.76 505.44 250.6 522.47 248.46C539.49 246.32 550.4 242.32 550.4 242.32Z" fill="#0057A0"/>
<path d="M560.73 408.94C556.33 412.36 554.55 412.87 549.17 414.48L543.14 424.76C543.14 424.76 536.02 436.08 538.06 438.46C540.1 440.83 564.18 421.72 564.18 421.72C564.18 421.72 568.23 418.53 564.65 414.36C562.48 411.83 561.36 411.68 560.72 408.95L560.73 408.94Z" fill="#0057A0"/>
<path d="M543.47 159.25C542.94 168.53 542.95 168.91 551.68 173.21C548.85 177.18 545.69 181.39 541.04 182.84C539.02 183.47 536.87 183.52 534.75 183.51C531.24 183.5 527.2 189.72 523.71 189.41C522.95 189.34 522.7 182.87 522.08 182.44C521.21 181.83 520.9 180.7 520.69 179.66C520.3 177.73 520.03 175.77 519.88 173.81C519.81 172.9 519.27 173.64 519.81 172.9C521.62 170.42 527.77 171.35 527.38 166.73C527.23 164.97 526.58 163.43 526.75 161.43C526.92 159.34 528.29 152.69 525.73 151.53C525.74 151.53 543.47 159.25 543.47 159.25Z" fill="#E9EBEC"/>
<g style="mix-blend-mode:multiply" opacity="0.32">
<path d="M526.73 169.17C526.91 166.14 527.07 163.12 527.08 160.1C527.08 158.94 528.12 152.66 526.89 152.12L543.71 159.38C543.42 163.21 544.1 167.8 541.56 170.82C539.03 173.83 535.56 176.12 531.85 177.39C530.25 177.93 528.2 178.18 527.12 176.88C526.37 175.98 526.4 174.69 526.46 173.52C526.54 172.07 526.64 170.63 526.72 169.18L526.73 169.17Z" fill="#E9EBEC"/>
</g>
<path d="M514.81 154.43C515.57 157.62 517.35 160.61 519.37 162.93C521.44 165.32 523.7 165.9 526.47 166.51C535.24 168.46 547.1 165.71 549.41 154.32C551.02 155.11 552.79 153.51 553.19 151.59C553.57 149.79 552.96 148.28 552.77 146.51C552.61 145.06 552.64 143.65 552.4 142.18C551.84 138.61 551.09 134.94 549.3 131.84C547.43 128.59 544.58 126.31 541.58 124.86C538.59 123.41 535.42 122.71 532.28 122.06C526.92 120.94 519 119.69 515.7 126.07C513.79 129.77 515.39 136.39 514.99 140.67C514.56 145.18 513.72 149.84 514.8 154.43H514.81Z" fill="#E9EBEC"/>
<path d="M556.66 140.16C558.13 140.83 558.79 142.58 558.92 144.2C559.32 148.97 556.08 153.8 551.51 155.24C550.14 155.67 548.42 155.73 547.5 154.62C546.56 153.49 546.95 151.8 547.5 150.43C548.55 147.79 552.65 138.33 556.66 140.16Z" fill="#E9EBEC"/>
<path d="M557.4 144.07C557.4 144.07 556.65 144.07 555.62 144.63C554.59 145.17 553.34 146.3 552.48 147.86C551.62 149.42 551.25 151 551.05 152.12C550.86 153.25 550.83 153.96 550.89 153.97C550.96 153.98 551.11 153.29 551.39 152.19C551.67 151.1 552.09 149.58 552.91 148.1C553.73 146.61 554.86 145.52 555.8 144.93C556.74 144.33 557.43 144.16 557.41 144.08L557.4 144.07Z" fill="#0057A0"/>
<path d="M552.43 153.14C552.49 153.17 552.73 152.9 553.07 152.4C553.4 151.91 553.83 151.18 554.09 150.28C554.34 149.37 554.29 148.48 554.08 147.89C553.88 147.3 553.59 147.02 553.54 147.06C553.48 147.1 553.65 147.43 553.75 147.98C553.86 148.53 553.86 149.32 553.62 150.15C553.39 150.98 553.02 151.7 552.77 152.23C552.52 152.76 552.37 153.1 552.43 153.14Z" fill="#0057A0"/>
<path d="M543.52 139.6C543.68 139.51 543.48 139.07 542.82 138.55C542.17 138.03 541 137.46 539.54 137.19C538.08 136.92 536.67 137.02 535.74 137.25C534.8 137.48 534.32 137.79 534.4 137.93C534.56 138.23 536.68 137.83 539.14 138.31C541.61 138.74 543.19 139.82 543.54 139.61L543.52 139.6Z" fill="#8C6F65"/>
<path d="M523.7 138.13C523.7 137.98 523.26 137.79 522.52 137.71C521.78 137.63 520.74 137.68 519.7 137.97C518.67 138.27 517.88 138.72 517.44 139.18C516.99 139.65 517.02 140.06 517.22 140.12C517.43 140.19 517.73 140 518.24 139.79C518.75 139.58 519.51 139.29 520.37 139.05C522.08 138.55 523.69 138.45 523.71 138.13H523.7Z" fill="#8C6F65"/>
<path d="M526.47 142.15C526.83 143.29 527.03 144.45 527.16 145.63C527.28 146.8 527.32 147.98 527.27 149.16L527.22 150.04L527.2 150.27C527.2 150.37 527.17 150.46 527.15 150.56C527.11 150.75 527.04 150.93 526.95 151.1C526.77 151.44 526.5 151.75 526.14 151.95C525.97 152.05 525.76 152.13 525.58 152.16C525.51 152.16 525.45 152.19 525.4 152.22C525.16 152.37 525.04 152.91 525.21 153.36C525.37 153.84 525.78 154.28 526.16 154.74C525.62 154.5 525.08 154.2 524.68 153.65C524.49 153.36 524.37 153.03 524.34 152.65C524.32 152.28 524.43 151.86 524.74 151.53C524.91 151.36 525.11 151.24 525.32 151.18C525.43 151.14 525.49 151.11 525.57 151.05C525.71 150.95 525.83 150.79 525.9 150.61C525.93 150.52 525.96 150.43 525.98 150.33C525.98 150.28 525.99 150.23 525.99 150.19V149.99L526.03 149.13L526.19 145.67C526.25 144.51 526.31 143.35 526.45 142.17L526.47 142.15Z" fill="#0057A0"/>
<path d="M532.64 147.78C533.2 147.09 533.84 146.6 534.54 146.34C535.24 146.08 536 146.01 536.75 146.06C537.5 146.12 538.26 146.29 538.99 146.57C539.72 146.85 540.41 147.22 541.04 147.74L541.12 147.81C541.21 147.88 541.33 147.88 541.41 147.8C541.71 147.52 542 147.22 542.27 146.9C541.87 147.02 541.48 147.17 541.1 147.33L541.47 147.39C541.02 146.59 540.3 145.94 539.49 145.49C538.68 145.04 537.75 144.78 536.81 144.75C535.87 144.72 534.88 144.93 534.08 145.49C533.28 146.03 532.74 146.9 532.64 147.78Z" fill="#0057A0"/>
<path d="M540.93 147.12L541.41 146.38L540.55 146.58C540.36 146.63 540.24 146.82 540.29 147.01C540.34 147.2 540.53 147.32 540.72 147.27C540.81 147.25 540.89 147.19 540.94 147.12H540.93Z" fill="#0057A0"/>
<path d="M523.95 148.1C523.56 147.37 523.08 146.83 522.49 146.51C521.91 146.19 521.25 146.06 520.58 146.04C519.91 146.03 519.21 146.14 518.53 146.35C517.85 146.56 517.17 146.87 516.54 147.32L516.46 147.38C516.37 147.44 516.26 147.43 516.2 147.34C515.98 147.04 515.77 146.72 515.58 146.38C515.92 146.53 516.24 146.71 516.55 146.9L516.21 146.92C516.73 146.17 517.47 145.6 518.25 145.23C519.04 144.86 519.89 144.69 520.73 144.74C521.56 144.79 522.41 145.09 523.03 145.71C523.66 146.31 524 147.22 523.95 148.09V148.1Z" fill="#0057A0"/>
<path d="M516.73 146.72L516.42 145.95L517.15 146.23C517.31 146.29 517.39 146.49 517.32 146.68C517.25 146.86 517.06 146.96 516.9 146.9C516.82 146.87 516.76 146.81 516.73 146.73V146.72Z" fill="#0057A0"/>
<path d="M523.06 157.51L535.39 154.94C535.39 154.94 537.3 159.65 532.45 161.38C525.78 163.77 523.06 157.51 523.06 157.51Z" fill="#0057A0"/>
<path d="M530.59 158.84C532.1 157.79 533.87 157.38 535.67 157.77C535.68 157.77 535.7 157.77 535.71 157.77C535.51 159.1 534.73 160.56 532.45 161.38C530.9 161.94 529.56 162.02 528.43 161.83C528.88 160.66 529.46 159.62 530.59 158.84Z" fill="#0057A0"/>
<path d="M531.45 133.14C521.16 136.12 507.89 137.59 511.3 126.33C515.43 112.7 530.13 105.73 542.76 112.49C547.92 115.25 551.29 119.29 553.94 124.4C555.95 128.29 559.71 131.02 558.35 135.55C558.02 136.64 551.11 146.17 550.21 144.62C547.28 139.54 544.35 134.47 541.43 129.39C539.64 130.34 535.82 131.87 531.46 133.14H531.45Z" fill="#0C232E"/>
<path d="M511.48 172.26L488.28 199.41L476.38 212.5L486.89 224.97L510.71 209.04L517.93 192.29L511.48 172.26Z" fill="#34BBA1"/>
<path d="M511.16 172.36C511.16 172.36 499.45 195.29 498.1 198.88C495.47 205.87 499.58 214.09 502.08 220.45C505.06 228.04 506.23 233.46 504.49 241.31C500.86 257.65 490.81 274.11 491.11 291.07C491.13 292.27 491.22 293.51 491.79 294.57C492.5 295.9 493.86 296.74 495.17 297.49C507.75 304.6 522.63 308.06 536.88 305.7C551.13 303.34 564.56 294.81 571.49 282.14C572.04 281.13 572.56 280.07 572.62 278.92C572.69 277.5 572.04 276.15 571.38 274.88C568 268.36 564.12 262.09 559.77 256.17C554.52 249.01 549.98 242.64 550.35 233.47C550.7 224.7 553.19 215.97 558.03 208.59C561.41 203.44 565.83 198.92 568.32 193.28C568.72 192.37 569.07 191.42 569.08 190.42C569.09 188.75 568.14 187.24 567.11 185.92C561.93 179.29 557.07 175.66 549.77 171.51L523.55 184.88L522.37 170.77L511.18 172.37L511.16 172.36Z" fill="#34BBA1"/>
<path d="M581.71 235.58C576.17 242.77 569.87 249.38 562.96 255.26C560.43 257.41 554.31 260.73 554.04 263.44C553.93 264.51 555.27 266.63 555.2 268.13C555.11 270.2 554.27 272.28 553.51 274.18C552.78 276 552.05 277.82 551.33 279.64C550.85 280.84 550.35 282.08 549.44 283.01C548.53 283.94 547.12 284.49 545.92 284.02C544.25 283.36 543.81 281.25 543.56 279.48C542.99 275.42 539.83 273.25 540.72 268.66C539.23 271.16 535.49 272.11 533.2 270.1C535.72 267.88 539.35 265.63 541.34 262.95C543.51 260.03 544.85 256.77 547.37 253.94C555.77 244.49 564.17 235.04 572.57 225.59" fill="#E9EBEC"/>
<path d="M556.78 174.12C568.97 179.62 578.8 193.27 584.49 204C586.75 208.26 590.99 214.65 591.14 219.6C591.3 224.83 589.05 229.84 585.88 233.87C582.71 237.9 578.64 241.12 574.62 244.29C570.62 242.43 563.96 239.61 559.96 237.75C562.9 232.9 568.61 228.61 568.26 222.85C567.96 217.83 565.12 213.3 562.22 209.14C559.11 204.67 555.82 200.33 552.37 196.12C549.68 192.84 543.26 188.51 543.16 183.82C543.09 180.36 547.09 175.21 548.28 171.78C551.22 172.07 554.06 172.9 556.79 174.12H556.78Z" fill="#34BBA1"/>
<path d="M514.82 178.73L527.12 194.32C529.42 197.23 525.43 200.9 522.72 198.37L505.07 181.88L514.82 178.73Z" fill="#8C6F65"/>
<path d="M523.8 171.9C524.77 168.59 524.37 164.76 522.18 162.09C519.99 159.42 515.86 158.33 512.89 160.08C512.94 157.21 512.52 154.22 510.89 151.86C509.26 149.5 506.17 147.99 503.44 148.88C501.82 149.41 499.67 150.55 498.76 149.11C498.4 148.54 498.49 147.8 498.38 147.12C498.11 145.38 496.52 144.15 494.92 143.42C488.54 140.52 480.13 143.45 476.94 149.69C476.51 150.52 476.17 151.51 476.54 152.37C476.99 153.43 478.27 153.81 479.17 154.52C480.89 155.86 481.2 158.36 480.84 160.51C480.48 162.66 479.6 164.71 479.45 166.88C479.13 171.52 482.68 176.11 487.25 176.97C488.33 177.17 489.47 177.2 490.47 177.67C493.14 178.94 493.43 182.53 494.8 185.15C496.88 189.13 501.94 190.92 506.35 190.11C514.06 188.7 521.68 179.1 523.79 171.87L523.8 171.9Z" fill="#E2DDEF"/>
<g style="mix-blend-mode:multiply" opacity="0.32">
<path d="M503.4 157.29C506.25 158.03 508.68 161.08 507.71 163.86C505.9 161.9 502.7 162.02 500.24 163.06C497.29 164.31 488.51 171.78 486.13 165.78C483.53 159.23 499.72 156.33 503.4 157.29Z" fill="#99C1D7"/>
</g>
<g style="mix-blend-mode:multiply" opacity="0.32">
<path d="M505.38 180.71C502.57 181.37 498.38 180.17 498.74 176.66C499.06 173.5 503.83 174.88 506 174.3C507.3 173.95 513.2 171.5 512.9 169.6C513.64 174.46 510.17 179.6 505.38 180.71Z" fill="#99C1D7"/>
</g>
<path d="M504.03 197.39C507.61 194.8 509.98 191.71 514.28 188.16C517.72 185.33 521.97 183.29 526.43 183.23C527.44 183.22 528.54 183.34 529.28 184.04C529.91 184.64 530.15 185.53 530.3 186.39C530.91 189.82 531.63 196.93 529.36 199.9C528.46 201.07 522.52 204.64 521.29 204.66C519.47 204.69 520.25 202.18 518.72 202.09C515.96 201.94 514.57 203.65 512.55 205.32C508.09 209.01 504.01 213.15 499.49 216.78C494.04 221.16 480 232.54 474.92 221.84C473.97 219.85 474.19 217.44 475.09 215.42C475.99 213.41 477.52 211.73 479.18 210.27C484.65 205.45 491.67 203.23 498.29 200.53C500.62 199.58 502.45 198.53 504.03 197.38V197.39Z" fill="#E9EBEC"/>
<path d="M63.63 74.51C61.08 72.38 56.56 73.52 55.34 76.62C52.55 79.66 50.51 83.28 48.49 86.87C47.28 89.03 46.03 91.33 46.16 93.8C46.24 95.41 46.91 96.92 47.57 98.4C48.31 100.06 49.06 101.73 49.8 103.39C50.9 105.85 52.31 108.58 54.91 109.26C53.22 109.47 52.66 111.9 53.59 113.33C54.52 114.76 56.27 115.38 57.89 115.9C62.7 117.47 65.01 118.72 68.64 121.85C71.97 124.72 76.67 126.47 81.05 126.43C85.19 126.4 89.03 124.68 92.04 121.88C95.7 118.49 95.17 113.58 95.11 108.86C95.03 103.03 94.96 97.19 94.88 91.36C94.85 89.09 94.79 86.68 93.96 84.78C92.52 81.49 89.44 81.07 86.79 81C78.01 80.74 69.23 80.49 60.45 80.23" fill="url(#paint0_linear_261_128)"/>
<path d="M72.03 114.96L62.25 134.97L66.73 138.55C72.38 143.07 80.82 140.54 83.04 133.65L88.72 116.05L72.02 114.95L72.03 114.96Z" fill="#E9EBEC"/>
<g style="mix-blend-mode:multiply" opacity="0.32">
<path d="M82.49 133L89.65 116.3L72.23 114.97L67.27 128.31C71.93 131.47 77.11 132.72 82.49 133Z" fill="#E9EBEC"/>
</g>
<path d="M100.18 111.41C99.87 114.67 98.51 117.88 96.83 120.46C95.11 123.11 92.94 124 90.28 124.99C82.74 127.8 68.65 126.7 64.67 118.19C64.11 116.99 63.89 115.65 63.67 114.34C62 104.13 59.61 92.44 69.52 85.81C72.29 83.96 75.33 82.83 78.36 81.75C83.52 79.9 91.21 77.57 95.36 83.44C97.77 86.84 97.09 93.62 98.08 97.81C99.13 102.22 100.61 106.72 100.16 111.42L100.18 111.41Z" fill="#E9EBEC"/>
<path d="M71.1499 100.11C70.9899 100.06 71.0599 99.62 71.5299 98.99C71.9899 98.36 72.8999 97.57 74.1499 96.97C75.3999 96.37 76.6899 96.12 77.5899 96.1C78.4899 96.08 78.9899 96.24 78.9599 96.38C78.8899 96.69 76.8799 96.85 74.7899 97.87C72.6699 98.85 71.5199 100.21 71.1499 100.11Z" fill="url(#paint1_linear_261_128)"/>
<path d="M88.25 93.65C88.22 93.51 88.59 93.26 89.26 93.05C89.92 92.84 90.89 92.7 91.88 92.79C92.88 92.88 93.68 93.15 94.16 93.5C94.65 93.85 94.7 94.23 94.53 94.32C94.35 94.42 94.04 94.3 93.54 94.2C93.04 94.1 92.29 93.97 91.46 93.9C89.8 93.75 88.31 93.94 88.25 93.65Z" fill="url(#paint2_linear_261_128)"/>
<path d="M85.7599 99.7C86.1799 100.73 86.5099 101.77 86.8499 102.8L87.8299 105.88L88.0699 106.65L88.1899 107.03C88.2099 107.1 88.2499 107.16 88.2799 107.22C88.3599 107.34 88.4999 107.44 88.6699 107.49C88.7599 107.52 88.8399 107.53 88.9499 107.54C89.1599 107.54 89.3699 107.6 89.5599 107.71C89.9199 107.93 90.1299 108.28 90.1999 108.62C90.2699 108.96 90.2499 109.29 90.1399 109.6C89.9199 110.2 89.4999 110.6 89.0699 110.95C89.2999 110.45 89.5699 109.95 89.5999 109.48C89.6499 109.03 89.3999 108.57 89.1499 108.5C89.0999 108.49 89.0399 108.48 88.9699 108.5C88.7999 108.51 88.6099 108.5 88.4399 108.47C88.0799 108.4 87.7199 108.22 87.4499 107.91C87.3199 107.76 87.2099 107.58 87.1399 107.4L86.9999 107.01L86.7399 106.23C86.4099 105.18 86.1599 104.1 85.9799 103.02C85.7999 101.93 85.6999 100.83 85.7499 99.72L85.7599 99.7Z" fill="#0057A0"/>
<path d="M92.1999 112.09L76.3299 114.1C76.3299 114.1 75.9799 120.54 82.5199 120.62C91.5199 120.73 92.1999 112.09 92.1999 112.09Z" fill="#0057A0"/>
<path d="M83.71 116.8C81.46 116.16 79.16 116.4 77.17 117.61C77.15 117.61 77.14 117.63 77.12 117.64C77.9 119.15 79.46 120.59 82.52 120.63C84.61 120.66 86.25 120.2 87.54 119.5C86.52 118.28 85.39 117.28 83.71 116.8Z" fill="#0057A0"/>
<path d="M81.08 103.69C80.43 103.17 79.76 102.85 79.07 102.75C78.38 102.65 77.68 102.74 77 102.93C76.32 103.13 75.67 103.44 75.06 103.84C74.45 104.24 73.89 104.72 73.42 105.31L73.36 105.39C73.3 105.47 73.1799 105.49 73.0899 105.44C72.7599 105.24 72.9 104.88 73.28 104.95L72.95 105.08C73.21 104.26 73.73 103.53 74.38 102.96C75.03 102.39 75.82 101.97 76.68 101.76C77.53 101.55 78.48 101.54 79.31 101.89C80.15 102.23 80.81 102.91 81.07 103.69H81.08Z" fill="#0057A0"/>
<path d="M89.38 103.04C89.72 102.29 90.18 101.69 90.75 101.29C91.32 100.89 91.98 100.65 92.67 100.51C93.36 100.38 94.09 100.36 94.81 100.44C95.53 100.52 96.25 100.69 96.94 101.01L97.03 101.05C97.13 101.09 97.24 101.05 97.29 100.97C97.49 100.64 97.2 100.38 96.9 100.62L97.25 100.58C96.65 99.9699 95.85 99.5599 95.01 99.3399C94.17 99.1299 93.28 99.1199 92.42 99.3099C91.57 99.5099 90.72 99.9299 90.13 100.63C89.54 101.31 89.26 102.22 89.38 103.04Z" fill="#0057A0"/>
<path d="M57.72 97.55C56.34 98.15 55.7 99.77 55.55 101.27C55.1 105.71 58.04 110.26 62.27 111.67C63.54 112.09 65.1399 112.17 66.0199 111.16C66.9099 110.12 66.5799 108.54 66.0899 107.26C65.1599 104.78 61.48 95.9 57.72 97.54V97.55Z" fill="#E9EBEC"/>
<path d="M56.96 101.19C56.96 101.19 57.66 101.2 58.61 101.74C59.56 102.26 60.7 103.33 61.48 104.8C62.26 106.27 62.58 107.74 62.75 108.79C62.91 109.85 62.93 110.51 62.87 110.51C62.8 110.51 62.67 109.87 62.43 108.85C62.19 107.83 61.82 106.41 61.08 105.01C60.34 103.61 59.3 102.58 58.44 102.01C57.58 101.43 56.93 101.26 56.96 101.19Z" fill="#0057A0"/>
<path d="M61.44 109.72C61.39 109.75 61.16 109.49 60.86 109.02C60.56 108.56 60.17 107.87 59.95 107.03C59.73 106.18 59.79 105.35 60 104.81C60.2 104.26 60.47 104.01 60.52 104.04C60.58 104.08 60.42 104.38 60.31 104.89C60.2 105.4 60.19 106.14 60.39 106.91C60.59 107.69 60.92 108.36 61.15 108.86C61.38 109.36 61.51 109.68 61.45 109.71L61.44 109.72Z" fill="#0057A0"/>
<path d="M55.25 78.52C54.41 81.77 55.27 85.05 56.48 88.08C57.38 90.34 58.11 93.63 59.3 95.69C63.22 102.49 69.6 92.29 69.11 92C73.05 94.31 76.32 91.72 80.15 90.87C83.45 90.13 87.17 90.49 90.5 90.81C91.93 90.95 96.19 92.25 97.48 91.47C99 90.53 97.7 89.43 95.84 88.96C99.91 89.81 106.63 88.14 105.9 82.68C105.59 80.36 102.98 78.46 100.8 79.33C102.93 77.97 104.1 75.24 103.61 72.76C103.12 70.28 101 68.2 98.51 67.75C94.78 67.08 91.29 69.76 87.52 70.18C83.3 70.65 79.34 68.26 75.19 67.38C69.37 66.15 63.09 68.31 58.92 72.47C56.92 74.47 55.76 76.47 55.24 78.51L55.25 78.52Z" fill="url(#paint3_linear_261_128)"/>
<path d="M57.98 449.92C64.03 455.31 79.16 460.18 82.35 453.21C83.64 450.4 81.85 447.1 80.14 444.52C75.06 436.87 70.09 431.44 71.91 421.51C67 422.16 62.09 422.81 57.19 423.46C57.96 423.36 56.89 431.7 56.69 432.62C55.62 437.55 53.52 442.09 55.78 447.17C56.18 448.06 56.95 449 57.98 449.92Z" fill="#0057A0"/>
<path d="M106.57 421.52C113.27 423.02 115.52 422.65 122.36 421.63L134.47 429.93C134.47 429.93 148.35 438.81 147.32 442.53C146.29 446.25 109.42 437.58 109.42 437.58C109.42 437.58 103.23 436.15 105.04 429.62C106.13 425.66 107.3 424.91 106.57 421.53V421.52Z" fill="#0057A0"/>
<path d="M45.9801 252.14C45.9801 252.14 45.1901 279.64 46.2201 286.99C48.6001 303.87 55.9901 431.6 55.5901 430.11C55.5901 430.11 65.8401 432.77 72.1101 428.79C78.3801 424.81 85.3901 295.4 85.3901 295.4L92.1801 294.73L105.5 344.36C105.5 344.36 101.51 422.81 104.07 423.2C106.63 423.59 124.21 426.68 125.35 422.29C126.49 417.9 133.06 338.37 133.06 338.37L105.23 249.73L45.9701 252.14H45.9801Z" fill="#0057A0"/>
<g style="mix-blend-mode:multiply" opacity="0.32">
<path d="M113.84 277.13C108.2 287.9 92.1901 294.73 92.1901 294.73L105.51 344.36C105.51 344.36 101.52 422.81 104.08 423.2C106.64 423.59 124.22 426.68 125.36 422.29C126.5 417.9 133.07 338.37 133.07 338.37L113.85 277.13H113.84Z" fill="#E9EBEC"/>
</g>
<path d="M29.4 144.98C34.54 159.06 42.53 163.67 41.58 178.63C40.47 196.11 46.73 214.3 45.62 231.78C45.28 237.08 43.35 242.84 43.99 248.15C44.71 254.14 52.75 254.62 57.9 255.83C74.07 259.63 91.39 258.59 106.93 252.67C108.25 252.17 106.72 231.29 106.68 229.24C106.48 218.89 106.22 208.55 105.88 198.2C105.31 180.91 105.94 161.36 104.66 149.78C103.7 141.09 93.13 134.64 91.59 134.26C83.24 132.18 77.13 130.14 68.52 129.66C47.7 128.48 29.52 145.33 29.39 144.98H29.4Z" fill="white"/>
<g style="mix-blend-mode:multiply" opacity="0.32">
<path d="M84.9501 131.2C89.7501 132.05 93.6401 133.45 93.2401 136.07C92.9701 137.8 91.4801 139.39 89.5801 140.53C81.4801 145.35 58.6801 141.43 55.5101 134.25C52.3601 127.1 65.1001 128.7 70.6201 129.55C73.6701 130.02 79.8301 130.3 84.9501 131.21V131.2Z" fill="#E9EBEC"/>
</g>
<g style="mix-blend-mode:multiply" opacity="0.32">
<path d="M56.16 171.71C57.3 177.57 53.09 210.76 57.51 213C71.42 220.07 83.37 229.45 86.61 232.64C89.71 235.69 86.92 240.87 82.66 240.01C72.6 237.98 61.43 231.92 55.37 226.21C46.76 218.11 42.05 206.38 41.16 194.59C40.51 185.89 41.46 176 44.65 167.82C48.64 157.56 54.53 163.32 56.15 171.71H56.16Z" fill="#E9EBEC"/>
</g>
<path d="M85.86 129.79C87.48 129.86 89.1 130 90.6 130.46C95.69 132.02 94.51 135.42 90.64 137.73C84.69 141.27 74.96 140.02 68.63 138.42C63.68 137.17 49.75 131.16 59.36 126.42C61.25 125.49 63.67 125.31 65.68 125.95C67.74 126.6 69.27 128.02 71.29 128.74C73 129.35 74.94 129.42 76.84 129.48C79.43 129.57 82.02 129.65 84.6 129.74C85.02 129.75 85.44 129.77 85.87 129.79H85.86Z" fill="white"/>
<path d="M110.88 257.42C110.88 257.42 110.88 257.34 110.88 257.31C110.85 248.69 101.97 237.98 92.82 241.77C90.35 242.79 88.33 244.27 86.94 246.58C84.89 250 86.16 250.79 89.08 253.22C93.67 257.03 110.77 272.13 110.88 257.42Z" fill="#E9EBEC"/>
<path d="M50.63 161.96L48.85 211.47L95.61 240.59C95.61 240.59 90.08 250.69 85.87 250.65C81.66 250.61 23.55 225.84 22.6 221.13C21.65 216.42 29.39 144.98 29.39 144.98L50.63 161.96Z" fill="white"/>
<path d="M169.18 62.38C169.18 62.38 169.1 62.39 169.07 62.4C160.58 63.89 151.54 74.46 156.83 82.84C158.26 85.1 160.06 86.84 162.57 87.82C166.29 89.26 166.86 87.88 168.75 84.59C171.72 79.42 183.7 60.01 169.19 62.39L169.18 62.38Z" fill="#E9EBEC"/>
<path d="M85.3299 137.97L134.42 131.32L155.17 80.3C155.17 80.3 166.06 84.04 166.74 88.19C167.42 92.34 152.87 153.82 148.39 155.55C143.91 157.28 72.1899 161.78 72.1899 161.78L85.3099 137.97H85.3299Z" fill="white"/>
</g>
<defs>
<linearGradient id="paint0_linear_261_128" x1="95.18" y1="99.93" x2="46.14" y2="99.93" gradientUnits="userSpaceOnUse">
<stop offset="0.2" stop-color="#D8E9DF"/>
<stop offset="0.92" stop-color="#D7E7CB"/>
</linearGradient>
<linearGradient id="paint1_linear_261_128" x1="78.9599" y1="98.1" x2="71.0699" y2="98.1" gradientUnits="userSpaceOnUse">
<stop offset="0.2" stop-color="#D8E9DF"/>
<stop offset="0.92" stop-color="#D7E7CB"/>
</linearGradient>
<linearGradient id="paint2_linear_261_128" x1="94.63" y1="93.56" x2="88.26" y2="93.56" gradientUnits="userSpaceOnUse">
<stop offset="0.2" stop-color="#D8E9DF"/>
<stop offset="0.92" stop-color="#D7E7CB"/>
</linearGradient>
<linearGradient id="paint3_linear_261_128" x1="105.97" y1="82.53" x2="54.92" y2="82.53" gradientUnits="userSpaceOnUse">
<stop offset="0.2" stop-color="#D8E9DF"/>
<stop offset="0.92" stop-color="#D7E7CB"/>
</linearGradient>
<clipPath id="clip0_261_128">
<rect width="591.16" height="476.53" fill="white"/>
</clipPath>
</defs>
</svg>
