<svg width="710" height="604" viewBox="0 0 710 604" fill="none" xmlns="http://www.w3.org/2000/svg">
<g clip-path="url(#clip0_296_958)">
<path d="M19.3088 346.739L19.1545 359.737L207.653 361.975L207.808 348.976L19.3088 346.739Z" fill="#3B416E"/>
<path d="M133.29 475.887L36.563 357.879L39.2918 355.703L136.037 473.73L133.29 475.887Z" fill="#3B416E"/>
<path d="M21.2875 205.154L19.5752 349.428L208.056 351.665L209.768 207.391L21.2875 205.154Z" fill="#ECEEEE"/>
<path d="M63.391 205.647L62.1621 309.192L208.256 310.926L209.485 207.381L63.391 205.647Z" fill="#F7F7F6"/>
<path d="M31.7866 63.2587L30.0736 207.587L200.302 209.608L202.015 65.2791L31.7866 63.2587Z" fill="#1762A0"/>
<path d="M65.0662 63.6627L63.7928 170.951L200.761 172.576L202.034 65.2884L65.0662 63.6627Z" fill="#3A95C7"/>
<path d="M138.655 96.3428H75.4675V128.961H138.655V96.3428Z" fill="#FEFFFE"/>
<path d="M187.332 311.561H114.206V334.849H187.332V311.561Z" fill="#7EC893"/>
<path d="M187.332 273.706H114.206V296.994H187.332V273.706Z" fill="#FEFFFE"/>
<path d="M44.6205 72.4645V181.973" stroke="#3B416E" stroke-width="0.75" stroke-miterlimit="10"/>
<path d="M43.4036 226.134V324.136" stroke="#3B416E" stroke-width="0.75" stroke-miterlimit="10"/>
<path d="M374.314 136.023C383.459 114.357 388.161 118.451 409.365 132.593L492.411 194.714L528.586 135.47L556.17 140.909L514.61 230.559C512.803 233.14 510.499 235.132 507.917 236.515C501.409 241.382 492.3 241.788 485.257 236.902L377.983 174.966C369.207 168.863 370.184 145.851 374.332 136.005L374.314 136.023Z" fill="#EBEDED"/>
<path d="M538.082 179.207L511.918 166.908C511.918 166.908 526.282 140.633 528.586 135.451C530.891 130.289 529.269 106.871 529.269 106.871C529.269 106.871 526.853 96.5087 530.301 96.4165C533.731 96.3243 537.64 98.0576 538.156 104.364L538.672 110.67L552.556 81.9974C552.556 81.9974 557.516 74.4006 560.024 77.2402C562.531 80.0797 552.906 102.28 552.906 102.28C552.906 102.28 567.38 83.325 569.058 81.5364C570.718 79.7663 575.696 79.4344 574 85.4454C573.428 87.4921 560.024 109.785 560.024 109.785C560.024 109.785 574.239 92.4337 576.839 91.2168C579.07 90.1658 580.398 91.5671 580.029 94.5911C579.642 97.6335 566.145 116.478 566.145 116.478C566.145 116.478 574.848 105.267 579.07 103.515C580.564 102.889 586.667 103.515 581.965 109.305C577.263 115.095 574.479 118.598 569.114 125.513C567.049 128.168 559.784 134.788 554.271 144.247C545.365 159.533 538.119 179.188 538.119 179.188L538.082 179.207Z" fill="#EBEDED"/>
<path d="M539.778 114.394C539.428 115.722 547.541 123.522 543.153 130.547" stroke="#3B416E" stroke-width="0.5" stroke-miterlimit="10" stroke-linecap="round"/>
<path d="M547.762 131.69C549.385 129.109 552.98 126.103 555.469 125.568" stroke="#3B416E" stroke-width="0.5" stroke-miterlimit="10" stroke-linecap="round"/>
<path d="M543.743 115.335C540.202 114.874 537.676 111.592 538.101 108.015L544.185 56.9575C544.609 53.3619 547.836 50.8358 551.358 51.2783L579.162 54.8739C582.703 55.3349 585.229 58.617 584.786 62.1941L578.701 113.251C578.277 116.847 575.051 119.373 571.511 118.93L543.706 115.335H543.743Z" fill="#1762A0"/>
<path d="M547.449 109.176C544.646 108.826 542.636 106.226 542.968 103.368L547.67 62.7657C548.002 59.9261 550.565 57.8978 553.367 58.2482L575.475 61.0324C578.277 61.4012 580.287 64.0011 579.974 66.8591L575.272 107.461C574.94 110.319 572.396 112.329 569.575 111.979L547.467 109.195L547.449 109.176Z" fill="#3B416E"/>
<path d="M560.706 74.5297C556.299 74.5297 555.23 81.9974 554.75 84.4866C553.939 88.6907 552.667 90.7374 548.942 93.0791C555.23 95.9555 564.191 96.8775 571.234 96.3981C569.906 94.6464 568.782 92.5997 567.786 90.5161C566.809 88.451 567.454 80.9464 567.454 78.6599C567.454 75.0644 563.674 74.5112 560.706 74.5112V74.5297Z" stroke="white" stroke-width="0.5" stroke-miterlimit="10"/>
<path d="M553.81 64.7571L556.354 70.51" stroke="white" stroke-width="0.5" stroke-miterlimit="10"/>
<path d="M570.22 73.4971L573.834 68.5924" stroke="white" stroke-width="0.5" stroke-miterlimit="10"/>
<path d="M563.822 71.5794L564.67 65.4024" stroke="white" stroke-width="0.5" stroke-miterlimit="10"/>
<path d="M364.689 120.7C364.689 120.7 348.685 139.987 364.505 165.285C380.325 190.602 408.849 208.69 408.849 208.69L449.782 158.666C449.782 158.666 423.562 138.033 411.412 127.449C397.288 115.15 385.358 105.931 379.938 105.857C375.291 105.802 364.689 120.682 364.689 120.682V120.7Z" fill="#081D1E"/>
<path d="M538.396 486.748C532.2 481.861 526.651 475.906 523 468.733C518.888 460.675 517.763 451.511 517.487 442.513C517.192 432.869 517.431 423.189 517.542 413.546C517.653 403.755 517.819 393.964 518.003 384.154C518.058 381.665 518.095 379.194 518.169 376.705C518.187 376.133 517.487 375.506 516.952 375.635C509.946 377.184 502.921 378.77 495.932 380.374C493.056 381.038 489.35 381.278 487.193 383.656C485.496 385.537 485.294 388.303 485.552 390.737C485.902 393.853 486.787 396.895 487.377 399.993C488.059 403.57 488.668 407.166 489.166 410.798C490.18 417.971 490.844 425.18 491.157 432.408C491.305 436.078 491.36 439.729 491.341 443.398C491.194 444.726 491.028 446.035 490.844 447.362C490.438 449.999 489.958 452.654 489.405 455.273C488.262 457.78 486.824 460.214 485.699 462.574C484.556 465.064 483.542 467.737 483.524 470.54C483.524 473.435 484.777 476.201 486.861 478.063C491.581 482.322 498.68 481.824 504.377 483.705C510.701 485.77 515.864 490.38 521.248 494.197C526.263 497.756 545.199 498.714 545.144 495.1C545.089 491.191 541.014 488.85 538.396 486.748Z" fill="#EBEDED"/>
<path d="M480.113 473.232C480.113 473.232 477.033 469.673 482.362 460.86C487.654 452.027 490.309 450.866 490.309 450.866C490.309 450.866 497.979 456.25 505.428 458.499C512.877 460.767 518.335 461.007 520.455 460.565C522.557 460.14 526.761 476.772 539.557 480.718C552.188 484.609 550.528 490.749 549.809 495.414C549.127 500.06 480.094 473.232 480.094 473.232H480.113Z" fill="white"/>
<path d="M478.195 478.727C481.846 482.378 489.276 484.351 493.148 485.18C499.528 486.545 506.092 488.02 512.103 491.376C521.728 496.723 546.324 503.582 549.827 495.395C551.819 490.749 540.498 492.003 536.828 490.823C529.988 488.592 523.129 486.287 516.196 484.461C511.255 483.152 480.574 463.201 479.301 468.659C479.301 468.659 473.604 474.135 478.177 478.727H478.195Z" fill="#3B416E"/>
<path d="M519.109 470.687C520.234 471.517 528.402 465.727 524.014 464.805C524.014 464.805 515.33 467.903 519.109 470.687Z" fill="#D4D8D9"/>
<path d="M522.336 474.855C523.461 475.666 531.629 469.876 527.241 468.954C527.241 468.954 518.519 472.033 522.336 474.855Z" fill="#D4D8D9"/>
<path d="M525.784 479.151C526.89 479.981 535.077 474.172 530.689 473.25C530.689 473.25 521.986 476.348 525.784 479.151Z" fill="#D4D8D9"/>
<path d="M529.785 482.58C530.891 483.392 539.059 477.62 534.671 476.68C534.671 476.68 525.968 479.759 529.785 482.58Z" fill="#D4D8D9"/>
<path d="M474.563 432.316C491.95 437.295 531.721 437.645 533.141 436.649C534.173 418.118 532.145 376.705 533.196 339.071C534.155 304.959 543.577 285.967 532.311 260.172C514.85 220.215 386.244 248.463 330.616 288.623C319.35 296.754 274.803 261.204 263.335 276.232C262.708 277.043 244.343 318.659 268.258 353.49C279.265 369.532 299.123 364.756 342.176 358.321C366.57 354.67 468.183 321.665 475.411 309.495C477.255 306.416 477.384 319.508 474.636 334.738C471.723 350.835 468.607 411.868 474.581 432.316H474.563Z" fill="#1762A0"/>
<path d="M460.218 310.214C468.939 307.91 488.373 288.328 487.912 280.104" stroke="#3B416E" stroke-width="0.5" stroke-miterlimit="10" stroke-linecap="round"/>
<path d="M483.837 302.71C485.828 300.11 489.332 292.089 490.825 291.573" stroke="#3B416E" stroke-width="0.5" stroke-miterlimit="10" stroke-linecap="round"/>
<path d="M482.657 316.982C485.312 312.833 487.451 308.131 490.106 303.89C491.526 301.604 496.596 294.855 495.748 294.431" stroke="#3B416E" stroke-width="0.5" stroke-miterlimit="10" stroke-linecap="round"/>
<path d="M71.6877 19.0104L219.157 353.804" stroke="#3B416E" stroke-width="0.75" stroke-miterlimit="10" stroke-linecap="round"/>
<path d="M0 38.7031L65.05 0L78.2886 31.4566L0 38.7031Z" fill="#081D1E"/>
<path d="M172.913 369.864C189.913 354.283 223.102 349.618 231.824 352.863C239.678 355.758 370.774 382.919 397.122 388.358C391.683 395.844 388.548 404.363 388.438 413.416C388.087 444.117 422.382 469.415 465.048 469.913C487.303 470.171 506.184 467.129 521.746 446.053C533.362 430.343 541.106 413.214 543.337 382.845C546.767 336.25 524.032 253.46 524.032 253.46L542.747 254.308C542.747 254.308 572.156 329.336 577.706 349.452C583.256 369.569 576.305 402.04 564.928 434.142C553.533 466.244 534.247 504.504 497.832 524.289C484.316 531.646 424.872 555.1 327.315 496.17C276.462 465.469 146.473 501.554 146.473 501.554C146.473 501.554 136.369 483.115 141.587 438.124C144.795 410.558 150.124 390.755 172.932 369.882L172.913 369.864Z" fill="#E9EBEC"/>
<path d="M543.835 378.973C543.89 378.309 542.636 388.745 542.286 393.466C540.055 423.816 532.311 440.964 520.695 456.692C505.115 477.749 486.271 480.829 463.979 480.571C421.313 480.073 387.018 454.775 387.387 424.074C387.423 421.843 388.069 415.611 388.456 413.435C392.623 441.112 424.558 466.944 464.145 467.424C486.418 467.682 505.28 464.639 520.861 443.564C532.477 427.854 541.604 409.341 543.835 379.01V378.973Z" fill="#FEFFFE"/>
<path d="M555.746 441.019C562.033 419.428 565.721 395.051 566.016 369.2C566.551 324.08 556.686 283.165 540.369 253.626C542.563 253.921 544.996 255.377 544.996 255.377C544.996 255.377 575.29 317.959 580.029 332.857C589.543 362.691 593.452 379.36 593.452 394.074C593.452 417.565 586.501 437.018 575.014 455.512L555.746 441.019Z" fill="#FEFFFE"/>
<path d="M533.178 521.781C532.643 566.661 568.579 603.447 613.439 603.982C658.299 604.516 695.102 568.579 695.618 523.699C696.153 478.837 660.217 442.034 615.357 441.517C570.496 440.983 533.712 476.92 533.178 521.781Z" fill="#3B416E"/>
<path d="M672.238 522.759C672.238 554.695 646.351 580.601 614.416 580.601C582.481 580.601 556.576 554.713 556.576 522.759C556.576 490.804 582.463 464.916 614.416 464.916C646.37 464.916 672.238 490.804 672.238 522.759Z" fill="#09283B"/>
<path d="M563.508 522.169C563.176 550.269 585.708 573.318 613.789 573.65C641.889 573.982 664.955 551.468 665.287 523.367C665.619 495.266 643.088 472.199 615.006 471.867C586.906 471.536 563.84 494.049 563.527 522.169H563.508Z" fill="#3A95C7"/>
<path d="M597.287 521.818C597.177 530.872 604.441 538.303 613.476 538.413C622.547 538.524 629.96 531.259 630.07 522.205C630.181 513.152 622.935 505.721 613.863 505.61C604.828 505.5 597.398 512.765 597.287 521.818Z" fill="#3B416E"/>
<path d="M654.243 522.759C654.243 544.775 636.413 562.605 614.398 562.605C592.383 562.605 574.553 544.775 574.553 522.759C574.553 500.743 592.383 482.912 614.398 482.912C636.413 482.912 654.243 500.761 654.243 522.759Z" stroke="#3B416E" stroke-width="0.75" stroke-miterlimit="10" stroke-linecap="round"/>
<path d="M652.952 483.06C634.901 481.99 614.767 484.996 597.674 492.04C581.117 498.825 568.063 506.532 551.542 516.545C543.079 521.689 533.417 527.774 523.424 529.175C515.938 530.226 510.554 527.995 505.428 524.898C505.096 521.431 504.875 517.928 504.912 514.369C505.575 458.979 554.179 414.633 613.494 415.353C656.511 415.869 693.24 439.987 709.981 474.301C694.438 487.301 672.054 484.185 652.934 483.06H652.952Z" fill="#081D1E"/>
<path d="M598.799 434.51C579.476 434.289 561.462 439.618 546.49 448.893C563.656 431.376 588.381 420.442 615.854 420.755C652.971 421.198 684.666 442.015 699.121 471.628C693.276 476.496 686.344 478.745 678.987 479.649C663.425 453.097 633.481 434.898 598.781 434.492L598.799 434.51Z" fill="#173E6C"/>
<path d="M155.342 517.928C154.807 562.808 190.743 599.593 235.603 600.128C280.463 600.663 317.266 564.725 317.782 519.864C318.317 475.002 282.381 438.198 237.521 437.682C192.661 437.147 155.877 473.084 155.342 517.946V517.928Z" fill="#3B416E"/>
<path d="M294.403 518.905C294.403 550.841 268.515 576.729 236.562 576.729C204.609 576.729 178.74 550.841 178.74 518.905C178.74 486.969 204.627 461.062 236.562 461.062C268.497 461.062 294.403 486.95 294.403 518.905Z" fill="#09283B"/>
<path d="M185.691 518.315C185.359 546.416 207.891 569.464 235.972 569.796C264.072 570.128 287.138 547.614 287.47 519.513C287.802 491.413 265.289 468.346 237.189 468.014C209.108 467.682 186.041 490.196 185.71 518.315H185.691Z" fill="#3A95C7"/>
<path d="M219.451 517.965C219.341 527.018 226.605 534.449 235.64 534.559C244.712 534.67 252.124 527.405 252.235 518.37C252.345 509.317 245.099 501.886 236.027 501.775C226.993 501.665 219.562 508.93 219.451 517.983V517.965Z" fill="#3B416E"/>
<path d="M276.407 518.905C276.407 540.902 258.577 558.751 236.562 558.751C214.547 558.751 196.717 540.921 196.717 518.905C196.717 496.889 214.547 479.059 236.562 479.059C258.577 479.059 276.407 496.907 276.407 518.905Z" stroke="#3B416E" stroke-width="0.75" stroke-miterlimit="10" stroke-linecap="round"/>
<path d="M278.915 497.424C207.706 496.575 160.136 504.135 115.884 523.92C115.663 520.011 116.824 511.548 116.88 507.547C117.783 430.767 180.842 390.313 245.191 391.069C289.259 391.585 335.797 415.482 353.147 463.681C356.632 473.361 357.959 493.552 357.646 514.443C336.331 510.46 302.811 497.7 278.933 497.405L278.915 497.424Z" fill="#081D1E"/>
<path d="M166.792 446.994C223.176 413.066 283.45 437.866 301.594 444.726C317.229 450.626 328.513 460.638 337.493 472.531C336.848 467.7 335.963 463.625 334.782 460.767C319.663 424.222 279.081 406.078 240.655 405.691C188.77 405.156 137.881 431.376 129.897 481.382C138.268 470.669 153.867 454.756 166.792 446.994Z" fill="#173E6C"/>
<path d="M360.301 59.4283C352.704 70.0306 350.455 77.3323 339.318 86.9758C334.635 91.0324 380.915 123.743 379.145 115.611C377.891 109.895 380.03 105.009 382.335 100.381C386.465 92.065 390.466 85.4085 394.965 78.7337C386.52 74.714 368.709 64.8308 360.283 59.4283H360.301Z" fill="#EBEDED"/>
<path d="M384.418 96.3428C387.829 89.8523 391.222 84.2838 394.983 78.7153C387.258 75.0275 371.714 66.4535 362.661 60.8849C364.357 76.5395 372.876 87.8793 384.418 96.3243V96.3428Z" fill="#D4D8D9"/>
<path d="M381.837 25.7037C376.6 25.298 371.474 28.1561 368.248 32.231C365.021 36.306 363.491 41.4504 362.882 46.5949C361.905 54.8001 363.122 63.2267 366.386 70.8419C368.709 76.2998 372.212 81.4442 377.283 84.6157C389.581 92.36 401.049 88.7644 406.673 79.4897C410.951 72.4276 411.891 61.0509 413.016 52.9009C414.14 44.751 411.928 35.7713 405.585 30.4609C398.025 24.0995 386.834 24.3945 381.818 25.7037" fill="#FFFDFA"/>
<path d="M385.69 12.8518C383.183 11.4136 378.407 11.8008 375.623 12.6306C372.839 13.4419 370.405 15.1383 368.285 17.0559C361.131 23.4726 358.033 33.0977 357.425 42.5752C357.277 44.4744 358.31 49.4713 358.918 49.9507C360.596 51.223 364.689 50.8358 365.962 52.5322C367.695 47.1849 367.805 41.2292 371.143 36.6748C374.48 32.1204 381.984 28.8198 387.682 28.8752C387.995 25.1136 385.672 12.8334 385.672 12.8334" fill="#3B416E"/>
<path d="M385.156 12.5937C386.188 17.9963 387.387 23.4173 387.7 28.8936C395.186 27.4001 403.612 30.885 408.775 36.3613C414.989 42.9809 413.145 47.4062 412.444 56.6809C418.289 49.7663 422.585 29.5574 406.194 16.7793C400.976 12.7043 392.107 10.2151 385.653 12.5384L385.156 12.5937Z" fill="#3B416E"/>
<path d="M365.003 47.9409C363.122 45.6176 360.209 43.0731 356.189 44.2531C353.589 45.0091 351.69 47.1665 351.156 49.1763C350.621 51.1493 351.156 53.03 351.727 54.8001C352.483 57.1419 353.294 59.502 354.935 61.4381C356.558 63.3926 359.121 64.9046 362.403 65.1074C364.173 65.2365 366.441 64.8124 367.676 63.577C368.34 62.8763 368.617 62.0835 368.783 61.3275C370.165 55.7036 367.4 50.8911 365.003 47.9409Z" fill="#FFFDFA"/>
<path d="M377.78 46.9821C380.177 45.7282 384.252 44.9354 388.272 44.9354" stroke="#3B416E" stroke-width="0.5" stroke-miterlimit="10" stroke-linecap="round"/>
<path d="M399.537 45.1382C404.368 44.5113 407.023 44.8801 409.42 47.2402" stroke="#3B416E" stroke-width="0.5" stroke-miterlimit="10" stroke-linecap="round"/>
<path d="M398.689 49.1394C396.753 56.5334 404.11 63.116 395.5 64.4621" stroke="#3B416E" stroke-width="0.5" stroke-miterlimit="10" stroke-linecap="round"/>
<path d="M390.632 62.9132C391.148 63.3189 391.812 63.6692 392.568 63.9273" stroke="#3B416E" stroke-width="0.5" stroke-miterlimit="10" stroke-linecap="round"/>
<path d="M401.381 69.92C397.915 72.5567 392.549 75.8757 386.52 69.3852" stroke="#3B416E" stroke-width="0.5" stroke-miterlimit="10" stroke-linecap="round"/>
<path d="M387.995 51.0571C387.553 52.1081 386.391 52.6243 385.322 52.1818C384.271 51.7762 383.773 50.5592 384.197 49.5266C384.621 48.4572 385.801 47.9593 386.852 48.365C387.903 48.7891 388.419 49.9692 387.995 51.0386V51.0571Z" fill="#3B416E"/>
<path d="M407.503 52.0343C407.097 53.0853 405.899 53.6016 404.848 53.1775C403.778 52.7534 403.262 51.5549 403.705 50.5039C404.092 49.4529 405.309 48.9366 406.378 49.3607C407.411 49.7848 407.927 50.9833 407.503 52.0343Z" fill="#3B416E"/>
<path d="M388.77 33.6508C400.257 34.1671 410.914 35.9004 419.82 38.4818C420.317 19.6004 407.153 3.83527 390.116 3.07927C373.079 2.32328 358.586 16.8899 357.425 35.7344C366.515 33.9458 377.283 33.153 388.77 33.6508Z" fill="#FEFFFE"/>
<path d="M374.48 26.976C375.347 16.6318 380.804 7.91025 388.401 3.09772C372.138 3.3743 358.568 17.5353 357.443 35.7344C366.146 34.0196 371.936 33.8536 374.628 33.7061C374.369 31.5304 374.314 29.2808 374.498 26.976H374.48Z" fill="#E9EBEC"/>
<path d="M399.63 33.5771C386.926 33.4295 374.83 33.3189 374.812 33.6139C374.498 37.3201 383.367 46.2076 391.074 46.7977C396.956 47.2587 400.773 47.4615 405.069 47.6459C419.008 48.199 430.661 43.3681 425.572 39.2562C420.391 35.089 420.539 35.5869 419.727 34.5174C419.727 34.5174 410.029 33.7061 399.648 33.5771H399.63Z" fill="#081D1E"/>
<path d="M412.334 60.0736C410.268 69.8646 411.117 88.2113 393.287 88.6538C369.243 89.2623 364.984 73.6999 362.624 62.9501C380.786 59.2439 382.74 57.1234 399.943 57.8057C407.355 58.1007 412.352 60.0736 412.352 60.0736H412.334Z" fill="#F7F7F6"/>
<path d="M360.909 49.1763C358.531 48.6047 356.355 48.2543 355.765 51.2968C355.36 53.3435 356.964 56.8468 358.789 57.8057" stroke="#3B416E" stroke-width="0.5" stroke-miterlimit="10" stroke-linecap="round"/>
<path d="M299.99 317.645C255.83 323.583 222.918 274.609 213.754 349.692C213.478 351.997 213.478 354.283 213.662 356.57L393.914 396.084C393.914 396.084 401.308 391.732 402.193 377.535C404.11 346.65 374.959 307.559 299.99 317.664V317.645Z" fill="#3B416E"/>
<path d="M472 518.905C466.726 512.691 462.375 505.574 460.218 497.737C457.802 488.923 458.687 479.722 460.42 470.89C462.264 461.413 464.68 452.046 466.948 442.66C469.252 433.146 471.594 423.632 473.972 414.136C474.581 411.739 475.171 409.323 475.816 406.926C475.964 406.373 475.392 405.598 474.802 405.598C467.261 405.469 459.701 405.359 452.179 405.285C449.081 405.248 445.227 404.621 442.498 406.428C440.341 407.866 439.511 410.522 439.253 412.956C438.903 416.072 439.143 419.262 439.051 422.415C438.958 426.065 438.756 429.716 438.461 433.367C437.907 440.595 436.967 447.768 435.676 454.885C435.013 458.499 434.257 462.076 433.408 465.635C432.966 466.889 432.505 468.143 432.007 469.378C431.011 471.867 429.924 474.32 428.762 476.735C427.029 478.911 425.019 480.958 423.341 482.986C421.608 485.143 419.985 487.522 419.34 490.233C418.695 493.035 419.359 496.041 421.092 498.346C424.982 503.619 432.376 504.799 437.797 507.952C443.808 511.456 448.104 517.153 452.75 522.15C457.102 526.797 476.314 532.181 477.052 528.659C477.863 524.824 474.212 521.597 471.981 518.923" fill="#EBEDED"/>
<path d="M415.228 492.021C415.228 492.021 412.868 487.817 420.299 480.478C427.711 473.121 430.68 472.605 430.68 472.605C430.68 472.605 437.354 479.649 444.49 483.595C451.625 487.559 457.175 489.071 459.443 489.145C461.693 489.237 462.301 506.44 474.544 513.299C486.64 520.067 483.542 525.654 481.79 530.024C480.039 534.394 415.228 492.021 415.228 492.021Z" fill="white"/>
<path d="M412.039 496.944C414.97 501.37 422.161 505.039 425.941 506.754C432.191 509.575 438.59 512.562 444.01 517.245C452.676 524.713 476.388 537.196 481.809 530.024C484.888 525.967 458.945 523.883 446.168 508.985C442.664 504.91 417.957 482.341 415.45 487.375C415.45 487.375 408.369 491.357 412.057 496.926L412.039 496.944Z" fill="#3B416E"/>
<path d="M455.792 498.696C456.751 499.765 466.431 496.041 462.135 494.105C462.135 494.105 452.529 495.082 455.792 498.696Z" fill="#081D1E"/>
<path d="M458.189 503.527C459.167 504.578 468.828 500.872 464.551 498.936C464.551 498.936 454.907 499.876 458.189 503.527Z" fill="#081D1E"/>
<path d="M460.771 508.542C461.729 509.612 471.41 505.869 467.113 503.933C467.113 503.933 457.489 504.91 460.771 508.542Z" fill="#081D1E"/>
<path d="M464.09 512.802C465.048 513.853 474.71 510.146 470.432 508.21C470.432 508.21 460.826 509.169 464.09 512.802Z" fill="#081D1E"/>
<path d="M418.676 450.847C435.4 459.772 476.13 469.47 477.789 468.843C482.989 451.032 495.084 409.305 504.58 372.851C513.191 339.827 521.82 325.666 520.013 296.625C519.404 286.852 510.941 271.216 492.798 268.487C445.061 261.333 354.419 256.705 303.087 276.969C289.701 282.261 238.756 245.218 238.756 245.218C238.756 245.218 210.491 294.689 224.614 325.537C232.856 343.533 255.498 352.863 301.077 356.699C326.909 358.856 436.801 341.468 446.942 331.308C449.505 328.745 446.739 341.542 440.526 355.721C433.943 370.712 417.128 429.495 418.676 450.829V450.847Z" fill="#3A95C7"/>
<path d="M431.196 328.45C440.655 328.266 464.956 313.736 466.339 305.605" stroke="#3B416E" stroke-width="0.5" stroke-miterlimit="10" stroke-linecap="round"/>
<path d="M457.12 326.699C459.738 324.634 465.141 317.627 466.782 317.479" stroke="#3B416E" stroke-width="0.5" stroke-miterlimit="10" stroke-linecap="round"/>
<path d="M452.732 340.307C456.364 336.895 459.627 332.82 463.278 329.299C465.251 327.399 471.963 322.034 471.17 321.425" stroke="#3B416E" stroke-width="0.5" stroke-miterlimit="10" stroke-linecap="round"/>
<g style="mix-blend-mode:multiply" opacity="0.2">
<path d="M470.414 305.992C466.155 316.484 455.866 323.675 447.901 332.138C447.882 335.383 445.154 345.174 440.526 355.74C433.943 370.731 417.128 429.514 418.676 450.847C422.18 452.728 426.752 454.627 431.804 456.471C439.714 438.641 443.789 419.317 452.086 401.616C460.328 384.025 470.967 367.172 476.314 348.364C479.191 338.223 481.311 318.106 470.414 305.992Z" fill="#3A95C7"/>
</g>
<g style="mix-blend-mode:multiply" opacity="0.4">
<path d="M256.678 290.835C273.844 300.073 294.642 303.337 313.781 299.391C326.854 296.699 339.687 291.942 352.373 287.811C366.349 283.257 380.306 278.574 394.338 274.204C406.47 270.424 418.603 266.68 430.716 262.864C386.649 261.112 336.534 263.749 303.087 276.951C289.701 282.243 238.756 245.199 238.756 245.199C238.756 245.199 234.46 252.741 230.053 263.73C235.825 275.236 245.173 284.64 256.697 290.817L256.678 290.835Z" fill="#3A95C7"/>
</g>
<path d="M369.704 112.403C355.396 102.87 348.279 98.4264 343.836 82.9009C335.723 85.4454 325.213 91.0508 322.208 92.2678C309.504 97.4491 288.705 108.31 261.362 170.909C261.362 170.909 247.975 210.221 233.114 248.279C232.856 248.961 232.782 249.717 232.856 250.436C233.17 253.275 236.728 254.548 239.678 255.23C277.016 263.749 336.534 263.915 374.812 269.004C382.15 269.981 382.998 256.152 394.246 196.705C398.984 171.647 393.084 130.123 379.919 105.378C379.016 114.228 374.535 115.63 369.704 112.403Z" fill="#FEFFFE"/>
<path d="M337.401 223.11C344.96 217.559 351.285 212.968 356.982 205.371C359.969 201.37 363.343 197.277 366.109 193.183C367.234 191.505 372.839 180.7 370.424 185.31" stroke="#3B416E" stroke-width="0.5" stroke-miterlimit="10" stroke-linecap="round"/>
<path d="M352.649 235.242C373.54 220.602 383.312 193.368 383.496 168.734" stroke="#3B416E" stroke-width="0.5" stroke-miterlimit="10" stroke-linecap="round"/>
<path d="M356.982 175.962C362.329 168.623 365.962 158.758 369.041 153.798" stroke="#3B416E" stroke-width="0.5" stroke-miterlimit="10" stroke-linecap="round"/>
<path d="M315.92 220.565C315.92 201.333 342.434 106.318 348.722 94.3329C346.767 91.2352 345.182 87.5659 343.854 82.9009C335.741 85.4454 325.231 91.0508 322.226 92.2678C309.522 97.4491 288.724 108.31 261.38 170.909C261.38 170.909 247.994 210.221 233.133 248.279C232.874 248.961 232.801 249.717 232.874 250.436C233.188 253.275 236.746 254.548 239.697 255.23C277.034 263.749 336.552 263.915 374.83 269.004C380.288 269.723 379.864 271.825 385.063 243.65C380.454 241.954 315.92 249.182 315.92 220.602V220.565Z" fill="#3894D1"/>
<path d="M482.288 225.156C479.615 230.43 473.161 232.532 467.906 229.877L442.388 216.933C437.114 214.259 434.994 207.824 437.686 202.532L442.24 193.515C444.914 188.242 451.349 186.14 456.622 188.813L482.141 201.739C487.414 204.413 489.516 210.866 486.861 216.14L482.288 225.156Z" fill="#3B416E"/>
<path d="M501.279 235.648L473.991 215.015L474.065 209.483L508.249 233.657L501.279 235.648Z" fill="#3B416E"/>
<path d="M563.638 201.149C567.399 203.177 572.082 201.776 574.129 198.033L583.975 179.852C586.003 176.091 584.62 171.407 580.859 169.36L574.442 165.876C570.699 163.847 565.998 165.23 563.969 168.992L554.123 187.154C552.095 190.915 553.497 195.617 557.239 197.646L563.656 201.131L563.638 201.149Z" fill="#3B416E"/>
<path d="M556.668 215.181L564.394 191.708L562.089 188.445L551.708 216.859L556.668 215.181Z" fill="#3B416E"/>
<path d="M465.473 240.184C465.786 240.073 466.118 240.036 466.468 240.036L467.538 239.852V240.092C470.986 240.719 473.641 245.734 473.567 251.856C473.493 258.383 467.833 264.431 464.053 264.394L430.717 270.589L426.015 246.047L465.454 240.221L465.473 240.184Z" fill="#3B416E"/>
<path d="M421.276 259.655C422.567 266.459 426.808 271.327 430.735 270.571C434.662 269.815 436.801 263.712 435.492 256.963C434.201 250.159 429.961 245.273 426.033 246.029C422.106 246.785 419.967 252.87 421.276 259.655Z" fill="#3B416E"/>
<path d="M564.191 206.404C564.191 206.404 547.412 198.125 534.118 210.184C520.824 222.224 520.437 228.586 510.038 232.956C499.657 237.326 471.612 241.124 467.538 239.834C467.538 239.834 472.129 245.974 472.553 252.058C472.995 258.199 466.579 263.564 466.579 263.564C466.579 263.564 481.256 256.226 492.245 254.769C503.215 253.331 509.798 253.109 519.478 255.082C529.158 257.092 560.245 264.652 565.592 261.259C568.69 259.287 564.172 206.386 564.172 206.386L564.191 206.404Z" fill="#64C080"/>
<path d="M551.837 234.21C551.653 249.459 556.649 261.923 562.974 261.997C569.298 262.071 574.571 249.754 574.756 234.486C574.94 219.219 569.206 205.943 562.882 205.869C556.557 205.796 552.021 218.942 551.837 234.21Z" fill="#1762A0"/>
<path opacity="0.8" d="M572.93 234.357C572.93 246.785 569.482 256.853 565.223 256.853C560.964 256.853 557.516 246.785 557.516 234.357C557.516 221.929 560.964 211.862 565.223 211.862C569.482 211.862 572.93 221.929 572.93 234.357Z" fill="white"/>
<path d="M571.935 234.357C571.935 245.218 569.206 254.031 565.832 254.031C562.457 254.031 559.729 245.218 559.729 234.357C559.729 223.497 562.457 214.683 565.832 214.683C569.206 214.683 571.935 223.497 571.935 234.357Z" stroke="#3B416E" stroke-width="0.5" stroke-miterlimit="10" stroke-linecap="round"/>
<path d="M399.132 245.623C379.938 246.011 353.092 243.964 331.298 242.821C310.905 241.751 308.785 243.282 308.785 243.282C308.785 243.282 339.374 160.049 342.195 131.469C341.31 123.429 338.876 105.857 333.842 104.474C321.82 101.192 312.472 105.157 302.608 112.329C292.485 119.686 283.746 143.27 278.786 154.849C278.362 156.49 277.937 158.094 277.532 159.643C270.949 184.333 265.529 200.172 258.946 224.824C256.051 235.703 253.138 246.877 254.595 258.014C256.088 269.133 262.966 280.38 274.397 284.4C282.068 287.092 290.605 286.262 298.773 285.396C305.742 284.658 312.73 283.865 319.608 282.685C349.072 277.559 374.369 274.867 406.378 267.805C404.958 262.55 400.57 250.159 399.15 245.605L399.132 245.623Z" fill="#EBEDED"/>
<path d="M435.529 239.428C421.239 233.196 409.789 242.138 396.145 245.974V247.098C394.817 250.104 397.952 256.244 399.095 259.416C400.92 264.542 400.22 268.617 406.397 267.842C412.831 267.012 417.072 267.252 423.618 266.164C420.612 260.946 421.424 248.408 425.48 248.998C429.315 249.569 433.132 252.003 435.049 255.451C436.617 258.291 437.041 262.476 435.621 264.818C440.95 263.122 444.84 258.475 444.398 251.8C444.103 247.025 440.028 241.419 435.547 239.465L435.529 239.428Z" fill="#EBEDED"/>
<path d="M328.716 97.4122C316.824 93.706 301.096 95.808 285.663 125.365C270.249 154.923 263.168 184.167 263.168 184.167C263.168 184.167 277.292 183.521 294.016 188.666C310.721 193.81 340.277 200.872 340.277 200.872C340.277 200.872 345.311 163.939 348.63 146.257C352.483 125.697 346.491 112.975 343.485 107.701C340.922 103.202 332.994 98.7583 328.698 97.4122H328.716Z" fill="#081D1E"/>
<path d="M448.104 192.022C446.075 194.382 440.784 204.284 439.936 207.215C437.889 214.24 468.072 224.456 473.051 226.281" stroke="white" stroke-width="0.5" stroke-miterlimit="10"/>
<path d="M475.318 252.833C487.34 244.665 513.209 242.175 523.645 244.222" stroke="white" stroke-width="0.5" stroke-miterlimit="10"/>
</g>
<defs>
<clipPath id="clip0_296_958">
<rect width="710" height="604" fill="white"/>
</clipPath>
</defs>
</svg>
