<svg width="511" height="418" viewBox="0 0 511 418" fill="none" xmlns="http://www.w3.org/2000/svg">
<g clip-path="url(#clip0_263_371)">
<g style="mix-blend-mode:multiply" opacity="0.32">
<path d="M255.5 418C396.609 418 511 402.022 511 382.312C511 362.602 396.609 346.624 255.5 346.624C114.391 346.624 0 362.602 0 382.312C0 402.022 114.391 418 255.5 418Z" fill="#B8BCC5"/>
</g>
<path d="M101.659 150.664H104.374C104.75 150.664 105.053 150.967 105.053 151.342V366.159H100.971V151.342C100.971 150.967 101.273 150.664 101.65 150.664H101.659Z" fill="#0F2E4F"/>
<path d="M281.426 150.664H284.142C284.518 150.664 284.821 150.967 284.821 151.342V366.159H280.738V151.342C280.738 150.967 281.041 150.664 281.417 150.664H281.426Z" fill="#0F2E4F"/>
<path d="M70.2832 161.188V157.851C70.2832 157.475 70.586 157.173 70.9621 157.173L319.141 157.173V161.876L70.9621 161.876C70.586 161.876 70.2832 161.573 70.2832 161.197V161.188Z" fill="#FCFCFA"/>
<path d="M35.1279 70.5421V367.076H39.4673L57.9716 85.9523L35.1279 70.5421Z" fill="#081D1E"/>
<path d="M482.9 70.5421V367.076H478.56L460.056 85.9523L482.9 70.5421Z" fill="#081D1E"/>
<path d="M168.548 0L35.1279 70.5421H482.9L354.966 0H168.548Z" fill="#67C07F"/>
<path d="M35.1279 70.5421H63.1091V96.678C63.1091 99.2632 61.0082 101.353 58.4303 101.353H39.8067C37.2196 101.353 35.1279 99.254 35.1279 96.678V70.5421Z" fill="#67C07F"/>
<path d="M63.1182 70.5421H91.0993V96.678C91.0993 99.2632 88.9984 101.353 86.4205 101.353H67.797C65.2099 101.353 63.1182 99.254 63.1182 96.678V70.5421Z" fill="#F8F7F5"/>
<path d="M91.0994 70.5421H119.081V96.678C119.081 99.2632 116.98 101.353 114.402 101.353H95.7782C93.1911 101.353 91.0994 99.254 91.0994 96.678V70.5421Z" fill="#67C07F"/>
<path d="M119.09 70.5421H147.071V96.678C147.071 99.2632 144.97 101.353 142.392 101.353H123.769C121.182 101.353 119.09 99.254 119.09 96.678V70.5421Z" fill="#F8F7F5"/>
<path d="M147.071 70.5421H175.052V96.678C175.052 99.2632 172.951 101.353 170.373 101.353H151.75C149.163 101.353 147.071 99.254 147.071 96.678V70.5421Z" fill="#67C07F"/>
<path d="M175.061 70.5421H203.042V96.678C203.042 99.2632 200.942 101.353 198.364 101.353H179.74C177.153 101.353 175.061 99.254 175.061 96.678V70.5421Z" fill="#F8F7F5"/>
<path d="M203.042 70.5421H231.033V96.678C231.033 99.2632 228.932 101.353 226.354 101.353H207.73C205.143 101.353 203.051 99.254 203.051 96.678V70.5421H203.042Z" fill="#67C07F"/>
<path d="M231.033 70.5421H259.014V96.678C259.014 99.2632 256.913 101.353 254.335 101.353H235.712C233.124 101.353 231.033 99.254 231.033 96.678V70.5421Z" fill="#F8F7F5"/>
<path d="M259.014 70.5421H286.995V96.678C286.995 99.2632 284.894 101.353 282.316 101.353H263.692C261.105 101.353 259.014 99.254 259.014 96.678V70.5421Z" fill="#67C07F"/>
<path d="M286.995 70.5421H314.976V96.678C314.976 99.2632 312.875 101.353 310.297 101.353H291.674C289.087 101.353 286.995 99.254 286.995 96.678V70.5421Z" fill="#F8F7F5"/>
<path d="M314.985 70.5421H342.967V96.678C342.967 99.2632 340.866 101.353 338.288 101.353H319.664C317.077 101.353 314.985 99.254 314.985 96.678V70.5421Z" fill="#67C07F"/>
<path d="M342.966 70.5421H370.947V96.678C370.947 99.2632 368.847 101.353 366.269 101.353H347.645C345.058 101.353 342.966 99.254 342.966 96.678V70.5421Z" fill="#F8F7F5"/>
<path d="M370.957 70.5421H398.938V96.678C398.938 99.2632 396.837 101.353 394.259 101.353H375.636C373.048 101.353 370.957 99.254 370.957 96.678V70.5421Z" fill="#67C07F"/>
<path d="M398.938 70.5421H426.919V96.678C426.919 99.2632 424.818 101.353 422.24 101.353H403.617C401.03 101.353 398.938 99.254 398.938 96.678V70.5421Z" fill="#F8F7F5"/>
<path d="M426.928 70.5421H454.909V96.678C454.909 99.2632 452.809 101.353 450.231 101.353H431.607C429.02 101.353 426.928 99.254 426.928 96.678V70.5421Z" fill="#67C07F"/>
<path d="M454.909 70.5421H482.891V96.678C482.891 99.2632 480.79 101.353 478.212 101.353H459.588C457.001 101.353 454.909 99.254 454.909 96.678V70.5421Z" fill="#F8F7F5"/>
<path d="M110.906 162.407C116.631 162.096 123.236 163.498 128.723 165.139C129.833 165.469 131.025 165.9 131.64 166.881C132.099 167.623 132.145 168.54 132.135 169.411C132.071 173.087 131.2 176.754 129.594 180.063C128.631 182.053 127.346 183.978 125.466 185.151C122.668 186.911 118.961 186.691 115.943 185.335C112.925 183.978 110.475 181.631 108.218 179.211C106.365 177.222 104.567 175.113 103.512 172.61C100.475 165.341 103.411 162.811 110.897 162.398L110.906 162.407Z" fill="#081D1E"/>
<path d="M112.035 164.388C117.769 164.598 123.466 165.543 128.961 167.184C130.071 167.514 131.264 167.944 131.878 168.925C132.337 169.668 132.383 170.585 132.374 171.455C132.31 175.132 131.438 178.798 129.833 182.108C128.869 184.097 127.585 186.022 125.704 187.196C122.906 188.956 119.2 188.736 116.181 187.379C113.163 186.022 110.714 183.675 108.457 181.255C106.604 179.266 104.806 177.158 103.751 174.655C100.705 167.385 105.31 164.14 112.035 164.388Z" fill="#59ACA8"/>
<path d="M102.017 168.76C108.714 167.981 115.493 167.889 122.209 168.494C124.548 168.705 126.897 169.008 129.09 169.833C130.062 170.2 130.989 170.658 131.86 171.217" stroke="#383A3C" stroke-width="2.74" stroke-linecap="round" stroke-linejoin="round"/>
<path d="M116.64 167.284C116.86 165.286 115.493 163.498 114.2 161.949C112.787 160.262 111.475 158.841 112.668 156.54C113.319 155.284 114.686 154.349 116.09 154.487C117.493 154.624 118.723 156.054 118.402 157.42" stroke="#383A3C" stroke-width="2.74" stroke-linecap="round" stroke-linejoin="round"/>
<path d="M138.245 229.842C124.704 233.289 110.539 234.279 96.6498 232.766C97.9709 224.186 98.6498 215.513 98.6956 206.832C98.6956 205.063 96.0994 189.983 97.3929 188.974C95.6407 190.331 94.2003 192.109 93.237 194.108C89.1362 190.698 84.4574 188.543 79.8428 186.059C81.3565 180.971 86.4115 175.562 90.2371 171.813C94.2737 167.871 100.209 164.424 105.76 163.397C107.007 167.009 108.237 170.64 111.448 172.721C114.659 174.802 118.952 175.388 122.383 173.692C125.814 171.996 128.154 168.348 127.062 164.681C127.218 165.203 129.961 164.369 139.099 169.705C144.401 172.794 147.126 178.184 150.768 182.997C151.089 183.419 151.429 183.914 151.346 184.436C151.282 184.867 150.952 185.197 150.64 185.5C147.144 188.855 143.649 192.219 140.154 195.575C138.658 193.466 137.209 191.312 135.612 189.286C134.612 193.09 137.741 229.97 138.236 229.842H138.245Z" fill="#081D1E"/>
<g style="mix-blend-mode:multiply" opacity="0.32">
<path d="M105.558 204.458C104.485 207.657 102.824 210.966 103.659 214.239C103.925 215.275 104.439 216.283 104.384 217.356C104.338 218.245 103.897 219.07 103.797 219.95C103.622 221.536 104.631 223.067 105.962 223.938C107.292 224.809 108.916 225.121 110.494 225.304C113.879 225.698 117.42 225.561 120.53 224.176C123.649 222.792 126.273 220.014 126.814 216.659C127.08 215.018 126.759 213.148 125.493 212.076C124.87 211.544 124.062 211.26 123.246 211.159C121.117 210.911 118.897 212.048 117.86 213.918C117.42 214.716 117.145 215.678 116.402 216.219C115.53 216.861 114.228 216.659 113.411 215.953C112.595 215.248 112.209 214.138 112.145 213.057C111.971 210.169 113.796 207.556 114.374 204.723C115.053 201.423 113.191 194.484 109.053 193.879C105.007 193.283 106.338 202.12 105.558 204.448V204.458Z" fill="#EDEEF0"/>
</g>
<path d="M146.31 162.407C152.034 162.096 158.64 163.498 164.126 165.139C165.236 165.469 166.428 165.9 167.043 166.881C167.502 167.623 167.548 168.54 167.538 169.411C167.474 173.087 166.603 176.754 164.997 180.063C164.034 182.053 162.75 183.978 160.869 185.151C158.071 186.911 154.364 186.691 151.346 185.335C148.328 183.978 145.878 181.631 143.621 179.211C141.768 177.222 139.97 175.113 138.915 172.61C135.878 165.341 138.814 162.811 146.3 162.398L146.31 162.407Z" fill="#F7F8F8"/>
<path d="M147.438 164.388C153.172 164.598 158.869 165.543 164.364 167.184C165.474 167.514 166.667 167.944 167.282 168.925C167.74 169.668 167.786 170.585 167.777 171.455C167.713 175.132 166.841 178.798 165.236 182.108C164.272 184.097 162.988 186.022 161.107 187.196C158.309 188.956 154.603 188.736 151.585 187.379C148.566 186.022 146.117 183.675 143.86 181.255C142.007 179.266 140.209 177.158 139.154 174.655C136.108 167.385 140.713 164.14 147.438 164.388Z" fill="#2A3E46"/>
<path d="M137.42 168.76C144.117 167.981 150.897 167.889 157.612 168.494C159.942 168.705 162.3 169.008 164.493 169.833C165.465 170.2 166.392 170.658 167.263 171.217" stroke="#383A3C" stroke-width="2.74" stroke-linecap="round" stroke-linejoin="round"/>
<path d="M152.053 167.284C152.273 165.286 150.906 163.498 149.612 161.949C148.199 160.262 146.888 158.841 148.08 156.54C148.732 155.284 150.099 154.349 151.502 154.487C152.906 154.624 154.135 156.054 153.814 157.42" stroke="#383A3C" stroke-width="2.74" stroke-linecap="round" stroke-linejoin="round"/>
<path d="M173.648 229.842C160.107 233.289 145.943 234.279 132.053 232.766C133.374 224.186 134.053 215.513 134.099 206.832C134.099 205.063 131.502 189.983 132.796 188.974C131.044 190.331 129.603 192.109 128.64 194.108C124.539 190.698 119.86 188.543 115.246 186.059C116.76 180.971 121.815 175.562 125.64 171.813C129.677 167.871 135.612 164.424 141.163 163.397C142.41 167.009 143.64 170.64 146.851 172.721C150.062 174.802 154.355 175.388 157.786 173.692C161.218 171.996 163.557 168.348 162.465 164.681C162.621 165.203 165.355 164.369 174.502 169.705C179.804 172.794 182.529 178.184 186.171 182.997C186.492 183.419 186.832 183.914 186.749 184.436C186.685 184.867 186.355 185.197 186.043 185.5C182.547 188.855 179.052 192.219 175.557 195.575C174.061 193.466 172.612 191.312 171.015 189.286C170.016 193.09 173.144 229.97 173.639 229.842H173.648Z" fill="#F7F8F8"/>
<g style="mix-blend-mode:multiply" opacity="0.32">
<path d="M140.961 204.458C139.888 207.657 138.227 210.966 139.062 214.239C139.328 215.275 139.842 216.283 139.787 217.356C139.741 218.245 139.3 219.07 139.2 219.95C139.025 221.536 140.034 223.067 141.365 223.938C142.704 224.809 144.319 225.121 145.897 225.304C149.282 225.698 152.823 225.561 155.933 224.176C159.052 222.792 161.676 220.014 162.218 216.659C162.484 215.018 162.162 213.148 160.896 212.076C160.273 211.544 159.465 211.26 158.649 211.159C156.52 210.911 154.3 212.048 153.264 213.918C152.823 214.716 152.548 215.678 151.805 216.219C150.933 216.861 149.631 216.659 148.814 215.953C147.998 215.248 147.612 214.138 147.548 213.057C147.374 210.169 149.199 207.556 149.777 204.723C150.456 201.423 148.594 194.484 144.456 193.879C140.411 193.283 141.741 202.12 140.961 204.448V204.458Z" fill="#EDEEF0"/>
</g>
<path d="M190.006 162.407C195.73 162.096 202.336 163.498 207.822 165.139C208.932 165.469 210.125 165.9 210.739 166.881C211.198 167.623 211.244 168.54 211.235 169.411C211.171 173.087 210.299 176.754 208.694 180.063C207.73 182.053 206.446 183.978 204.565 185.151C201.767 186.911 198.061 186.691 195.042 185.335C192.024 183.978 189.575 181.631 187.318 179.211C185.465 177.222 183.666 175.113 182.611 172.61C179.575 165.341 182.511 162.811 189.997 162.398L190.006 162.407Z" fill="#F9FBF9"/>
<path d="M191.134 164.388C196.868 164.598 202.565 165.543 208.06 167.184C209.171 167.514 210.363 167.944 210.978 168.925C211.437 169.668 211.482 170.585 211.473 171.455C211.409 175.132 210.537 178.798 208.932 182.108C207.969 184.097 206.684 186.022 204.804 187.196C202.006 188.956 198.299 188.736 195.281 187.379C192.263 186.022 189.813 183.675 187.556 181.255C185.703 179.266 183.905 177.158 182.85 174.655C179.813 167.385 184.409 164.14 191.134 164.388Z" fill="#64C080"/>
<path d="M181.116 168.76C187.813 167.981 194.593 167.889 201.308 168.494C203.648 168.705 205.996 169.008 208.189 169.833C209.161 170.2 210.088 170.658 210.959 171.217" stroke="#383A3C" stroke-width="2.74" stroke-linecap="round" stroke-linejoin="round"/>
<path d="M195.749 167.284C195.969 165.286 194.602 163.498 193.309 161.949C191.896 160.262 190.584 158.841 191.776 156.54C192.428 155.284 193.795 154.349 195.198 154.487C196.602 154.624 197.831 156.054 197.51 157.42" stroke="#383A3C" stroke-width="2.74" stroke-linecap="round" stroke-linejoin="round"/>
<path d="M217.345 229.842C203.804 233.289 189.639 234.279 175.749 232.766C177.07 224.186 177.749 215.513 177.795 206.832C177.795 205.063 175.199 189.983 176.492 188.974C174.74 190.331 173.3 192.109 172.336 194.108C168.236 190.698 163.557 188.543 158.942 186.059C160.447 180.971 165.511 175.562 169.336 171.813C173.373 167.871 179.309 164.424 184.859 163.397C186.107 167.009 187.336 170.64 190.547 172.721C193.758 174.802 198.052 175.388 201.483 173.692C204.914 171.996 207.253 168.348 206.161 164.681C206.317 165.203 209.051 164.369 218.198 169.705C223.501 172.794 226.225 178.184 229.867 182.997C230.189 183.419 230.528 183.914 230.445 184.436C230.381 184.867 230.051 185.197 229.739 185.5C226.244 188.855 222.748 192.219 219.253 195.575C217.758 193.466 216.308 191.312 214.712 189.286C213.712 193.09 216.84 229.97 217.336 229.842H217.345Z" fill="#F9FBF9"/>
<g style="mix-blend-mode:multiply" opacity="0.32">
<path d="M184.657 204.458C183.584 207.657 181.923 210.966 182.758 214.239C183.024 215.275 183.538 216.283 183.483 217.356C183.437 218.245 182.997 219.07 182.896 219.95C182.722 221.536 183.731 223.067 185.061 223.938C186.391 224.809 188.015 225.121 189.593 225.304C192.978 225.698 196.519 225.561 199.63 224.176C202.749 222.792 205.373 220.014 205.914 216.659C206.18 215.018 205.859 213.148 204.593 212.076C203.969 211.544 203.162 211.26 202.345 211.159C200.217 210.911 197.997 212.048 196.96 213.918C196.519 214.716 196.244 215.678 195.501 216.219C194.63 216.861 193.327 216.659 192.51 215.953C191.694 215.248 191.309 214.138 191.244 213.057C191.07 210.169 192.896 207.556 193.474 204.723C194.153 201.423 192.29 194.484 188.153 193.879C184.107 193.283 185.437 202.12 184.657 204.448V204.458Z" fill="#EDEEF0"/>
</g>
<path d="M230.51 162.407C236.234 162.096 242.84 163.498 248.326 165.139C249.436 165.469 250.629 165.9 251.243 166.881C251.702 167.623 251.748 168.54 251.739 169.411C251.674 173.087 250.803 176.754 249.197 180.063C248.234 182.053 246.95 183.978 245.069 185.151C242.271 186.911 238.565 186.691 235.546 185.335C232.528 183.978 230.079 181.631 227.822 179.211C225.969 177.222 224.17 175.113 223.115 172.61C220.07 165.341 223.014 162.811 230.501 162.398L230.51 162.407Z" fill="#E9EBEC"/>
<path d="M231.638 164.388C237.372 164.598 243.069 165.543 248.565 167.184C249.675 167.514 250.867 167.944 251.482 168.925C251.941 169.668 251.987 170.585 251.977 171.455C251.913 175.132 251.042 178.798 249.436 182.108C248.473 184.097 247.188 186.022 245.308 187.196C242.51 188.956 238.803 188.736 235.785 187.379C232.767 186.022 230.317 183.675 228.06 181.255C226.207 179.266 224.409 177.158 223.354 174.655C220.317 167.385 224.914 164.14 231.638 164.388Z" fill="#3797D3"/>
<path d="M221.62 168.76C228.317 167.981 235.097 167.889 241.812 168.494C244.152 168.705 246.5 169.008 248.693 169.833C249.665 170.2 250.592 170.658 251.464 171.217" stroke="#383A3C" stroke-width="2.74" stroke-linecap="round" stroke-linejoin="round"/>
<path d="M236.253 167.284C236.473 165.286 235.106 163.498 233.812 161.949C232.4 160.262 231.088 158.841 232.28 156.54C232.932 155.284 234.299 154.349 235.702 154.487C237.106 154.624 238.335 156.054 238.014 157.42" stroke="#383A3C" stroke-width="2.74" stroke-linecap="round" stroke-linejoin="round"/>
<path d="M257.858 229.842C244.317 233.289 230.152 234.279 216.262 232.766C217.583 224.186 218.262 215.513 218.308 206.832C218.308 205.063 215.712 189.983 217.005 188.974C215.253 190.331 213.813 192.109 212.85 194.108C208.749 190.698 204.07 188.543 199.455 186.059C200.969 180.971 206.024 175.562 209.85 171.813C213.886 167.871 219.822 164.424 225.372 163.397C226.62 167.009 227.849 170.64 231.06 172.721C234.271 174.802 238.565 175.388 241.996 173.692C245.427 171.996 247.766 168.348 246.675 164.681C246.831 165.203 249.565 164.369 258.711 169.705C264.014 172.794 266.739 178.184 270.381 182.997C270.702 183.419 271.041 183.914 270.959 184.436C270.894 184.867 270.564 185.197 270.252 185.5C266.757 188.855 263.262 192.219 259.766 195.575C258.271 193.466 256.821 191.312 255.225 189.286C254.225 193.09 257.353 229.97 257.849 229.842H257.858Z" fill="#E9EBEC"/>
<g style="mix-blend-mode:multiply" opacity="0.32">
<path d="M225.17 204.458C224.097 207.657 222.437 210.966 223.271 214.239C223.537 215.275 224.051 216.283 223.996 217.356C223.95 218.245 223.51 219.07 223.409 219.95C223.235 221.536 224.244 223.067 225.574 223.938C226.904 224.809 228.528 225.121 230.106 225.304C233.491 225.698 237.033 225.561 240.143 224.176C243.262 222.792 245.886 220.014 246.427 216.659C246.693 215.018 246.372 213.148 245.106 212.076C244.482 211.544 243.675 211.26 242.858 211.159C240.73 210.911 238.51 212.048 237.473 213.918C237.023 214.716 236.757 215.678 236.014 216.219C235.143 216.861 233.84 216.659 233.024 215.953C232.207 215.248 231.822 214.138 231.758 213.057C231.583 210.169 233.409 207.556 233.987 204.723C234.666 201.423 232.803 194.484 228.666 193.879C224.62 193.283 225.95 202.12 225.17 204.448V204.458Z" fill="#EDEEF0"/>
</g>
<path d="M266.28 162.407C272.004 162.096 278.61 163.498 284.096 165.139C285.206 165.469 286.399 165.9 287.013 166.881C287.472 167.623 287.518 168.54 287.509 169.411C287.445 173.087 286.573 176.754 284.967 180.063C284.004 182.053 282.72 183.978 280.839 185.151C278.041 186.911 274.335 186.691 271.316 185.335C268.298 183.978 265.849 181.631 263.592 179.211C261.739 177.222 259.94 175.113 258.885 172.61C255.84 165.341 258.784 162.811 266.271 162.398L266.28 162.407Z" fill="#0057A0"/>
<path d="M267.408 164.388C273.142 164.598 278.839 165.543 284.334 167.184C285.444 167.514 286.637 167.944 287.252 168.925C287.71 169.668 287.756 170.585 287.747 171.455C287.683 175.132 286.811 178.798 285.206 182.108C284.243 184.097 282.958 186.022 281.078 187.196C278.279 188.956 274.573 188.736 271.555 187.379C268.536 186.022 266.087 183.675 263.83 181.255C261.977 179.266 260.179 177.158 259.124 174.655C256.087 167.385 260.683 164.14 267.408 164.388Z" fill="#114A84"/>
<path d="M257.39 168.76C264.087 167.981 270.867 167.889 277.582 168.494C279.922 168.705 282.27 169.008 284.463 169.833C285.435 170.2 286.362 170.658 287.233 171.217" stroke="#383A3C" stroke-width="2.74" stroke-linecap="round" stroke-linejoin="round"/>
<path d="M272.023 167.284C272.243 165.286 270.876 163.498 269.583 161.949C268.17 160.262 266.858 158.841 268.05 156.54C268.702 155.284 270.069 154.349 271.472 154.487C272.876 154.624 274.105 156.054 273.784 157.42" stroke="#383A3C" stroke-width="2.74" stroke-linecap="round" stroke-linejoin="round"/>
<path d="M293.619 229.842C280.078 233.289 265.913 234.279 252.023 232.766C253.344 224.186 254.023 215.513 254.069 206.832C254.069 205.063 251.473 189.983 252.766 188.974C251.014 190.331 249.574 192.109 248.61 194.108C244.509 190.698 239.831 188.543 235.216 186.059C236.721 180.971 241.785 175.562 245.61 171.813C249.647 167.871 255.583 164.424 261.133 163.397C262.381 167.009 263.61 170.64 266.83 172.721C270.041 174.802 274.335 175.388 277.766 173.692C281.197 171.996 283.536 168.348 282.445 164.681C282.601 165.203 285.334 164.369 294.481 169.705C299.784 172.794 302.508 178.184 306.151 182.997C306.472 183.419 306.811 183.914 306.729 184.436C306.664 184.867 306.334 185.197 306.022 185.5C302.527 188.855 299.031 192.219 295.536 195.575C294.041 193.466 292.591 191.312 290.995 189.286C289.995 193.09 293.123 229.97 293.619 229.842Z" fill="#0057A0"/>
<g style="mix-blend-mode:multiply" opacity="0.32">
<path d="M260.931 204.458C259.858 207.657 258.197 210.966 259.032 214.239C259.298 215.275 259.812 216.283 259.757 217.356C259.711 218.245 259.271 219.07 259.17 219.95C258.995 221.536 260.005 223.067 261.335 223.938C262.665 224.809 264.289 225.121 265.867 225.304C269.252 225.698 272.793 225.561 275.903 224.176C279.023 222.792 281.646 220.014 282.188 216.659C282.454 215.018 282.133 213.148 280.867 212.076C280.243 211.544 279.435 211.26 278.619 211.159C276.491 210.911 274.27 212.048 273.234 213.918C272.793 214.716 272.518 215.678 271.775 216.219C270.904 216.861 269.601 216.659 268.784 215.953C267.968 215.248 267.582 214.138 267.518 213.057C267.344 210.169 269.17 207.556 269.748 204.723C270.426 201.423 268.564 194.484 264.427 193.879C260.381 193.283 261.711 202.12 260.931 204.448V204.458Z" fill="#EDEEF0"/>
</g>
<path d="M86.8884 331.039V335.119H302.545V331.039H86.8884Z" fill="#0F2E4F"/>
<path d="M174.263 202.872C173.832 200.03 175.813 197.252 176.887 194.484C178.667 189.927 177.813 184.491 174.896 180.595C174.208 179.678 173.483 178.963 172.942 177.992C172.382 177.011 171.933 176.158 171.135 175.324C169.483 173.601 167.373 172.308 166.061 170.264C163.915 166.918 164.107 161.866 163.337 158.053C162.538 154.102 160.116 150.893 156.282 149.298C152.878 147.886 148.823 148.116 145.603 149.912L148.676 151.242C146.988 151.342 145.291 151.562 143.612 151.782C140.108 152.241 135.777 153.02 133.475 156.018C132.686 157.054 132.374 158.355 131.768 159.501C130.869 161.206 129.236 163.076 127.64 164.186C125.383 165.763 122.622 166.349 120.438 168.173C118.374 169.897 116.035 173.087 116.567 175.947C116.842 177.46 117.503 178.468 117.255 180.1C117.026 181.649 116.31 183.144 115.292 184.326C113.182 186.792 110.163 188.25 107.576 190.193C104.989 192.146 102.65 195.052 102.998 198.279C103.576 203.697 111.108 206.484 111.301 211.92C111.393 214.432 109.815 216.678 109.154 219.107C107.916 223.709 110.209 228.742 113.842 231.831C117.475 234.93 122.218 236.387 126.906 237.267C141.08 239.907 156.107 237.689 168.914 231.079C172.933 228.998 176.868 226.386 179.254 222.535C181.639 218.694 182.125 213.377 179.401 209.765C177.777 207.611 175.125 206.108 174.391 203.513C174.327 203.302 174.291 203.092 174.254 202.881L174.263 202.872Z" fill="#E9EBEC"/>
<g style="mix-blend-mode:multiply" opacity="0.32">
<path d="M136.842 164.58C137.933 166.239 137.273 168.549 135.961 170.034C134.649 171.52 132.833 172.436 131.19 173.546C129.548 174.655 127.961 176.131 127.585 178.074C127.044 180.907 129.209 183.575 129.337 186.453C129.521 190.78 125.291 193.833 123.328 197.692C121.108 202.056 121.989 207.593 124.842 211.571C127.695 215.55 132.245 218.071 136.998 219.263C141.75 220.454 146.722 220.427 151.603 220.097C157.263 219.721 163.208 218.823 167.639 215.284C172.07 211.746 174.18 204.751 170.731 200.259C168.997 198.004 165.96 196.198 166.144 193.365C166.318 190.633 169.52 188.956 170.043 186.261C170.437 184.207 169.135 182.199 167.575 180.806C166.015 179.413 164.135 178.386 162.749 176.818C160.85 174.655 160.107 171.74 159.355 168.962C158.603 166.184 157.676 163.278 155.539 161.353C153.401 159.428 149.676 158.96 147.786 161.133" fill="#EDEEF0"/>
</g>
<path d="M135.952 249.111C140.933 252.907 144.585 253.833 149.016 253.613C154.566 253.347 167.08 253.631 167.795 247.434C164.942 238.166 165.667 226.89 165.547 216.513C160.942 217.814 156.337 219.107 151.731 220.409C148.768 221.243 142.181 221.729 141.254 224.745C140.731 226.441 141.346 229.2 141.208 231.034C141.043 233.133 140.741 235.223 140.291 237.276C139.979 238.688 137.502 249.102 135.952 249.102V249.111Z" fill="#EDEEF0"/>
<g style="mix-blend-mode:multiply" opacity="0.32">
<path d="M154.612 231.033C157.089 230.978 159.639 230.685 161.823 229.512C164.015 228.347 165.786 226.156 165.859 223.672C158.41 224.745 150.951 225.808 143.502 226.881C138.603 227.587 142.062 229.447 144.841 230.126C147.988 230.905 151.392 231.098 154.612 231.024V231.033Z" fill="#EDEEF0"/>
</g>
<path d="M161.887 318.168C161.887 318.168 165.327 328.28 171.603 373.19C172.685 374.749 174.171 377.444 173.548 379.525C172.915 381.606 161.639 379.589 162.75 375.931C166.236 364.408 152.328 341.169 149.319 331.681L149.814 320.286L161.896 318.178L161.887 318.168Z" fill="#EDEEF0"/>
<path d="M162.529 371.953C166.291 372.888 167.557 372.714 171.428 372.228L178.144 377.059C178.144 377.059 185.85 382.248 185.217 384.329C184.584 386.41 163.915 381.038 163.915 381.038C163.915 381.038 160.438 380.148 161.548 376.491C162.218 374.272 162.878 373.869 162.52 371.953H162.529Z" fill="white"/>
<path d="M162.034 315.262C162.034 315.262 160.162 325.777 143.952 368.139C144.144 370.028 144.144 373.108 142.594 374.62C141.034 376.142 132.135 368.928 134.879 366.26C143.502 357.844 142.548 330.792 144.493 321.019L150.438 311.284L162.043 315.262H162.034Z" fill="#EDEEF0"/>
<path d="M136.612 362.676C139.456 365.307 140.649 365.765 144.273 367.204L147.823 374.685C147.823 374.685 152.062 382.944 150.511 384.466C148.952 385.988 133.447 371.311 133.447 371.311C133.447 371.311 130.833 368.863 133.567 366.187C135.227 364.573 136.007 364.537 136.612 362.685V362.676Z" fill="white"/>
<path d="M173.024 260.983C173.024 260.983 173.281 263.394 173.263 269.059C173.226 278.153 170.63 289.099 169.456 293.05C167.557 299.467 149.484 356.717 149.484 356.717C149.484 356.717 138.548 356.478 137.832 351.73C137.117 346.981 153.282 266.447 153.282 266.447L173.015 260.983H173.024Z" fill="#64C080"/>
<g style="mix-blend-mode:multiply" opacity="0.32">
<path d="M173.024 260.983C173.024 260.983 173.281 263.394 173.263 269.059C173.226 278.153 170.63 289.099 169.456 293.05C167.557 299.467 149.484 356.717 149.484 356.717C149.484 356.717 138.548 356.478 137.832 351.73C137.117 346.981 153.282 266.447 153.282 266.447L173.015 260.983H173.024Z" fill="#0B2E4A"/>
</g>
<path d="M222.005 216.329C221.666 216.128 221.253 216.128 220.858 216.137C219.858 216.155 213.84 216.054 213.382 216.742C213.748 216.201 214.363 215.898 214.822 215.44C217.849 212.369 210.675 215.119 210.198 215.266C209.152 215.587 208.042 215.522 206.96 215.449C196.4 214.697 186.364 212.195 177.428 206.117C174.318 203.999 171.465 201.497 168.887 198.719C165.208 199.791 161.612 201.148 158.116 202.734C167.492 212.314 179.465 218.428 193.868 219.052C196.318 219.162 198.538 220.124 200.96 220.519C206.941 221.49 210.886 225.845 217.125 223.14C217.877 222.82 218.611 222.389 219.106 221.729C219.602 221.069 219.813 220.115 219.436 219.373C220.271 218.832 221.106 218.291 221.941 217.75C222.106 217.64 222.28 217.53 222.381 217.347C222.565 216.989 222.345 216.522 222.005 216.329Z" fill="#EDEEF0"/>
<path d="M163.639 189.038C165.162 194.649 169.18 199.251 173.868 202.477C178.556 205.704 183.923 207.73 189.244 209.665C195.208 211.828 201.235 213.937 207.501 214.872C206.813 216.989 206.125 219.107 205.437 221.225C198.207 221.206 190.978 220.326 183.951 218.603C178.694 217.319 173.52 215.541 168.823 212.8C162.731 209.243 157.63 204.173 152.603 199.159C148.529 195.098 144.401 190.963 141.511 185.931" fill="#2F95D2"/>
<path d="M142.814 228.842C152.41 227.522 161.997 226.193 171.593 224.873C171.621 224.873 171.41 214.083 171.428 213.313C171.502 210.343 171.859 208.088 172.483 205.292C172.951 203.202 172.116 201.011 170.878 199.26C169.327 197.06 167.208 195.318 165.621 193.136C164.483 191.578 162.731 188.241 161.364 186.866C159.557 185.05 154.245 188.351 151.786 187.333C152.19 186.783 152.584 185.646 151.612 186.16C148.786 187.645 150.942 187.553 148.227 185.885C147.3 185.316 146.346 186.261 144.218 186.765C141.823 187.324 133.135 189.148 131.943 191.147C129.089 195.941 132.566 201.607 133.071 206.878C133.732 213.762 134.768 222.994 135.429 229.878C137.878 229.539 140.337 229.2 142.786 228.861L142.814 228.842Z" fill="#2F95D2"/>
<path d="M144.108 176.617C144.273 180.54 142.75 184.83 145.144 188.231C147.163 191.092 150.089 193.255 153.052 195.061C153.74 195.483 156.309 197.463 157.153 196.849C158.291 196.005 155.942 191.678 155.447 190.523C154.043 187.223 153.75 184.73 153.805 181.127C153.851 178.267 153.887 175.406 153.933 172.546L144.108 176.626V176.617Z" fill="#EDEEF0"/>
<g style="mix-blend-mode:multiply" opacity="0.32">
<path d="M153.786 182.025L153.924 172.537L144.098 176.617L144.401 183.996C147.658 184.18 150.777 183.345 153.777 182.025H153.786Z" fill="#EDEEF0"/>
</g>
<path d="M161.997 173.491C161.575 175.507 160.502 177.405 159.273 178.899C158.016 180.43 156.603 180.834 154.878 181.264C149.401 182.63 141.906 181.099 140.282 173.986C139.282 174.508 138.144 173.536 137.86 172.335C137.594 171.217 137.952 170.255 138.044 169.145C138.117 168.229 138.08 167.348 138.2 166.423C138.493 164.167 138.906 161.857 139.979 159.886C141.099 157.824 142.851 156.339 144.713 155.385C146.566 154.423 148.548 153.937 150.502 153.478C153.851 152.69 158.805 151.782 160.979 155.724C162.236 158.016 161.337 162.196 161.658 164.873C161.997 167.697 162.603 170.603 161.997 173.5V173.491Z" fill="#EDEEF0"/>
<path d="M135.493 165.213C134.576 165.662 134.2 166.771 134.135 167.779C133.961 170.777 136.071 173.756 138.961 174.591C139.832 174.838 140.915 174.847 141.475 174.141C142.043 173.417 141.777 172.363 141.41 171.51C140.713 169.869 137.979 164.002 135.493 165.213Z" fill="#EDEEF0"/>
<path d="M135.089 167.678C135.089 167.678 135.557 167.669 136.218 167.999C136.878 168.32 137.676 169.008 138.245 169.979C138.814 170.942 139.071 171.932 139.209 172.629C139.346 173.335 139.383 173.775 139.337 173.784C139.291 173.784 139.19 173.362 138.998 172.675C138.805 171.996 138.52 171.052 137.979 170.126C137.438 169.209 136.713 168.54 136.117 168.183C135.521 167.816 135.08 167.724 135.099 167.669L135.089 167.678Z" fill="#0057A0"/>
<path d="M138.346 173.289C138.346 173.289 138.153 173.142 137.933 172.84C137.722 172.537 137.438 172.088 137.264 171.52C137.089 170.951 137.108 170.392 137.236 170.025C137.355 169.649 137.53 169.475 137.566 169.494C137.603 169.521 137.502 169.723 137.447 170.071C137.392 170.42 137.401 170.915 137.557 171.428C137.713 171.95 137.961 172.39 138.126 172.721C138.291 173.051 138.392 173.261 138.355 173.28L138.346 173.289Z" fill="#0057A0"/>
<path d="M143.731 164.653C143.631 164.598 143.75 164.323 144.153 163.984C144.557 163.645 145.282 163.269 146.19 163.076C147.108 162.884 147.988 162.921 148.575 163.049C149.172 163.177 149.474 163.361 149.429 163.452C149.337 163.645 147.988 163.425 146.456 163.764C144.915 164.076 143.942 164.782 143.713 164.653H143.731Z" fill="#E9EBEC"/>
<path d="M148.704 174.334C148.796 174.306 148.988 174.545 149.374 174.856C149.75 175.168 150.355 175.553 151.144 175.773C151.933 176.002 152.722 176.021 153.291 175.984C153.86 175.947 154.218 175.874 154.263 175.938C154.3 175.993 153.997 176.186 153.383 176.323C152.777 176.461 151.841 176.497 150.906 176.231C149.97 175.956 149.319 175.461 148.997 175.058C148.667 174.655 148.63 174.352 148.713 174.334H148.704Z" fill="#0057A0"/>
<path d="M156.153 163.416C156.153 163.315 156.419 163.196 156.887 163.131C157.355 163.067 158.006 163.086 158.658 163.251C159.309 163.425 159.814 163.691 160.098 163.975C160.383 164.259 160.373 164.525 160.254 164.562C160.126 164.607 159.933 164.497 159.612 164.369C159.291 164.25 158.805 164.076 158.263 163.938C157.181 163.654 156.172 163.617 156.153 163.416Z" fill="#0057A0"/>
<path d="M154.474 165.973C154.263 166.688 154.153 167.431 154.098 168.164C154.043 168.907 154.034 169.64 154.08 170.383L154.126 170.933L154.144 171.08C154.144 171.144 154.162 171.199 154.181 171.263C154.208 171.382 154.254 171.492 154.318 171.602C154.438 171.813 154.612 172.005 154.841 172.125C154.951 172.189 155.089 172.225 155.19 172.244C155.236 172.244 155.273 172.262 155.309 172.271C155.465 172.363 155.548 172.693 155.447 172.986C155.355 173.289 155.098 173.573 154.869 173.866C155.199 173.701 155.539 173.509 155.786 173.161C155.906 172.977 155.97 172.766 155.979 172.528C155.979 172.299 155.906 172.033 155.713 171.831C155.603 171.73 155.474 171.657 155.346 171.62C155.273 171.602 155.236 171.575 155.19 171.547C155.098 171.483 155.025 171.382 154.979 171.272C154.961 171.217 154.933 171.153 154.924 171.098C154.924 171.07 154.915 171.034 154.915 171.006V170.878L154.869 170.337L154.713 168.174C154.658 167.449 154.603 166.725 154.493 165.983L154.474 165.973Z" fill="#0057A0"/>
<path d="M150.695 169.604C150.328 169.182 149.924 168.879 149.475 168.733C149.025 168.577 148.557 168.549 148.08 168.595C147.603 168.641 147.135 168.769 146.686 168.953C146.236 169.136 145.805 169.384 145.42 169.723L145.365 169.769C145.31 169.814 145.236 169.814 145.181 169.769C144.988 169.594 144.805 169.42 144.631 169.219C144.887 169.283 145.126 169.374 145.374 169.466L145.135 169.512C145.41 168.999 145.851 168.586 146.346 168.293C146.851 167.999 147.429 167.816 148.016 167.788C148.603 167.752 149.236 167.871 149.741 168.21C150.254 168.54 150.603 169.072 150.686 169.622L150.695 169.604Z" fill="#0057A0"/>
<path d="M145.475 169.329L145.163 168.87L145.704 168.98C145.823 169.008 145.906 169.127 145.878 169.246C145.851 169.365 145.731 169.448 145.612 169.42C145.557 169.411 145.502 169.374 145.475 169.329Z" fill="#0057A0"/>
<path d="M156.153 169.668C156.392 169.209 156.685 168.861 157.043 168.65C157.401 168.439 157.814 168.348 158.236 168.329C158.658 168.311 159.098 168.366 159.529 168.485C159.961 168.604 160.392 168.788 160.795 169.063L160.85 169.099C160.906 169.136 160.979 169.127 161.006 169.072C161.135 168.879 161.263 168.678 161.383 168.458C161.172 168.559 160.979 168.678 160.786 168.797H160.997C160.658 168.348 160.19 167.999 159.685 167.779C159.181 167.559 158.649 167.468 158.117 167.513C157.594 167.559 157.071 167.761 156.685 168.155C156.3 168.54 156.098 169.118 156.144 169.659L156.153 169.668Z" fill="#0057A0"/>
<path d="M160.667 168.687L160.851 168.201L160.401 168.384C160.3 168.421 160.254 168.549 160.3 168.669C160.346 168.788 160.465 168.843 160.566 168.797C160.612 168.779 160.649 168.733 160.667 168.687Z" fill="#0057A0"/>
<path d="M154.126 147.74C156.007 148.565 157.704 149.729 159.062 151.251C160.915 153.323 161.667 156.018 162.172 158.685C162.419 160.015 162.603 161.362 162.841 162.701C163.034 163.773 163.805 165.442 163.364 166.459C163.107 167.046 162.529 167.568 161.832 167.578C162.759 166.734 162.227 165.002 160.951 164.699C159.447 164.342 158.291 164.287 156.722 164.268C152.355 164.232 148.043 162.096 145.585 158.75C145.144 160.922 143.777 162.921 141.842 164.222C141.383 164.534 140.86 164.837 140.64 165.322C140.346 165.964 140.658 166.688 140.897 167.348C142.264 171.025 141.603 175.26 139.172 178.386C140.016 175.223 139.64 171.785 138.144 168.806C137.722 167.972 137.135 167.11 136.19 166.817C135.245 166.523 133.979 167.22 134.181 168.119C132.732 164.259 131.668 160.134 132.484 156.146C134.356 147.08 145.942 144.146 154.126 147.73V147.74Z" fill="#E9EBEC"/>
<path d="M137.126 246.251C137.126 246.251 130.943 252.668 130.236 266.208C129.346 283.076 158.291 357.432 158.291 357.432C158.291 357.432 168.034 359.091 169.703 356.24C171.364 353.389 155.915 268.344 155.915 268.344L173.034 261.46C173.034 261.46 172.318 252.192 167.804 247.443C164.703 252.21 137.135 246.251 137.135 246.251H137.126Z" fill="#64C080"/>
<g style="mix-blend-mode:multiply" opacity="0.32">
<path d="M160.841 218.749C163.795 218.016 166.694 216.98 169.492 215.66C169.226 217.31 168.098 218.612 166.823 219.345C165.548 220.079 164.098 220.253 162.704 220.565C146.731 224.149 139.346 225.652 141.098 204.137C141.392 200.58 147.383 219.364 148.988 219.904C152.594 221.105 157.181 219.657 160.841 218.749Z" fill="#EDEEF0"/>
</g>
<path d="M137.126 246.251L138.475 241.677C138.475 241.677 159.006 245.179 167.896 243.052C168.896 241.924 167.795 247.443 167.795 247.443C167.795 247.443 168.648 250.065 156.759 249.313C144.86 248.561 137.126 246.26 137.126 246.26V246.251Z" fill="white"/>
<path d="M144.86 244.308C148.236 238.303 144.108 204.274 144.108 204.274L168.19 200.259C169.694 200.011 171.043 201.231 170.924 202.762L167.896 243.061L162.383 245.564C162.383 245.564 147.75 247.617 144.851 244.317L144.86 244.308Z" fill="#64C080"/>
<path d="M148.364 209.27C147.484 203.394 135.089 189.002 135.089 189.002L138.594 188.002C138.594 188.002 152.364 201.387 152.869 210.022C152.961 211.526 148.585 210.765 148.364 209.27Z" fill="white"/>
<path d="M166.777 204.641C165.401 196.381 154.63 186.371 154.63 186.371L157.759 186.242C157.759 186.242 170.153 197.5 170.658 206.135C170.749 207.639 167.025 206.117 166.777 204.632V204.641Z" fill="white"/>
<path d="M151.621 210.645C151.621 210.645 150.869 218.025 153.245 219.024C155.621 220.024 161.006 220.904 161.006 220.904L165.135 218.273L165.263 208.51L151.612 210.636L151.621 210.645Z" fill="white"/>
<path d="M150.493 205.833C150.493 206.493 149.961 207.024 149.3 207.024C148.64 207.024 148.107 206.493 148.107 205.833C148.107 205.173 148.64 204.641 149.3 204.641C149.961 204.641 150.493 205.173 150.493 205.833Z" fill="#64C080"/>
<path d="M168.584 202.762C168.584 203.422 168.052 203.953 167.392 203.953C166.731 203.953 166.199 203.422 166.199 202.762C166.199 202.102 166.731 201.57 167.392 201.57C168.052 201.57 168.584 202.102 168.584 202.762Z" fill="#64C080"/>
<path d="M161.383 271.049C161.309 270.664 161.034 270.352 160.768 270.068C160.089 269.334 156.19 264.751 155.374 264.861C156.025 264.769 156.649 265.044 157.3 265.081C161.603 265.319 154.805 261.762 154.374 261.496C153.447 260.928 152.75 260.057 152.098 259.186C145.676 250.78 140.924 241.603 139.576 230.878C139.108 227.147 139.108 223.351 139.475 219.584C136.236 217.539 132.842 215.742 129.337 214.166C128.346 227.532 131.677 240.54 140.732 251.761C142.273 253.667 143.016 255.968 144.319 258.04C147.548 263.165 146.878 269.004 153.043 271.883C153.786 272.231 154.585 272.506 155.419 272.442C156.254 272.378 157.098 271.901 157.401 271.131C158.355 271.397 159.318 271.672 160.273 271.938C160.465 271.993 160.667 272.048 160.86 272.002C161.254 271.91 161.447 271.434 161.373 271.039L161.383 271.049Z" fill="#EDEEF0"/>
<path d="M143.273 209.252C140.071 214.102 139.273 220.152 139.952 225.808C140.63 231.455 142.658 236.818 144.722 242.08C147.043 247.984 149.447 253.897 152.887 259.205C150.841 260.094 148.805 260.974 146.759 261.863C141.988 256.436 137.869 250.431 134.521 244.033C132.007 239.238 129.915 234.187 128.869 228.852C127.511 221.94 127.943 214.762 128.383 207.675C128.741 201.927 129.108 196.106 130.979 190.615" fill="#2F95D2"/>
<path d="M410.873 240.458C411.222 240.833 411.543 241.246 411.818 241.695C413.717 244.702 414.029 248.406 414.277 251.953C414.873 260.516 415.424 269.114 414.809 277.668C414.313 284.616 413.057 291.483 412.414 298.413C410.836 315.519 414.515 326.382 415.093 343.287C415.451 353.637 413.68 366.104 411.378 376.262C411.378 376.262 409.194 377.6 404.919 375.161C402.974 374.052 400.259 343.232 399.956 330.178C392.461 296.882 406.396 263.486 406.396 263.486L381.516 277.062L383.846 325.053C383.846 325.053 382.305 335.32 382.094 371.605C380.406 371.944 373.323 374.776 372.424 371.907C371.534 369.038 371.773 316.903 371.773 316.903C371.773 316.903 379.773 239.468 377.91 239.743C369.112 241.063 403.506 232.427 410.873 240.448V240.458Z" fill="#263654"/>
<path d="M368.782 365.004C368.681 362.85 367.81 360.705 367.709 358.55C366.709 337.722 367.03 324.109 367.067 301.475C367.085 289.75 370.424 240.971 372.461 233.225C384.745 237.139 400.928 235.709 412.148 229.356C419.836 241.063 418.176 253.356 419.13 267.62C420.157 282.948 416.974 316.592 417.35 323.77C417.561 327.702 416.552 365.783 415.488 365.838C407.323 366.269 404.268 366.269 397.745 363.977C397.286 357.45 390.855 281.646 390.855 281.646L383.929 366.856C378.736 366.941 373.687 366.327 368.782 365.013V365.004Z" fill="white"/>
<path d="M413.644 388.766C409.809 392.524 399.956 396.228 397.617 391.717C396.672 389.902 397.754 387.665 398.8 385.905C401.919 380.689 405.038 376.931 403.515 370.422C406.781 370.697 410.057 370.972 413.323 371.247C412.809 371.201 413.781 376.692 413.946 377.288C414.818 380.515 416.35 383.449 415.011 386.886C414.772 387.491 414.295 388.133 413.644 388.775V388.766Z" fill="#102E50"/>
<path d="M382.837 369.927C378.452 371.128 376.947 370.963 372.388 370.504L364.636 376.381C364.636 376.381 355.737 382.697 356.535 385.126C357.333 387.556 381.461 380.643 381.461 380.643C381.461 380.643 385.516 379.507 384.112 375.235C383.259 372.65 382.47 372.191 382.837 369.927Z" fill="#102E50"/>
<path d="M360.672 149.234C360.764 148.849 360.847 148.455 360.911 148.061C361.003 147.437 361.461 146.154 361.122 145.576C361.094 145.53 360.122 144.366 360.039 144.843C360.571 141.598 357.241 143.706 356.177 144.742C353.865 147.006 351.195 151.196 350.324 154.377C349.581 157.109 348.296 162.664 352.186 163.691C357.425 165.075 361.085 157.209 363.122 153.717C361.461 153.185 360.342 154.258 358.957 154.844C359.094 153.579 360.37 150.472 360.672 149.234Z" fill="#EDEEF0"/>
<path d="M355.03 196.519C353.159 195.868 351.306 195.098 349.718 193.915C346.122 191.257 344.232 186.783 343.709 182.346C342.764 174.252 345.654 165.075 348.902 157.76C349.049 157.43 349.232 157.072 349.572 156.971C349.819 156.898 350.085 156.971 350.333 157.063C351.085 157.31 359.672 160.125 359.663 159.978C360.122 167.138 354.682 182.475 364.874 184.849C367.406 185.436 373.195 185.353 374.938 183.116C376.745 185.225 378.452 187.397 380.378 189.423C381.846 190.973 383.314 192.522 384.791 194.071C385.901 195.245 387.02 196.418 388.296 197.399C383.562 199.773 377.645 199.416 372.516 199.434C366.58 199.452 360.636 198.471 355.03 196.51V196.519Z" fill="#2F95D2"/>
<path d="M355.03 196.519C353.159 195.868 351.306 195.098 349.718 193.915C346.122 191.257 344.232 186.783 343.709 182.346C342.764 174.252 345.654 165.075 348.902 157.76C349.049 157.43 349.232 157.072 349.572 156.971C349.819 156.898 350.085 156.971 350.333 157.063C351.085 157.31 359.672 160.125 359.663 159.978C360.122 167.138 354.682 182.475 364.874 184.849C367.406 185.436 373.195 185.353 374.938 183.116C376.745 185.225 378.452 187.397 380.378 189.423C381.846 190.973 383.314 192.522 384.791 194.071C385.901 195.245 387.02 196.418 388.296 197.399C383.562 199.773 377.645 199.416 372.516 199.434C366.58 199.452 360.636 198.471 355.03 196.51V196.519Z" fill="#0057A0"/>
<path d="M421.855 187.526C422.414 188.699 422.552 190.047 422.561 191.348C422.607 199.608 417.68 207.07 416.213 215.202C414.699 223.599 416.937 232.152 417.69 240.659C417.754 241.393 417.8 242.163 417.534 242.85C417.277 243.501 416.763 244.005 416.24 244.464C412.47 247.745 407.515 249.377 402.58 250.211C393.387 251.761 383.773 250.752 375.103 247.333C373.846 246.838 372.571 246.26 371.69 245.252C370.819 244.253 370.424 242.923 370.149 241.631C369.397 238.147 369.296 234.517 369.846 230.997C370.259 228.366 371.03 225.799 371.59 223.196C374.232 210.792 371.883 197.857 373.397 185.271C373.461 184.766 373.534 184.244 373.837 183.831C374.149 183.419 374.635 183.19 375.112 182.997C387.186 177.964 400.571 181.567 413.011 183.162C416.286 183.584 420.02 184.29 421.653 187.15C421.726 187.278 421.79 187.406 421.855 187.535V187.526Z" fill="#3894D1"/>
<path d="M396.901 169.466C399.644 170.511 401.827 169.576 404.378 168.641C405.387 168.274 406.277 167.504 407.213 167.156C408.359 166.734 409.359 167.614 410.488 166.395C411.488 165.313 411.515 163.471 410.543 162.362C412.405 162.27 413.112 159.914 413.323 158.062C413.662 155.046 414.011 152.03 414.35 149.005C414.653 146.328 414.937 143.477 413.763 141.057C412.589 138.637 409.378 136.987 407.103 138.435C407.763 135.767 406.369 132.733 403.919 131.495C401.47 130.249 398.204 130.918 396.433 133.017C395.534 130.285 392.543 128.406 389.69 128.782C386.837 129.158 384.433 131.752 384.277 134.621C382.277 133.466 379.488 133.897 377.929 135.602C376.369 137.317 376.204 140.122 377.544 142.01C374.149 146.264 379.975 148.216 383.048 148.363C387.14 148.565 391.25 148.601 392.773 153.442C393.305 155.119 393.204 156.925 393.13 158.676C393.057 160.427 393.002 162.242 393.617 163.892C394.231 165.543 395.662 167.019 397.424 167.138" fill="#576867"/>
<path d="M410.02 156.504C410.993 157.081 411.314 158.346 411.277 159.474C411.185 162.811 408.562 165.9 405.277 166.542C404.286 166.734 403.094 166.634 402.534 165.799C401.965 164.947 402.369 163.801 402.855 162.902C403.782 161.161 407.369 154.927 410.02 156.504Z" fill="#EDEEF0"/>
<path d="M410.241 159.272C410.241 159.272 409.718 159.217 408.956 159.52C408.195 159.813 407.25 160.491 406.525 161.509C405.809 162.527 405.424 163.581 405.204 164.342C404.984 165.112 404.91 165.598 404.947 165.607C404.993 165.616 405.158 165.158 405.433 164.415C405.708 163.682 406.121 162.664 406.809 161.702C407.497 160.739 408.369 160.07 409.066 159.731C409.763 159.382 410.259 159.318 410.25 159.263L410.241 159.272Z" fill="#0057A0"/>
<path d="M406.085 165.167C406.085 165.167 406.314 165.02 406.58 164.708C406.846 164.397 407.204 163.929 407.452 163.315C407.699 162.701 407.727 162.087 407.626 161.665C407.534 161.234 407.351 161.023 407.314 161.051C407.268 161.069 407.36 161.307 407.387 161.702C407.415 162.087 407.36 162.637 407.13 163.196C406.901 163.755 406.598 164.223 406.378 164.571C406.158 164.919 406.039 165.139 406.075 165.176L406.085 165.167Z" fill="#0057A0"/>
<path d="M388.764 171.639L400.213 166.817L401.204 180.137C401.222 182.09 399.186 185.289 396.965 185.61L394.828 185.921C392.296 186.288 389.232 184.134 389.066 181.906L388.764 171.63V171.639Z" fill="#EDEEF0"/>
<g style="mix-blend-mode:multiply" opacity="0.32">
<path d="M400.525 177.983L400.213 166.817L388.837 172.088L389.562 180.751C393.415 180.806 397.048 179.679 400.525 177.992V177.983Z" fill="#263654"/>
</g>
<path d="M379.81 162.692C379.736 165.845 380.791 169.017 382.745 171.455C386.36 175.975 391.323 176.708 396.589 175.132C400.975 173.821 403.25 171.822 404.369 167.294C405.534 162.591 407.387 158.016 406.176 153.176C405.534 150.472 404.048 148.281 402.305 146.649C400.562 145.026 398.562 143.917 396.571 142.835C393.167 141.002 388.076 138.572 384.645 142.551C380.69 147.135 380.039 156.678 379.81 162.472C379.81 162.545 379.81 162.618 379.81 162.692Z" fill="#EDEEF0"/>
<path d="M405.112 167.789C405.259 168.568 405.461 169.365 405.286 170.145C405.112 170.915 404.406 171.648 403.626 171.52C403.965 173.94 401.433 176.305 399.039 175.801C398.213 177.442 395.745 177.937 394.351 176.745C393.094 177.598 391.397 177.763 389.993 177.167C389.47 176.947 388.993 176.626 388.452 176.47C387.947 176.314 387.406 176.314 386.874 176.241C384.8 175.957 382.911 174.582 382.002 172.702C380.314 172.721 378.654 171.712 377.892 170.209C377.131 168.705 377.314 166.771 378.333 165.423C377.47 164.818 377.158 163.627 377.388 162.6C377.617 161.573 378.287 160.693 379.067 159.987C379.204 159.868 379.351 159.74 379.535 159.74C379.865 159.74 380.048 160.125 380.122 160.446C380.424 161.894 380.498 163.902 381.956 164.131C382.507 164.213 383.085 163.957 383.626 164.113C384.635 164.388 384.81 165.781 385.617 166.441C387.149 167.697 389.342 165.625 391.305 165.863C391.828 165.928 392.351 166.166 392.874 166.083C393.644 165.964 394.176 165.213 394.92 164.993C395.975 164.681 397.03 165.524 398.131 165.506C399.846 165.478 400.791 163.544 401.332 161.922C401.855 160.372 402.378 158.823 402.892 157.274C403.984 154.029 407.571 153.323 406.607 157.42C405.754 161.051 404.415 163.911 405.121 167.789H405.112Z" fill="#576867"/>
<path d="M400.461 154.762C400.571 154.698 400.424 154.395 399.956 154.038C399.497 153.68 398.672 153.295 397.644 153.121C396.617 152.947 395.635 153.029 394.984 153.194C394.323 153.359 394.002 153.579 394.048 153.68C394.158 153.891 395.644 153.588 397.36 153.9C399.094 154.175 400.204 154.918 400.452 154.762H400.461Z" fill="#576867"/>
<path d="M389.388 152.369C389.388 152.259 388.966 152.058 388.241 151.893C387.516 151.718 386.489 151.59 385.461 151.636C384.434 151.682 383.645 151.883 383.204 152.14C382.755 152.397 382.764 152.699 382.957 152.773C383.158 152.855 383.461 152.773 383.966 152.699C384.47 152.626 385.232 152.553 386.085 152.507C387.782 152.424 389.369 152.598 389.388 152.378V152.369Z" fill="#576867"/>
<path d="M389.259 155.816C389.011 156.614 388.828 157.402 388.644 158.19L388.112 160.546L387.984 161.133L387.92 161.426C387.91 161.481 387.883 161.527 387.865 161.573C387.81 161.665 387.718 161.747 387.589 161.802C387.525 161.83 387.461 161.848 387.388 161.857C387.232 161.876 387.076 161.931 386.947 162.022C386.69 162.215 386.562 162.481 386.525 162.737C386.498 162.994 386.534 163.242 386.635 163.462C386.846 163.892 387.186 164.167 387.525 164.397C387.314 164.039 387.085 163.682 387.039 163.333C386.975 163.003 387.131 162.646 387.314 162.572C387.351 162.563 387.397 162.554 387.452 162.554C387.58 162.554 387.718 162.536 387.846 162.499C388.112 162.426 388.369 162.261 388.543 162.022C388.635 161.903 388.699 161.766 388.736 161.619L388.819 161.316L388.966 160.711C389.14 159.905 389.259 159.089 389.323 158.264C389.388 157.439 389.388 156.614 389.277 155.789L389.259 155.816Z" fill="#0057A0"/>
<path d="M387.342 168.293C387.415 168.256 387.635 168.43 388.03 168.641C388.424 168.852 389.03 169.099 389.773 169.164C390.516 169.237 391.232 169.118 391.736 168.989C392.241 168.861 392.553 168.733 392.598 168.788C392.644 168.834 392.406 169.054 391.883 169.283C391.369 169.503 390.534 169.705 389.644 169.622C388.755 169.539 388.085 169.2 387.736 168.898C387.369 168.586 387.287 168.329 387.351 168.302L387.342 168.293Z" fill="white"/>
<path d="M387.232 157.906C387.012 157.466 386.736 157.145 386.406 156.962C386.076 156.779 385.7 156.724 385.314 156.742C384.929 156.76 384.525 156.852 384.14 157.017C383.746 157.173 383.36 157.393 382.993 157.705L382.947 157.741C382.892 157.787 382.837 157.778 382.801 157.732C382.681 157.549 382.828 157.338 383.002 157.448L382.81 157.475C383.113 156.99 383.535 156.605 383.993 156.339C384.443 156.073 384.938 155.935 385.415 155.935C385.892 155.935 386.379 156.091 386.727 156.458C387.085 156.815 387.268 157.365 387.241 157.915L387.232 157.906Z" fill="#0057A0"/>
<path d="M393.268 158.85C393.681 158.465 394.112 158.209 394.58 158.099C395.048 157.989 395.525 158.007 395.993 158.099C396.461 158.2 396.929 158.365 397.36 158.603C397.791 158.841 398.204 159.126 398.553 159.501L398.598 159.547C398.644 159.602 398.727 159.602 398.782 159.566C398.993 159.41 398.874 159.171 398.626 159.245L398.855 159.309C398.635 158.768 398.232 158.31 397.764 157.961C397.287 157.613 396.727 157.375 396.14 157.283C395.553 157.191 394.91 157.237 394.36 157.521C393.81 157.796 393.406 158.3 393.268 158.841V158.85Z" fill="#0057A0"/>
<path d="M393.149 149.243C391.433 148.464 391.277 145.631 389.433 145.2C387.406 144.733 386.296 147.639 384.36 148.391C382.911 148.95 381.158 148.07 380.489 146.676C379.819 145.283 380.103 143.569 380.929 142.267C381.755 140.965 383.048 140.012 384.415 139.269C395.195 133.42 407.91 140.058 408.167 152.314C408.222 155.165 407.332 158.42 404.204 155.596C401.984 153.598 403.763 148.794 400.589 147.529C397.855 146.438 395.773 150.426 393.149 149.252V149.243Z" fill="#576867"/>
<path d="M384.397 176.965C382.241 178.377 382.342 181.833 384.021 183.785C388.488 189.02 397.874 188.241 403.195 185.041C404.497 184.253 405.754 183.226 406.295 181.796C406.828 180.366 406.378 178.487 404.993 177.854C404.02 177.405 402.883 177.653 401.837 177.9C398.874 178.624 396.14 179.477 393.149 179.321C391.91 179.257 384.81 176.69 384.406 176.956L384.397 176.965Z" fill="#3894D1"/>
<g style="mix-blend-mode:multiply" opacity="0.32">
<path d="M382.782 180.595C382.846 181.75 383.278 182.915 384.021 183.795C388.488 189.029 397.874 188.25 403.195 185.051C404.497 184.271 405.745 183.245 406.286 181.833C406.351 182.392 406.286 182.97 406.094 183.483C405.562 184.913 404.305 185.94 402.993 186.728C397.672 189.927 388.287 190.707 383.819 185.472C382.7 184.161 382.287 182.19 382.782 180.595Z" fill="#D5E2EE"/>
</g>
<path d="M439.176 214.056C439.643 215.981 440.001 217.952 439.882 219.923C439.607 224.387 436.882 228.403 433.433 231.254C427.148 236.451 417.873 239.018 409.965 240.274C409.607 240.329 409.204 240.375 408.938 240.137C408.736 239.972 408.662 239.697 408.598 239.449C408.406 238.688 406.084 229.952 405.974 230.034C411.736 225.753 427.57 221.967 424.029 212.14C422.91 209.041 420.35 206.704 417.772 204.65C416.8 203.871 415.791 203.101 415.075 202.083C413.277 199.516 413.717 196.024 414.635 193.026C415.222 191.119 417.442 185.445 420.029 185.463C420.332 185.463 420.635 185.564 420.919 185.674C425.928 187.59 429.341 193.549 432.121 197.802C435.359 202.771 437.772 208.28 439.176 214.047V214.056Z" fill="#3894D1"/>
<path d="M387.066 206.704C381.92 206.429 375.984 207.684 371.039 209.16C370.039 209.463 368.966 209.848 368.415 210.728C368.003 211.397 367.957 212.222 367.975 213.002C368.03 216.311 368.819 219.602 370.259 222.581C371.131 224.369 372.287 226.102 373.966 227.156C376.489 228.742 379.819 228.54 382.534 227.321C385.25 226.102 387.452 223.984 389.479 221.811C391.149 220.024 392.764 218.126 393.708 215.871C396.442 209.335 393.791 207.052 387.066 206.694V206.704Z" fill="#D5EADA"/>
<path d="M386.048 208.482C380.892 208.675 375.773 209.518 370.828 210.994C369.828 211.296 368.755 211.681 368.204 212.561C367.791 213.231 367.745 214.056 367.764 214.835C367.819 218.144 368.608 221.435 370.048 224.415C370.92 226.202 372.076 227.935 373.755 228.989C376.277 230.566 379.608 230.373 382.314 229.154C385.03 227.935 387.231 225.817 389.259 223.645C390.929 221.857 392.543 219.959 393.488 217.704C396.222 211.168 392.084 208.253 386.039 208.473L386.048 208.482Z" fill="#64C080"/>
<path d="M395.057 212.415C389.03 211.709 382.938 211.626 376.901 212.176C374.8 212.369 372.681 212.635 370.709 213.377C369.837 213.707 369.002 214.12 368.213 214.624" stroke="#292F34" stroke-width="2.46" stroke-linecap="round" stroke-linejoin="round"/>
<path d="M381.901 211.095C381.7 209.298 382.938 207.685 384.094 206.3C385.36 204.788 386.544 203.504 385.47 201.432C384.883 200.305 383.663 199.461 382.397 199.59C381.131 199.718 380.03 200.992 380.314 202.23" stroke="#292F34" stroke-width="2.46" stroke-linecap="round" stroke-linejoin="round"/>
<path d="M362.48 267.345C374.654 270.444 387.387 271.333 399.883 269.967C398.699 262.257 398.084 254.447 398.048 246.645C398.048 245.059 400.387 231.492 399.213 230.584C400.791 231.804 402.075 233.399 402.947 235.195C406.635 232.134 410.846 230.19 414.983 227.953C413.625 223.379 409.075 218.511 405.635 215.147C402.011 211.599 396.672 208.51 391.681 207.574C390.562 210.829 389.452 214.092 386.562 215.953C383.672 217.823 379.819 218.355 376.727 216.824C373.645 215.302 371.535 212.021 372.516 208.72C372.379 209.197 369.911 208.445 361.691 213.24C356.929 216.018 354.471 220.867 351.195 225.194C350.911 225.579 350.599 226.019 350.672 226.487C350.728 226.872 351.03 227.174 351.315 227.44C354.461 230.456 357.599 233.481 360.746 236.497C362.085 234.6 363.397 232.665 364.837 230.85C365.736 234.27 362.929 267.428 362.48 267.318V267.345Z" fill="#D5EADA"/>
<g style="mix-blend-mode:multiply" opacity="0.32">
<path d="M391.874 244.519C392.837 247.397 394.332 250.377 393.58 253.319C393.342 254.254 392.883 255.162 392.929 256.115C392.975 256.913 393.369 257.655 393.452 258.453C393.608 259.874 392.699 261.258 391.507 262.037C390.305 262.816 388.855 263.101 387.433 263.266C384.388 263.623 381.204 263.495 378.406 262.248C375.608 261.011 373.241 258.508 372.755 255.483C372.516 254.007 372.801 252.329 373.947 251.367C374.507 250.89 375.232 250.633 375.966 250.542C377.874 250.322 379.874 251.348 380.81 253.026C381.213 253.75 381.452 254.603 382.122 255.098C382.91 255.675 384.076 255.501 384.819 254.859C385.553 254.227 385.901 253.228 385.956 252.256C386.112 249.661 384.47 247.315 383.947 244.766C383.333 241.796 385.011 235.562 388.736 235.012C392.369 234.48 391.176 242.429 391.874 244.519Z" fill="#BBD0E5"/>
</g>
<path d="M395.378 232.033C394.984 232.042 394.58 232.07 394.186 232.125C393.562 232.198 392.204 232.106 391.736 232.592C391.699 232.629 390.837 233.885 391.314 233.83C388.039 234.187 390.965 236.827 392.259 237.57C395.057 239.183 399.818 240.632 403.121 240.613C405.956 240.595 411.653 240.329 411.598 236.323C411.525 230.914 402.956 229.503 399.039 228.485C398.974 230.227 400.305 231.015 401.24 232.189C399.984 232.4 396.644 232.005 395.369 232.042L395.378 232.033Z" fill="#EDEEF0"/>
<path d="M439.176 214.056C439.643 215.981 440.001 217.952 439.882 219.923C439.607 224.387 436.882 228.403 433.433 231.254C427.148 236.451 417.873 239.018 409.965 240.274C409.607 240.329 409.204 240.375 408.938 240.137C408.736 239.972 408.662 239.697 408.598 239.449C408.406 238.688 406.084 229.952 405.974 230.034C411.736 225.753 427.57 221.967 424.029 212.14C423.084 209.518 421.185 207.886 419.332 205.934C417.515 204.027 416.928 201.827 416.699 199.177C416.35 195.19 416.827 191.128 418.103 187.333C418.901 184.941 419.396 184.693 421.369 185.839C422.965 186.765 424.369 187.636 425.68 188.956C428.268 191.55 430.139 194.749 432.121 197.793C435.359 202.762 437.772 208.271 439.176 214.037V214.056Z" fill="#0057A0"/>
</g>
<defs>
<clipPath id="clip0_263_371">
<rect width="511" height="418" fill="white"/>
</clipPath>
</defs>
</svg>
