<svg width="438" height="614" viewBox="0 0 438 614" fill="none" xmlns="http://www.w3.org/2000/svg">
<g clip-path="url(#clip0_295_873)">
<path d="M86.7045 324.367H75.3066V548.514H86.7045V324.367Z" fill="#081D1E"/>
<path d="M59.6326 77.0221C60.0213 87.1279 56.9114 106.174 40.1957 112.781C17.8509 121.612 10.6515 130.272 14.5389 155.925C18.4263 181.579 38.252 190.518 39.8069 213.451C41.3619 236.383 14.1501 286.135 25.8123 328.113C29.6997 335.498 130.383 336.012 135.437 329.015C140.49 322.019 143.211 281.082 123.775 246.101C104.338 211.119 115.611 209.564 119.11 186.243C122.608 162.922 118.332 124.442 112.501 118.223C106.67 112.004 98.04 108.319 95.3966 99.9546C93.0642 92.5695 92.5044 80.3803 91.5092 77.4108C89.5655 71.5805 61.1876 72.3578 59.6326 77.0221Z" fill="#1B5D8D"/>
<path d="M24.2574 120.166C30.7415 112.657 43.1034 106.174 45.0471 110.449C46.9908 114.725 45.6225 133.382 61.9495 143.487C78.2765 153.593 108.209 155.537 107.821 120.555C127.258 174.194 128.424 199.847 126.48 206.843C124.536 213.84 81.5886 249.987 47.1774 188.964C33.9603 169.141 24.2418 120.166 24.2418 120.166H24.2574Z" fill="#67C07F"/>
<path d="M76.1462 166.233C84.3098 176.153 92.2711 180.817 104.913 149.722" stroke="#081D1E" stroke-width="1.5" stroke-linecap="round" stroke-linejoin="round"/>
<path d="M46.4155 119.591C63.3179 181.003 90.9184 201.806 105.69 175.173" stroke="#081D1E" stroke-width="1.5" stroke-linecap="round" stroke-linejoin="round"/>
<path d="M154.874 581.413C136.385 612.181 123.572 540.647 81.0133 544.596C38.4541 540.632 25.6413 612.181 7.15286 581.413C-9.56292 585.299 6.25098 602.137 21.8005 599.028C40.2268 595.343 53.1329 558.293 81.0133 556.739C108.894 558.293 121.815 595.343 140.226 599.028C155.776 602.137 171.589 585.299 154.874 581.413Z" fill="#081D1E"/>
<path d="M152.666 142.259C158.108 126.898 188.43 139.927 173.844 157.807C164.716 151.588 152.666 142.259 152.666 142.259Z" fill="#0057A0"/>
<path d="M160.642 128.453L161.218 136.429" stroke="#081D1E" stroke-width="1.5" stroke-linecap="round" stroke-linejoin="round"/>
<path d="M173.86 130.91L169.07 139.227" stroke="#081D1E" stroke-width="1.5" stroke-linecap="round" stroke-linejoin="round"/>
<path d="M174.575 146.612L184.029 142.803" stroke="#081D1E" stroke-width="1.5" stroke-linecap="round" stroke-linejoin="round"/>
<path d="M160.052 128.842C161.657 128.842 162.959 127.54 162.959 125.934C162.959 124.329 161.657 123.027 160.052 123.027C158.446 123.027 157.144 124.329 157.144 125.934C157.144 127.54 158.446 128.842 160.052 128.842Z" fill="#081D1E"/>
<path d="M178.011 129.37C177.778 130.956 176.285 132.06 174.699 131.827C173.113 131.594 172.009 130.101 172.242 128.515C172.476 126.929 173.968 125.826 175.554 126.059C177.141 126.292 178.245 127.785 178.011 129.37Z" fill="#081D1E"/>
<path d="M188.74 141.482C188.989 143.068 187.901 144.56 186.299 144.809C184.713 145.058 183.22 143.969 182.972 142.368C182.723 140.782 183.811 139.29 185.413 139.041C186.999 138.792 188.492 139.88 188.74 141.482Z" fill="#081D1E"/>
<path d="M227.568 149.909C218.238 153.609 198.801 172.064 172.569 152.629C146.337 133.195 126.698 117.057 118.146 119.016C121.053 133.786 132.918 148.167 132.918 148.167C142.636 156.905 161.684 180.428 173.735 189.757C185.786 199.085 193.95 205.118 242.153 183.926C231.859 158.662 227.583 149.909 227.583 149.909H227.568Z" fill="#ECEEEE"/>
<path d="M99.4083 105.909C106.406 108.506 120.665 117.057 127.662 131.563C134.659 146.068 142.698 173.028 147.099 195.571C151.499 218.115 151.888 233.01 159.414 235.342C166.94 237.674 177.172 225.625 191.944 229.247C206.716 232.87 213.449 238.311 217.336 275.376C221.224 312.442 238.064 426.451 243.506 433.696C227.443 434.987 210.339 435.251 206.451 432.655C202.564 430.058 206.451 407.779 198.941 405.446C191.431 403.114 181.837 401.824 179.24 398.714C176.643 395.605 181.308 386.541 178.462 386.276C175.617 386.012 169.646 386.276 168.868 384.457C168.091 382.638 187.263 261.633 187.792 248.417C185.724 245.043 184.418 247.376 184.418 247.376C176.907 271.738 168.355 282.622 155.915 280.803C143.476 278.983 132.327 256.968 125.081 214.213C118.083 172.965 110.184 122.39 100.839 109.625C98.5686 106.531 97.5735 105.474 99.4239 105.894L99.4083 105.909Z" fill="#67C07F"/>
<path d="M302.688 412.629C297.183 389.013 303.201 346.615 303.201 330.228C303.201 330.228 278.29 321.35 255.759 322.376C255.666 381.006 304.647 566.005 300.651 570.436C294.167 577.603 265.307 593.027 268.37 594.55C273.486 598.142 322.98 583.138 322.653 574.432C318.331 456.877 309.934 443.74 302.688 412.629Z" fill="#ECEEEE"/>
<path d="M390.994 464.869C375.6 430.493 359.459 414.993 355.649 406.659C347.455 388.733 348.948 341.484 348.948 321.521L297.743 319.982C297.743 319.982 307.819 368.101 315.998 404.965C320.616 425.736 372.443 498.482 404.444 542.793C404.444 542.793 400.261 561.776 388.506 579.78C402.158 579.096 420.833 559.91 426.478 539.948C423.461 533.931 407.352 496.026 391.009 464.869H390.994Z" fill="#ECEEEE"/>
<path d="M340.053 412.147L335.28 419.299" stroke="#081D1E" stroke-width="1.5" stroke-linecap="round" stroke-linejoin="round"/>
<path d="M284.759 418.289L278.275 424.772" stroke="#081D1E" stroke-width="1.5" stroke-linecap="round" stroke-linejoin="round"/>
<path d="M342.65 241.996C354.312 263.498 360.035 316.748 357.469 341.329C350.301 347.983 255.277 350.968 248.358 339.308C247.58 294.873 255.681 260.28 260.02 242.4C304.398 248.961 342.65 242.012 342.65 242.012V241.996Z" fill="#081D1E"/>
<path d="M224.847 149.442C226.137 152.552 241.951 191.685 241.951 191.685L253.613 187.798C253.613 187.798 253.1 236.508 254.655 239.617C256.21 242.727 267.608 251.542 302.859 251.278C338.11 251.014 355.463 242.727 357.018 232.621C358.573 222.515 351.311 195.571 351.311 170.944C351.311 146.317 342.495 125.344 318.144 117.306C293.778 109.267 267.872 122.483 224.847 149.442Z" fill="#1B5D8D"/>
<path d="M291.896 112.004C254.002 124.442 279.27 181.19 256.521 198.681C261.575 202.179 265.462 205.086 265.462 205.086C288.195 182.931 267.592 129.293 292.285 117.632C295.581 110.636 291.896 112.004 291.896 112.004Z" fill="#0057A0"/>
<path d="M317.631 110.263C323.851 111.04 335.637 117.445 332.325 126.587C329.013 135.729 295.986 165.643 297.727 195.774C293.265 200.251 289.766 202.583 289.766 202.583C290.543 172.654 301.117 153.935 315.687 137.097C328.127 122.716 320.663 117.477 316.776 115.922C317.942 113.403 317.631 110.294 317.631 110.294V110.263Z" fill="#0057A0"/>
<path d="M317.009 89.9886L320.476 120.555C320.476 120.555 308.628 135.714 292.098 127.94C291.523 117.648 290.746 93.9222 290.746 93.9222" fill="#ECEEEE"/>
<path d="M318.02 98.9595L317.009 89.9886L290.73 93.9222C290.73 93.9222 290.901 99.286 291.15 106.003C292.985 106.624 294.897 107.06 296.903 107.246C305.176 108.008 312.873 104.681 318.02 98.9595Z" fill="#72AF86"/>
<path d="M282.66 33.5825C272.941 38.4333 262.15 45.1498 265.26 55.8309C268.37 66.512 268.759 74.3013 263.705 76.0426C251.623 80.2248 251.654 88.8692 252.245 95.8656C280.623 95.8656 294.027 97.809 294.027 97.809C294.027 97.809 299.764 34.7485 282.66 33.5825Z" fill="#081D1E"/>
<path d="M274.263 73.8193C272.973 87.7187 283.204 100.032 297.105 101.323C311.007 102.613 323.322 92.3829 324.613 78.4835L327.085 51.8663C328.376 37.9669 318.144 25.6533 304.243 24.3628C290.341 23.0724 278.026 33.3026 276.736 47.2021L274.263 73.8193Z" fill="#ECEEEE"/>
<path d="M312.266 49.4875C310.012 46.036 305.953 43.7039 301.801 43.6261C300.993 43.6261 300.215 44.3413 300.262 45.1653C300.309 45.9894 300.946 46.689 301.801 46.7045C302.019 46.7045 302.237 46.7045 302.454 46.7356C302.579 46.7356 302.703 46.7512 302.812 46.7667C302.657 46.7512 302.703 46.7667 302.828 46.7667C303.263 46.8445 303.683 46.9378 304.103 47.0621C304.32 47.1243 304.523 47.2021 304.725 47.2642C304.818 47.2953 304.911 47.3264 305.005 47.3731C305.098 47.4197 305.316 47.513 305.113 47.4197C305.518 47.6063 305.906 47.7929 306.295 48.0105C306.653 48.2126 306.995 48.4459 307.337 48.6791C307.415 48.7413 307.601 48.8656 307.43 48.7413C307.508 48.8034 307.586 48.8656 307.648 48.9123C307.819 49.0522 307.975 49.1921 308.13 49.3321C308.441 49.6119 308.721 49.9073 309.001 50.2183C309.079 50.296 309.141 50.3893 309.219 50.4826C309.312 50.607 309.312 50.5914 309.219 50.4826C309.343 50.6536 309.467 50.8402 309.592 51.0112C310.027 51.6797 310.976 52.0373 311.706 51.5709C312.375 51.1356 312.733 50.1872 312.266 49.4564V49.4875Z" fill="#081D1E"/>
<path d="M280.669 49.1455C280.732 49.0211 280.809 48.8967 280.887 48.7879C280.934 48.7257 281.012 48.648 281.043 48.5702C281.012 48.6169 280.825 48.8345 280.965 48.6791C281.183 48.4303 281.4 48.1971 281.649 47.9794C281.711 47.9328 281.774 47.8706 281.836 47.824C282.038 47.6374 281.634 47.9639 281.789 47.8551C281.929 47.7618 282.053 47.6529 282.193 47.5752C282.489 47.3731 282.8 47.2021 283.126 47.0466C283.282 46.9689 283.453 46.9222 283.593 46.8289C283.468 46.9067 283.344 46.9378 283.562 46.8445C283.639 46.8134 283.717 46.7823 283.795 46.7512C284.106 46.6424 284.432 46.5491 284.759 46.4713C284.915 46.4402 285.086 46.4091 285.241 46.378C285.583 46.3159 284.868 46.4091 285.21 46.378C285.288 46.378 285.365 46.378 285.443 46.3625C285.77 46.347 286.081 46.3625 286.407 46.378C287.216 46.4713 287.978 45.6007 287.947 44.8388C287.9 43.9216 287.263 43.3929 286.407 43.2997C284.743 43.1131 283.033 43.6417 281.556 44.388C280.079 45.1343 278.757 46.1915 277.995 47.6063C277.606 48.3215 277.793 49.3165 278.555 49.7207C279.317 50.125 280.25 49.9229 280.669 49.161V49.1455Z" fill="#081D1E"/>
<path d="M294.338 61.4124C294.307 62.1898 294.151 63.8068 293.14 65.517C292.036 67.3827 290.512 68.3155 289.828 68.6887C290.808 69.4038 291.787 70.1346 292.767 70.8497" stroke="#081D1E" stroke-width="1.5" stroke-linecap="round" stroke-linejoin="round"/>
<path d="M299.764 73.4306C299.267 78.7789 293.125 78.9811 290.606 76.6956" stroke="#081D1E" stroke-width="1.5" stroke-linecap="round" stroke-linejoin="round"/>
<path d="M299.267 65.517C299.78 67.7558 301.537 69.2484 303.185 68.8752C304.833 68.5021 305.766 66.3876 305.269 64.1488C304.756 61.91 303.014 60.4174 301.35 60.7905C299.702 61.1637 298.769 63.2781 299.267 65.517Z" fill="#16141B"/>
<path d="M280.483 62.2364C280.996 64.4597 282.753 65.9678 284.401 65.5947C286.05 65.2216 286.983 63.0916 286.485 60.8683C285.972 58.6294 284.215 57.1369 282.567 57.51C280.918 57.8832 279.985 59.9976 280.483 62.2364Z" fill="#16141B"/>
<path d="M279.301 58.4273L282.022 60.6506" stroke="#16141B" stroke-width="1.32" stroke-miterlimit="10" stroke-linecap="round"/>
<path d="M307.15 60.8372L303.745 62.563" stroke="#16141B" stroke-width="1.32" stroke-miterlimit="10" stroke-linecap="round"/>
<path d="M280.234 35.3394C284.697 32.6185 307.182 30.8306 319.823 45.8028C331.003 43.564 337.083 41.7605 337.083 41.7605C338.638 26.3996 298.505 3.85576 280.234 35.3549V35.3394Z" fill="#081D1E"/>
<path d="M322.809 24.8759C329.679 24.8759 335.248 19.3073 335.248 12.438C335.248 5.56866 329.679 0 322.809 0C315.939 0 310.369 5.56866 310.369 12.438C310.369 19.3073 315.939 24.8759 322.809 24.8759Z" fill="#081D1E"/>
<path d="M319.31 44.7611C319.497 50.0161 312.702 68.471 318.346 75.0786C323.991 81.6863 319.901 81.6863 314.272 91.0148C308.643 100.343 314.397 108.117 314.397 108.117C324.115 105.785 354.561 99.5659 364.933 96.4564C362.6 79.7429 353.333 83.8319 350.425 74.3013C347.517 64.7707 352.306 61.2725 348.606 54.0896C344.905 46.9067 339.151 46.378 336.819 40.3612C329.433 41.5272 319.326 44.7611 319.326 44.7611H319.31Z" fill="#081D1E"/>
<path d="M255.681 168.628C254.904 174.334 253.862 187.02 253.349 195.836" stroke="#081D1E" stroke-width="1.5" stroke-linecap="round" stroke-linejoin="round"/>
<path d="M293.063 232.497C289.564 258.539 322.793 294.298 325.717 311.975C331.548 309.83 335.435 308.477 335.435 308.477C335.622 292.93 298.894 263.001 299.873 232.481H293.078L293.063 232.497Z" fill="#0057A0"/>
<path d="M302.33 183.647C310.105 185.979 331.61 200.749 331.61 200.749C321.503 222.515 314.241 234.953 287.558 235.466C260.859 235.979 225.873 236.757 218.362 237.534C210.852 238.311 204.368 241.157 202.549 245.821C200.729 250.485 189.72 256.828 181.043 243.224C176.892 247.376 170.812 246.458 173.144 238.949C175.477 231.439 186.75 223.526 203.077 220.681C219.404 217.835 272.273 210.046 284.199 202.801C296.126 195.54 302.346 183.631 302.346 183.631L302.33 183.647Z" fill="#ECEEEE"/>
<path d="M299.096 184.113C306.87 185.155 328.515 195.323 333.18 202.055C340.691 190.658 343.288 175.111 343.288 175.111" stroke="#081D1E" stroke-width="1.5" stroke-linecap="round" stroke-linejoin="round"/>
<path d="M131.161 130.474C128.439 128.733 121.053 125.997 121.053 130.474C121.053 134.952 126.682 136.102 134.457 139.414" fill="#ECEEEE"/>
<path d="M131.161 130.474C128.439 128.733 121.053 125.997 121.053 130.474C121.053 134.952 126.682 136.102 134.457 139.414" stroke="#081D1E" stroke-width="1.5" stroke-linecap="round" stroke-linejoin="round"/>
<path d="M160.891 143.487C153.117 144.654 146.119 151.852 145.155 160.776C147.876 164.274 149.618 166.031 149.618 166.031C150.971 158.258 157.781 148.54 166.52 148.152C162.835 145.229 160.891 143.487 160.891 143.487Z" fill="#081D1E"/>
<path d="M186.75 232.31C183.065 233.865 179.753 239.306 181.899 244.748" stroke="#081D1E" stroke-width="1.5" stroke-linecap="round" stroke-linejoin="round"/>
<path d="M190.373 237.814C187.916 239.493 185.133 243.971 186.875 248.821" stroke="#081D1E" stroke-width="1.5" stroke-linecap="round" stroke-linejoin="round"/>
<path d="M195.691 242.276C192.97 244.422 190.638 248.044 192.192 250.889" stroke="#081D1E" stroke-width="1.5" stroke-linecap="round" stroke-linejoin="round"/>
<path d="M107.696 124.053C110.293 136.755 121.955 202.303 126.62 224.599" stroke="#081D1E" stroke-width="1.5" stroke-linecap="round" stroke-linejoin="round"/>
<path d="M129.606 164.679C136.992 191.622 140.677 247.671 150.784 254.263C164.483 263.218 168.075 241.436 168.075 241.436" stroke="#081D1E" stroke-width="1.5" stroke-linecap="round" stroke-linejoin="round"/>
<path d="M140.101 241.701C143.724 264.509 159.274 288.856 174.824 260.358" stroke="#081D1E" stroke-width="1.5" stroke-linecap="round" stroke-linejoin="round"/>
<path d="M199.439 266.577C200.48 282.124 198.925 395.107 203.326 415.568" stroke="#081D1E" stroke-width="1.5" stroke-linecap="round" stroke-linejoin="round"/>
<path d="M185.195 280.305C183.905 301.558 179.753 372.812 179.24 388.624" stroke="#081D1E" stroke-width="1.5" stroke-linecap="round" stroke-linejoin="round"/>
<path d="M263.518 595.918C263.13 603.505 263.518 611.279 271.293 612.43C279.068 613.58 301.413 609.709 314.63 603.879C327.847 598.048 327.458 597.66 325.903 580.744C321.238 577.821 264.094 591.239 263.518 595.903V595.918Z" fill="#1B5D8D"/>
<path d="M308.426 564.248C308.426 557.438 302.983 551.997 298.132 553.551C293.28 555.106 297.743 560.361 295.411 568.135C293.078 575.909 288.025 579.018 275.398 583.682C262.772 588.347 261.606 594.752 264.327 597.862C267.048 600.971 274.621 602.137 298.925 593.384C323.229 584.631 325.359 583.092 325.748 581.133C326.137 579.174 324.006 572.768 325.172 563.642C326.339 554.515 316.231 544.596 308.457 564.233L308.426 564.248Z" fill="#FFFBF9"/>
<path d="M273.05 585.237C278.679 589.901 299.096 589.901 308.426 564.248" stroke="#081D1E" stroke-linecap="round" stroke-linejoin="round"/>
<path d="M314.443 569.69C314.443 573.064 320.679 574.167 324.939 573.032C324.737 570.389 324.675 567.249 325.141 563.673C320.679 559.599 314.459 565.616 314.459 569.705L314.443 569.69Z" fill="#1B5D8D"/>
<path d="M325.126 574.976C320.632 575.753 313.604 576.873 311.924 578.723C310.089 580.744 311.209 588.502 325.67 579.205C325.546 578.116 325.328 576.686 325.126 574.976Z" fill="#ECEEEE"/>
<path d="M273.05 613.223C273.626 608.372 278.104 605.838 286.454 604.283C294.804 602.728 306.855 597.473 309.778 599.432C312.702 601.391 312.5 604.687 312.5 604.687" stroke="#081D1E" stroke-linecap="round" stroke-linejoin="round"/>
<path d="M326.308 588.533C321.254 589.124 315.812 592.607 317.755 602.137" stroke="#081D1E" stroke-linecap="round" stroke-linejoin="round"/>
<path d="M279.659 581.926C282.38 582.112 287.434 585.424 288.211 586.59" stroke="#081D1E" stroke-linecap="round" stroke-linejoin="round"/>
<path d="M285.677 579.205C288.398 579.391 292.192 580.464 295.193 582.998" stroke="#081D1E" stroke-linecap="round" stroke-linejoin="round"/>
<path d="M291.026 575.613C294.913 575.225 298.987 576.779 300.262 578.63" stroke="#081D1E" stroke-linecap="round" stroke-linejoin="round"/>
<path d="M294.431 570.856C296.561 570.078 303.17 571.447 304.538 573.001" stroke="#081D1E" stroke-linecap="round" stroke-linejoin="round"/>
<path d="M295.986 566.378C298.318 565.601 303.372 565.601 307.259 568.119" stroke="#081D1E" stroke-linecap="round" stroke-linejoin="round"/>
<path d="M307.259 579.018C305.611 577.168 300.853 581.739 297.152 585.33C293.467 588.906 295.115 592.031 301.817 589.606C308.519 587.181 311.489 583.745 307.259 579.018Z" fill="#0057A0"/>
<path d="M385.38 583.325C389.19 589.886 393.746 596.198 400.899 592.949C408.052 589.699 424.69 574.261 432.589 562.18C440.488 550.1 439.959 549.976 429.448 536.651C423.943 536.745 383.328 579.112 385.38 583.34V583.325Z" fill="#1B5D8D"/>
<path d="M405.781 532.314C402.08 526.608 394.554 525.006 391.32 528.955C388.086 532.904 394.694 534.863 396.98 542.668C399.25 550.458 396.716 555.821 388.661 566.611C380.607 577.401 383.126 583.418 387.091 584.538C391.071 585.657 398.053 582.516 413.665 561.947C429.277 541.378 430.225 538.921 429.494 537.071C428.764 535.237 423.477 531.023 419.48 522.721C415.484 514.434 401.614 511.62 405.781 532.314Z" fill="#FFFBF9"/>
<path d="M387.542 569.177C394.803 570.016 411.923 558.9 405.781 532.314" stroke="#081D1E" stroke-linecap="round" stroke-linejoin="round"/>
<path d="M413.805 533.589C415.64 536.418 421.486 533.946 424.425 530.681C422.808 528.582 421.051 525.97 419.496 522.721C413.525 521.726 411.581 530.168 413.805 533.589Z" fill="#1B5D8D"/>
<path d="M425.638 532.205C422.295 535.299 417.008 540.072 416.604 542.544C416.168 545.249 421.331 551.126 428.39 535.454C427.691 534.615 426.727 533.542 425.638 532.205Z" fill="#ECEEEE"/>
<path d="M402.796 592.638C400.634 588.238 403.014 583.698 409.171 577.837C415.329 571.975 422.575 561.014 426.089 561.061C429.588 561.108 431.236 563.984 431.236 563.984" stroke="#081D1E" stroke-linecap="round" stroke-linejoin="round"/>
<path d="M434.004 542.948C430.085 546.182 427.426 552.09 434.237 559.009" stroke="#081D1E" stroke-linecap="round" stroke-linejoin="round"/>
<path d="M391.289 562.802C393.684 561.481 399.717 561.496 401.008 562.056" stroke="#081D1E" stroke-linecap="round" stroke-linejoin="round"/>
<path d="M394.865 557.236C397.26 555.915 401.023 554.749 404.91 555.231" stroke="#081D1E" stroke-linecap="round" stroke-linejoin="round"/>
<path d="M397.385 551.313C400.432 548.872 404.708 547.954 406.776 548.809" stroke="#081D1E" stroke-linecap="round" stroke-linejoin="round"/>
<path d="M397.649 545.467C399.017 543.648 405.299 541.191 407.29 541.751" stroke="#081D1E" stroke-linecap="round" stroke-linejoin="round"/>
<path d="M396.514 540.88C398.053 538.952 402.283 536.201 406.916 536.201" stroke="#081D1E" stroke-linecap="round" stroke-linejoin="round"/>
<path d="M412.841 545.327C410.446 544.674 408.938 551.095 407.803 556.132C406.668 561.139 409.746 562.864 414.038 557.174C418.345 551.484 418.952 546.99 412.825 545.327H412.841Z" fill="#0057A0"/>
</g>
<defs>
<clipPath id="clip0_295_873">
<rect width="438" height="614" fill="white"/>
</clipPath>
</defs>
</svg>
