<svg width="768" height="1160" viewBox="0 0 768 1160" fill="none" xmlns="http://www.w3.org/2000/svg">
<g clip-path="url(#clip0_213_93)">
<path d="M695.772 456.363C688.564 448.847 678.5 444.755 668.112 444.315L564.78 439.773C510.624 437.383 456.368 442.527 403.626 455.055L189.909 505.79L224.327 404.556C228.391 392.626 231.143 380.313 232.551 367.784L233.432 360.056C235.181 344.424 234.713 328.601 232.002 313.105L230.03 301.89C227.169 285.522 216.714 271.494 201.83 264.097C195.696 261.053 188.276 264.271 186.1 270.777L175.732 301.602C161.329 344.462 139.787 384.6 112.064 420.298L96.7561 440.016C63.4948 482.82 39.9033 532.339 27.5977 585.149L21.3364 611.979C8.0267 669.125 -28.464 718.128 -79.3785 747.242L-266.807 854.491L-291.934 868.878L-301.725 874.823L-322.995 982.59L7.7116 1047.86L41.1302 1020.57L49.9217 1013.17C78.26 989.283 113.852 975.698 150.87 974.582C180.89 973.671 210.215 965.364 236.25 950.388L461.42 822.176C479.019 812.051 494.438 798.547 506.776 782.453C510.547 777.525 516.009 774.194 522.134 773.272L592.51 762.738C604.937 760.881 615.916 753.684 622.598 743.039L622.712 742.838C629.608 731.863 631.185 718.352 626.995 706.081C622.781 693.681 613.128 683.874 600.805 679.435L542.515 658.468L451.033 628.645L471.237 627.778C485.749 627.149 500.283 627.912 514.644 630.053L597.641 642.397C612.316 644.575 627.412 639.232 636.622 627.574C649.992 610.644 647.822 586.51 632.097 572.209C619.562 560.817 603.759 553.685 586.949 551.78L512.696 543.441L457.196 540.958C477.098 533.343 498.239 529.49 519.537 529.606L653.278 530.39C672.374 530.493 690.204 520.834 700.508 504.76C710.267 489.569 708.474 469.547 695.8 456.344L695.772 456.363Z" fill="url(#paint0_linear_213_93)"/>
<path opacity="0.15" d="M588.642 641.067C599.095 615.956 609.859 589.024 626.731 567.781C615.193 558.989 601.457 553.429 586.945 551.803L566.742 549.525C560.169 562.124 551.927 574.023 547.673 587.798C542.979 602.923 539.538 618.222 534.343 633L588.642 641.067Z" fill="#329FD9"/>
<path opacity="0.15" d="M49.9169 1013.19C78.2553 989.307 113.847 975.722 150.865 974.606C158.836 974.371 166.743 973.578 174.573 972.3C154.986 974.429 98.0401 953.429 55.3219 899.864C47.044 889.486 70.4768 934.117 71.339 966.886C72.1063 995.995 49.9216 1013.17 49.9216 1013.17L49.9169 1013.19Z" fill="#329FD9"/>
<path opacity="0.15" d="M-22.1804 808.619C-77.9396 756.89 -240.59 839.973 -241.547 840.056L-79.3594 747.271C-28.4401 718.133 8.0505 669.13 21.3555 612.008C21.3555 612.008 6.25329 686.14 1.64007 735.985C-2.01686 775.591 -1.24274 788.104 13.8431 842.656C16.891 853.686 -17.5814 812.92 -22.1851 808.643L-22.1804 808.619Z" fill="#329FD9"/>
<path opacity="0.15" d="M170.968 690.708C182.992 629.791 175.872 594.35 178.041 566.044C181.208 524.533 189.933 505.794 189.933 505.794L240.204 493.868C222.452 508.027 185.702 650.936 170.968 690.708Z" fill="#329FD9"/>
<path opacity="0.15" d="M631.432 530.289L587.577 530.031C590.01 500.389 590.604 470.657 592.794 440.992L646.779 443.374C625.041 461.922 622.286 502.474 631.432 530.289Z" fill="#329FD9"/>
<path opacity="0.15" d="M205.2 767.319C214.568 755.99 325.228 737.207 368.818 728.892C412.304 720.606 524.265 648.177 576.756 670.799L602.84 679.664C604.118 680.089 605.306 680.72 606.523 681.332C617.461 686.76 622.685 691.284 622.685 691.284C622.685 691.284 624.13 697.638 626.995 706.081C631.185 718.352 629.603 731.887 622.731 742.867L622.627 743.02C615.963 753.694 604.956 760.909 592.501 762.786L522.125 773.32C516 774.241 510.533 777.596 506.767 782.501C494.404 798.59 478.986 812.094 461.41 822.224L272.677 929.686C293.986 903.274 324.822 796.85 205.196 767.343L205.2 767.319Z" fill="#329FD9"/>
<path d="M611.345 146.137L302.972 85.2715C285.082 81.7406 267.717 93.385 264.185 111.28L141.573 732.492C138.041 750.387 149.68 767.756 167.569 771.287L475.943 832.152C493.832 835.683 511.198 824.039 514.73 806.144L637.342 184.932C640.874 167.037 629.235 149.668 611.345 146.137Z" fill="url(#paint1_linear_213_93)"/>
<path d="M473.265 143.753L431.602 135.53C428.772 134.972 426.025 136.814 425.466 139.645L425.311 140.432C424.752 143.263 426.593 146.011 429.423 146.569L471.087 154.792C473.917 155.351 476.664 153.509 477.223 150.678L477.378 149.891C477.937 147.06 476.096 144.312 473.265 143.753Z" fill="#061E1D"/>
<path d="M411.538 137.317C412.14 134.265 410.151 131.296 407.1 130.694C404.049 130.092 401.081 132.082 400.479 135.134C399.876 138.186 401.866 141.155 404.917 141.757C407.968 142.359 410.936 140.369 411.538 137.317Z" fill="#061E1D"/>
<path d="M329.136 786.304C343.579 786.786 355.679 775.465 356.163 761.018C356.647 746.571 345.331 734.469 330.888 733.987C316.446 733.504 304.345 744.825 303.861 759.272C303.378 773.719 314.694 785.822 329.136 786.304Z" fill="#1D1D1B"/>
<path d="M334.126 773.048L321.208 770.499C318.372 769.939 316.516 767.17 317.076 764.333L319.627 751.41C320.187 748.573 322.955 746.716 325.791 747.276L338.71 749.826C341.546 750.386 343.402 753.155 342.842 755.992L340.291 768.915C339.731 771.752 336.963 773.608 334.126 773.048ZM325.02 751.31C324.4 751.188 323.801 751.59 323.678 752.21L321.128 765.132C321.006 765.752 321.407 766.352 322.027 766.474L334.945 769.024C335.565 769.146 336.164 768.744 336.287 768.124L338.837 755.202C338.96 754.582 338.558 753.982 337.938 753.86L325.02 751.31Z" fill="#71716F"/>
<path d="M601.284 237.513L277.56 173.618C273.203 172.758 268.974 175.595 268.113 179.953L169.77 678.21C168.91 682.569 171.745 686.799 176.102 687.659L499.825 751.554C504.182 752.414 508.412 749.578 509.272 745.219L607.615 246.962C608.476 242.604 605.641 238.373 601.284 237.513Z" fill="#1D1D1B"/>
<path d="M503.599 744.1L601.943 245.843C602.182 244.631 601.394 243.455 600.183 243.216L276.436 179.317C275.225 179.078 274.049 179.866 273.81 181.078L175.467 679.335C175.228 680.546 176.015 681.722 177.227 681.961L500.974 745.86C502.185 746.099 503.36 745.311 503.599 744.1Z" fill="#FFFDFA"/>
<path d="M634.674 707.324C640.881 724.304 635.154 733.751 627.233 742.641C605.291 767.243 588.865 768.41 581.946 769.843C574.969 771.315 557.556 768.324 550.214 754.588C544.809 744.455 544.59 734.528 547.674 725.675C552.022 713.181 577.049 696.917 594.875 687.777C601.651 684.309 617.225 685.822 624.346 692.653C629.223 697.306 632.631 701.744 634.669 707.348L634.674 707.324Z" fill="white"/>
<path d="M619.654 567.251C624.365 566.72 629.048 568.585 632.125 572.19L638.724 579.908C646.432 588.91 649.406 601.066 646.733 612.602L645.715 617.008C641.345 636.012 628.376 651.659 610.976 659.644C607.873 661.063 591.576 661.958 581.322 654.312C559.503 638.016 566.699 607.456 582.461 590.453L590.169 582.14C597.881 573.804 608.355 568.539 619.625 567.271L619.654 567.251Z" fill="white"/>
<path d="M534.672 828.435C533.01 819.165 526.74 811.412 518.036 807.837L511.759 805.26C497.255 799.326 482.155 795.032 466.721 792.432L456.702 790.752C448.455 789.372 439.994 791.591 433.484 796.846C425.053 803.678 421.088 814.612 423.22 825.263L423.268 825.521C425.212 835.243 431.917 843.304 441.126 846.955L447.832 849.616C463.814 855.966 480.534 860.331 497.588 862.632L502.411 863.287C513.578 864.797 524.542 859.307 530.05 849.47L531.611 846.707C534.737 841.156 535.817 834.681 534.682 828.388L534.672 828.435Z" fill="white"/>
</g>
<defs>
<linearGradient id="paint0_linear_213_93" x1="1064.13" y1="524.951" x2="-1046.26" y2="776.868" gradientUnits="userSpaceOnUse">
<stop stop-color="#7FC782"/>
<stop offset="0.01" stop-color="#8BCC8E"/>
<stop offset="0.05" stop-color="#AEDBB0"/>
<stop offset="0.09" stop-color="#CCE8CD"/>
<stop offset="0.13" stop-color="#E2F2E3"/>
<stop offset="0.18" stop-color="#F2F9F2"/>
<stop offset="0.23" stop-color="#FCFDFC"/>
<stop offset="0.3" stop-color="white"/>
<stop offset="0.35" stop-color="#F2F9FC"/>
<stop offset="0.44" stop-color="#D0E9F6"/>
<stop offset="0.57" stop-color="#99CFEC"/>
<stop offset="0.72" stop-color="#4EACDE"/>
<stop offset="0.77" stop-color="#329FD9"/>
</linearGradient>
<linearGradient id="paint1_linear_213_93" x1="725.602" y1="423.038" x2="-92.2623" y2="509.675" gradientUnits="userSpaceOnUse">
<stop stop-color="#7FC782"/>
<stop offset="0.03" stop-color="#63A175"/>
<stop offset="0.07" stop-color="#4A7E6A"/>
<stop offset="0.1" stop-color="#346060"/>
<stop offset="0.15" stop-color="#244A59"/>
<stop offset="0.19" stop-color="#183A54"/>
<stop offset="0.24" stop-color="#123050"/>
<stop offset="0.3" stop-color="#102E50"/>
<stop offset="0.44" stop-color="#0F2F52"/>
<stop offset="0.53" stop-color="#0D335B"/>
<stop offset="0.61" stop-color="#0A3B6A"/>
<stop offset="0.68" stop-color="#06467F"/>
<stop offset="0.74" stop-color="#00549A"/>
<stop offset="0.75" stop-color="#00569E"/>
</linearGradient>
<clipPath id="clip0_213_93">
<rect width="914.35" height="1001.57" fill="white" transform="translate(-129.057) rotate(11.1652)"/>
</clipPath>
</defs>
</svg>
