<svg width="496" height="447" viewBox="0 0 496 447" fill="none" xmlns="http://www.w3.org/2000/svg">
<g clip-path="url(#clip0_263_655)">
<g style="mix-blend-mode:multiply" opacity="0.32">
<path d="M247.64 446.13C384.408 446.13 495.28 422.047 495.28 392.34C495.28 362.633 384.408 338.55 247.64 338.55C110.872 338.55 0 362.633 0 392.34C0 422.047 110.872 446.13 247.64 446.13Z" fill="#A4AEAF"/>
</g>
<path d="M305.82 158.06H295.1V203.58H305.82V158.06Z" fill="#E9EBEC"/>
<path d="M319.38 158.06H308.66V203.58H319.38V158.06Z" fill="#3198D0"/>
<path d="M334.14 158.06H323.42V203.58H334.14V158.06Z" fill="#A9D5B5"/>
<path d="M405.05 300.15H394.33V345.67H405.05V300.15Z" fill="#FEFFFE"/>
<path d="M418.61 300.15H407.89V345.67H418.61V300.15Z" fill="#E9EBEC"/>
<path d="M433.37 300.15H422.65V345.67H433.37V300.15Z" fill="#A9D5B5"/>
<path d="M70.33 309.29H59.61V354.81H70.33V309.29Z" fill="#FEFFFE"/>
<path d="M83.88 309.29H73.16V354.81H83.88V309.29Z" fill="#404D72"/>
<path d="M98.6499 309.29H87.9299V354.81H98.6499V309.29Z" fill="#E9EBEC"/>
<path d="M388.71 320.85V356.26H439.01V320.85H388.71ZM422.05 331.14H405.66V324.28H422.05V331.14Z" fill="#E1EADD"/>
<path d="M56.23 325.25V360.66H106.53V325.25H56.23ZM89.57 335.54H73.18V328.68H89.57V335.54Z" fill="#E1EADD"/>
<path d="M394.31 231.93H100.01V366.58H394.31V231.93Z" fill="#64C080"/>
<g style="mix-blend-mode:multiply" opacity="0.32">
<path d="M394.31 231.93H254.95V366.58H394.31V231.93Z" fill="#9EA6A8"/>
</g>
<path d="M140.73 97.05H132.25V209.93H140.73V97.05Z" fill="#E1EADD"/>
<path d="M116.54 100.06L132.25 130.78V121.43L120.93 100.06H116.54Z" fill="#E1EADD"/>
<path d="M358.31 209.93H366.79V97.0499H358.31V209.93Z" fill="#E1EADD"/>
<path d="M382.5 100.06L366.79 130.78V121.43L378.1 100.06H382.5Z" fill="#E1EADD"/>
<path d="M132.25 209.93L86.37 220.3H410.66L366.79 209.93H132.25Z" fill="#64C080"/>
<path d="M410.66 220.3H86.37V231.93H410.66V220.3Z" fill="#E1EADD"/>
<path d="M249.24 0L62.52 84.6H439L249.24 0Z" fill="#64C080"/>
<path d="M81.38 116.6C70.96 116.6 62.52 108.15 62.52 97.74V84.59H100.25V97.74C100.25 108.16 91.8 116.6 81.39 116.6H81.38Z" fill="#16382F"/>
<path d="M119.11 116.6C108.69 116.6 100.25 108.15 100.25 97.74V84.59H137.98V97.74C137.98 108.16 129.53 116.6 119.12 116.6H119.11Z" fill="#E1EADD"/>
<path d="M137.97 84.6H175.7V108.81C175.7 113.12 172.2 116.61 167.9 116.61H145.78C141.47 116.61 137.98 113.11 137.98 108.81V84.6H137.97Z" fill="#16382F"/>
<path d="M194.56 116.6C184.14 116.6 175.7 108.15 175.7 97.74V84.59H213.43V97.74C213.43 108.16 204.98 116.6 194.57 116.6H194.56Z" fill="#E1EADD"/>
<path d="M232.28 116.6C221.86 116.6 213.42 108.15 213.42 97.74V84.59H251.15V97.74C251.15 108.16 242.71 116.6 232.29 116.6H232.28Z" fill="#16382F"/>
<path d="M270.01 116.6C259.59 116.6 251.15 108.15 251.15 97.74V84.59H288.88V97.74C288.88 108.16 280.43 116.6 270.02 116.6H270.01Z" fill="#E1EADD"/>
<path d="M307.73 116.6C297.31 116.6 288.87 108.15 288.87 97.74V84.59H326.6V97.74C326.6 108.16 318.15 116.6 307.74 116.6H307.73Z" fill="#16382F"/>
<path d="M345.46 116.6C335.04 116.6 326.6 108.15 326.6 97.74V84.59H364.33V97.74C364.33 108.16 355.88 116.6 345.47 116.6H345.46Z" fill="#E1EADD"/>
<path d="M363.55 84.6H401.28V108.81C401.28 113.12 397.78 116.61 393.48 116.61H371.36C367.05 116.61 363.56 113.11 363.56 108.81V84.6H363.55Z" fill="#16382F"/>
<path d="M420.14 116.6C409.72 116.6 401.28 108.15 401.28 97.74V84.59H439.01V97.74C439.01 108.16 430.56 116.6 420.15 116.6H420.14Z" fill="#E1EADD"/>
<path d="M227.13 192.05H156.83V215.11H227.13V192.05Z" fill="#1E7DBB"/>
<path d="M288.87 174.53V209.94H339.17V174.53H288.87ZM322.21 184.81H305.82V177.95H322.21V184.81Z" fill="#E1EADD"/>
<path d="M121.23 330.92C121.23 330.92 125.4 343.2 133.02 397.75C134.33 399.65 136.14 402.92 135.37 405.44C134.61 407.97 120.92 405.51 122.26 401.07C126.49 387.07 109.62 358.86 105.96 347.32L106.56 333.48L121.22 330.91L121.23 330.92Z" fill="#E9EBEC"/>
<path d="M122.01 396.24C126.57 397.37 128.11 397.16 132.81 396.57L140.97 402.44C140.97 402.44 150.32 408.74 149.56 411.27C148.8 413.8 123.71 407.27 123.71 407.27C123.71 407.27 119.5 406.19 120.84 401.75C121.65 399.06 122.46 398.56 122.02 396.24H122.01Z" fill="#64C080"/>
<path d="M121.4 327.38C121.4 327.38 119.13 340.15 99.46 391.6C99.7 393.9 99.7 397.63 97.81 399.47C95.92 401.31 85.12 392.56 88.44 389.32C98.9 379.1 97.75 346.25 100.11 334.38L107.32 322.55L121.4 327.38Z" fill="#E9EBEC"/>
<path d="M90.5501 384.96C94.0001 388.15 95.4501 388.71 99.8501 390.46L104.16 399.54C104.16 399.54 109.31 409.57 107.42 411.42C105.53 413.26 86.7101 395.44 86.7101 395.44C86.7101 395.44 83.5401 392.46 86.8601 389.22C88.8701 387.26 89.8201 387.21 90.5501 384.96Z" fill="#64C080"/>
<path d="M118.42 139.81C114.47 154.61 117.49 171.11 126.44 183.54C128.19 185.97 130.18 188.3 131.27 191.09C132.36 193.88 132.36 197.35 130.37 199.58C130.59 196.04 128.26 192.78 125.44 190.63C122.62 188.48 119.27 187.14 116.24 185.3C108.29 180.49 102.59 172.1 101.06 162.93C99.53 153.76 102.18 143.98 108.14 136.84" fill="#E9EBEC"/>
<path d="M118.42 139.81C114.47 154.61 117.49 171.11 126.44 183.54C128.19 185.97 130.18 188.3 131.27 191.09C132.36 193.88 132.36 197.35 130.37 199.58C130.59 196.04 128.26 192.78 125.44 190.63C122.62 188.48 119.27 187.14 116.24 185.3C108.29 180.49 102.59 172.1 101.06 162.93C99.53 153.76 102.18 143.98 108.14 136.84" fill="#102E50"/>
<path d="M134.75 261.46C134.75 261.46 135.06 264.38 135.04 271.27C135 282.32 131.85 295.61 130.42 300.41C128.11 308.2 106.19 377.73 106.19 377.73C106.19 377.73 92.9201 377.44 92.0501 371.67C91.1801 365.9 110.8 268.1 110.8 268.1L134.75 261.46Z" fill="#212C60"/>
<g style="mix-blend-mode:multiply" opacity="0.32">
<path d="M134.75 261.46C134.75 261.46 135.06 264.38 135.04 271.27C135 282.32 131.85 295.61 130.42 300.41C128.11 308.2 106.19 377.73 106.19 377.73C106.19 377.73 92.9201 377.44 92.0501 371.67C91.1801 365.9 110.8 268.1 110.8 268.1L134.75 261.46Z" fill="#E9EBEC"/>
</g>
<path d="M89.76 247.05C95.8 251.65 100.23 252.78 105.61 252.52C112.35 252.19 127.53 252.54 128.4 245.02C124.94 233.77 125.82 220.07 125.68 207.47C120.09 209.05 114.5 210.63 108.91 212.2C105.31 213.22 97.32 213.8 96.2 217.47C95.57 219.53 96.31 222.88 96.14 225.11C95.94 227.66 95.57 230.2 95.03 232.7C94.66 234.42 91.64 247.06 89.76 247.06V247.05Z" fill="#E9EBEC"/>
<path d="M102.35 177.88C116.02 174.87 128.47 167.2 137.19 156.61C145.54 146.48 149.67 134.63 151.75 121.96C151.96 120.66 152.16 119.32 151.89 118.03C151.76 117.43 149.24 108.46 152.62 112.46C153.13 113.06 153.42 113.85 154.03 114.35C153.25 113.72 154.05 106.46 154.13 105.25C154.16 104.78 154.21 104.28 154.49 103.89C154.77 103.5 155.36 103.28 155.77 103.55C155.98 103.68 156.1 103.91 156.21 104.12C156.77 105.19 157.33 106.26 157.89 107.33C158.83 106.96 159.95 107.32 160.7 107.99C161.45 108.67 161.88 109.6 162.19 110.55C164.78 118.39 159.07 122.67 157.23 129.79C156.49 132.68 156.39 135.68 155.99 138.64C152.2 166.5 131.93 186.79 105.46 196.46C104.73 196.73 103.44 196.49 103.75 195.79" fill="#E9EBEC"/>
<path d="M115.02 171.39C121.97 170.17 127.98 165.83 132.41 160.52C136.84 155.21 139.87 148.96 142.8 142.74C146.08 135.77 149.3 128.72 151.12 121.25C153.6 122.32 156.09 123.38 158.57 124.44C157.75 133.18 155.88 141.81 153.02 150.11C150.88 156.32 148.16 162.38 144.33 167.75C139.36 174.72 132.66 180.32 126.04 185.84C120.67 190.32 115.22 194.84 108.81 197.78" fill="#64C080"/>
<path d="M97.21 173.97C83.93 169.55 72.35 160.61 64.79 149.17C57.55 138.22 54.68 126 53.94 113.18C53.86 111.86 53.81 110.51 54.22 109.25C54.41 108.67 57.86 100.01 54.08 103.63C53.51 104.18 53.14 104.92 52.48 105.36C53.32 104.82 53.29 97.51 53.33 96.3C53.35 95.82 53.35 95.32 53.12 94.91C52.89 94.5 52.32 94.21 51.89 94.43C51.67 94.54 51.53 94.75 51.39 94.95C50.72 95.96 50.05 96.96 49.38 97.97C48.49 97.51 47.33 97.74 46.52 98.33C45.71 98.92 45.18 99.81 44.77 100.72C41.38 108.24 46.61 113.1 47.69 120.37C48.13 123.32 47.91 126.32 48 129.3C48.85 157.4 66.88 179.7 92.2 192.1C92.9 192.44 94.2 192.34 93.97 191.62" fill="#E9EBEC"/>
<path d="M94.93 170.58C88.14 168.64 72.12 159.21 68.27 153.46C64.42 147.72 62.06 141.18 59.8 134.69C57.27 127.42 54.81 120.07 53.78 112.45C51.2 113.25 48.62 114.05 46.03 114.85C45.93 123.63 46.88 132.41 48.86 140.96C50.34 147.36 52.4 153.67 55.66 159.42C59.88 166.87 65.95 173.14 71.96 179.33C76.83 184.34 81.78 189.42 87.85 193" fill="#64C080"/>
<path d="M98.09 222.43C109.73 220.82 121.38 219.21 133.02 217.61C133.06 217.61 132.8 204.5 132.82 203.57C132.9 199.96 133.34 197.23 134.1 193.83C134.67 191.29 133.65 188.63 132.15 186.5C130.26 183.82 127.7 181.71 125.77 179.06C124.39 177.16 122.27 173.11 120.6 171.44C118.4 169.24 111.97 173.25 108.98 172C109.47 171.33 109.95 169.95 108.77 170.57C105.34 172.37 107.16 174.04 103.87 172.01C102.75 171.32 96.22 170.83 94.93 170.57C92 169.99 87.71 171.89 86.27 174.31C82.81 180.13 85.67 189.32 86.29 195.71C87.09 204.07 88.35 215.28 89.16 223.65C92.14 223.24 95.11 222.83 98.09 222.42V222.43Z" fill="#64C080"/>
<path d="M99.6501 159C99.8501 163.77 98.0001 168.97 100.91 173.11C103.36 176.58 106.92 179.21 110.51 181.4C111.35 181.91 114.46 184.32 115.48 183.57C116.86 182.55 114.01 177.29 113.41 175.88C111.7 171.88 111.35 168.84 111.42 164.46C111.47 160.99 111.52 157.51 111.57 154.04L99.6501 159Z" fill="#E9EBEC"/>
<g style="mix-blend-mode:multiply" opacity="0.32">
<path d="M111.4 165.56L111.57 154.03L99.65 158.99L100.02 167.95C103.98 168.17 107.75 167.16 111.4 165.56Z" fill="#E9EBEC"/>
</g>
<path d="M121.36 155.2C120.85 157.65 119.54 159.96 118.05 161.77C116.52 163.63 114.8 164.12 112.71 164.64C106.07 166.3 96.97 164.44 94.99 155.8C93.78 156.43 92.4 155.25 92.05 153.79C91.73 152.43 92.16 151.26 92.27 149.91C92.36 148.8 92.32 147.73 92.46 146.6C92.82 143.86 93.32 141.06 94.62 138.66C95.98 136.15 98.11 134.36 100.36 133.19C102.61 132.02 105.01 131.43 107.39 130.87C111.45 129.91 117.47 128.81 120.1 133.6C121.63 136.38 120.53 141.46 120.92 144.71C121.33 148.14 122.07 151.67 121.33 155.19L121.36 155.2Z" fill="#E9EBEC"/>
<path d="M89.2001 145.14C88.0901 145.68 87.6301 147.03 87.5501 148.26C87.3401 151.9 89.9001 155.52 93.4101 156.53C94.4601 156.83 95.7801 156.84 96.4601 155.98C97.1501 155.1 96.8201 153.82 96.3801 152.79C95.5301 150.8 92.2201 143.67 89.2001 145.14Z" fill="#E9EBEC"/>
<path d="M88.7001 148.14C88.7001 148.14 89.2701 148.13 90.0701 148.53C90.8701 148.92 91.8401 149.76 92.5301 150.93C93.2201 152.1 93.5301 153.3 93.7001 154.15C93.8701 155.01 93.9101 155.55 93.8601 155.55C93.8101 155.56 93.6801 155.04 93.4401 154.21C93.2001 153.38 92.8601 152.24 92.2001 151.12C91.5401 150 90.6601 149.19 89.9401 148.76C89.2201 148.32 88.6801 148.2 88.7001 148.14Z" fill="#212C60"/>
<path d="M92.6702 154.95C92.6702 154.95 92.4402 154.77 92.1702 154.4C91.9102 154.03 91.5602 153.49 91.3502 152.8C91.1402 152.11 91.1602 151.43 91.3102 150.98C91.4502 150.52 91.6702 150.31 91.7102 150.34C91.7602 150.37 91.6402 150.62 91.5702 151.04C91.5002 151.46 91.5202 152.06 91.7102 152.69C91.9002 153.32 92.1902 153.86 92.4002 154.26C92.6002 154.66 92.7202 154.92 92.6702 154.94V154.95Z" fill="#212C60"/>
<path d="M99.2001 144.47C99.0801 144.4 99.2201 144.07 99.7201 143.65C100.21 143.24 101.08 142.78 102.19 142.55C103.3 142.32 104.37 142.36 105.09 142.52C105.81 142.68 106.18 142.9 106.13 143.01C106.01 143.25 104.39 142.98 102.53 143.39C100.66 143.76 99.4801 144.62 99.2101 144.47H99.2001Z" fill="#E9EBEC"/>
<path d="M105.23 156.22C105.34 156.19 105.58 156.47 106.04 156.85C106.5 157.23 107.23 157.69 108.18 157.97C109.14 158.25 110.1 158.27 110.78 158.22C111.47 158.17 111.91 158.08 111.96 158.16C112.01 158.23 111.64 158.47 110.9 158.63C110.17 158.8 109.03 158.85 107.89 158.52C106.75 158.19 105.96 157.58 105.58 157.1C105.18 156.61 105.14 156.25 105.23 156.22Z" fill="#212C60"/>
<path d="M114.27 142.96C114.27 142.84 114.6 142.69 115.16 142.62C115.72 142.54 116.52 142.56 117.31 142.76C118.1 142.97 118.71 143.3 119.06 143.64C119.41 143.99 119.4 144.3 119.25 144.35C119.09 144.41 118.86 144.27 118.47 144.12C118.08 143.97 117.49 143.77 116.83 143.6C115.51 143.25 114.29 143.21 114.27 142.96Z" fill="#212C60"/>
<path d="M112.24 146.08C111.99 146.95 111.85 147.85 111.78 148.74C111.71 149.64 111.7 150.54 111.76 151.43L111.82 152.1L111.84 152.28C111.84 152.35 111.86 152.43 111.88 152.5C111.92 152.64 111.97 152.78 112.04 152.91C112.18 153.17 112.4 153.4 112.67 153.54C112.8 153.61 112.97 153.67 113.1 153.69C113.15 153.69 113.2 153.71 113.24 153.73C113.43 153.84 113.53 154.25 113.4 154.6C113.29 154.97 112.98 155.31 112.7 155.67C113.11 155.47 113.51 155.24 113.81 154.81C113.95 154.59 114.04 154.33 114.05 154.04C114.05 153.76 113.97 153.44 113.72 153.19C113.59 153.06 113.43 152.98 113.27 152.93C113.19 152.9 113.14 152.88 113.08 152.84C112.97 152.76 112.88 152.64 112.82 152.51C112.79 152.44 112.77 152.37 112.75 152.3C112.75 152.26 112.74 152.23 112.74 152.19V152.03L112.69 151.37L112.5 148.74C112.43 147.86 112.36 146.98 112.23 146.08H112.24Z" fill="#212C60"/>
<path d="M107.64 150.49C107.2 149.98 106.71 149.61 106.16 149.43C105.62 149.24 105.04 149.21 104.47 149.26C103.9 149.32 103.32 149.47 102.78 149.7C102.23 149.93 101.71 150.23 101.24 150.63L101.18 150.68C101.12 150.74 101.02 150.73 100.96 150.68C100.73 150.47 100.5 150.25 100.29 150.01C100.6 150.09 100.9 150.2 101.19 150.31L100.91 150.36C101.24 149.74 101.77 149.23 102.38 148.88C102.99 148.52 103.69 148.31 104.41 148.26C105.13 148.22 105.89 148.36 106.51 148.77C107.13 149.17 107.56 149.82 107.65 150.49H107.64Z" fill="#212C60"/>
<path d="M101.32 150.15L100.94 149.59L101.6 149.73C101.75 149.76 101.84 149.9 101.81 150.05C101.78 150.2 101.63 150.29 101.49 150.26C101.42 150.25 101.36 150.2 101.32 150.15Z" fill="#212C60"/>
<path d="M114.27 150.56C114.56 150 114.91 149.58 115.35 149.32C115.79 149.06 116.28 148.95 116.8 148.93C117.31 148.91 117.85 148.98 118.37 149.12C118.9 149.27 119.42 149.49 119.91 149.82L119.98 149.86C120.05 149.91 120.13 149.89 120.17 149.83C120.33 149.59 120.49 149.35 120.62 149.09C120.37 149.21 120.13 149.36 119.89 149.51H120.15C119.74 148.96 119.17 148.54 118.56 148.28C117.95 148.01 117.3 147.9 116.66 147.96C116.03 148.02 115.39 148.26 114.93 148.74C114.46 149.21 114.22 149.91 114.27 150.57V150.56Z" fill="#212C60"/>
<path d="M119.75 149.37L119.97 148.78L119.42 149C119.3 149.05 119.24 149.2 119.3 149.34C119.36 149.48 119.5 149.55 119.62 149.5C119.68 149.48 119.72 149.43 119.75 149.37Z" fill="#212C60"/>
<path d="M111.81 123.93C114.09 124.93 116.15 126.35 117.8 128.19C119.31 129.87 120.74 131.78 120.91 133.94C121.02 135.22 120.67 136.49 120.69 137.77C120.73 140.32 123.19 141.7 123.29 144.37C123.32 145.15 123.33 145.95 123.02 146.66C122.71 147.38 122.01 148 121.17 148.02C122.29 147 121.65 144.89 120.11 144.53C118.29 144.1 116.88 144.03 114.97 144.01C109.67 143.97 104.44 141.37 101.45 137.31C100.91 139.95 99.2601 142.37 96.9101 143.95C96.3501 144.33 95.7201 144.69 95.4501 145.28C95.0901 146.05 95.4701 146.94 95.7701 147.74C97.4301 152.2 96.6301 157.35 93.6801 161.15C94.7001 157.31 94.2501 153.13 92.4301 149.52C91.9201 148.51 91.2001 147.46 90.0501 147.11C88.9001 146.76 87.3601 147.6 87.6201 148.69C85.8701 144.01 84.5601 138.99 85.5601 134.15C87.8301 123.13 101.9 119.57 111.82 123.93H111.81Z" fill="#102E50"/>
<path d="M91.1801 243.57C91.1801 243.57 83.6801 251.36 82.8101 267.8C81.7301 288.29 116.85 378.59 116.85 378.59C116.85 378.59 128.68 380.61 130.7 377.15C132.72 373.69 113.97 270.4 113.97 270.4L134.74 262.03C134.74 262.03 133.87 250.78 128.39 245.01C124.63 250.8 91.1701 243.57 91.1701 243.57H91.1801Z" fill="#212C60"/>
<path d="M91.28 125.91C85.42 130.12 84.3201 138.24 83.7301 145.43C83.1901 151.91 82.66 158.43 83.43 164.89C84.2 171.34 86.38 177.79 90.68 182.66C94.34 186.8 99.28 189.55 103.52 193.09C107.76 196.63 111.52 201.54 111.3 207.06C116.68 202.58 117.06 194.24 114.71 187.64C112.37 181.04 107.9 175.43 104.77 169.17C100.08 159.79 98.48 148.88 100.29 138.55C100.67 136.37 101.2 134.17 100.92 131.98C100.64 129.79 99.33 127.55 97.2 126.96" fill="#102E50"/>
<g style="mix-blend-mode:multiply" opacity="0.32">
<path d="M119.05 212.6C122.63 211.71 126.15 210.45 129.55 208.85C129.22 210.85 127.86 212.44 126.31 213.33C124.76 214.22 123.02 214.52 121.31 214.81C118.41 215.3 97.88 220.87 99.42 213.61C100.32 209.37 104.18 211.77 106.13 212.42C110.5 213.88 114.61 213.7 119.05 212.6Z" fill="#E9EBEC"/>
</g>
<g style="mix-blend-mode:multiply" opacity="0.32">
<path d="M112.4 225.09C115.41 225.02 118.5 224.66 121.15 223.25C123.81 221.83 125.96 219.17 126.05 216.16C117 217.46 107.96 218.76 98.9101 220.06C92.9701 220.91 97.1701 223.17 100.53 224.01C104.35 224.96 108.48 225.19 112.39 225.1L112.4 225.09Z" fill="#E9EBEC"/>
</g>
<path d="M88.0801 171.75C90.3201 179.66 95.6901 185.84 101.86 187.6C97.6401 181.4 94.3401 174.07 92.2101 166.18C93.5501 167.81 94.8901 169.44 96.2301 171.06C94.3801 168.81 93.7401 162.41 93.3201 159.29C92.8501 155.76 92.1401 152.45 92.0301 148.82C91.9301 145.58 91.6101 141.99 89.7901 139.85C87.3001 150.13 85.0601 161.07 88.0801 171.75Z" fill="#102E50"/>
<path d="M90.05 139.45C90.66 141.72 87.86 144.44 85.59 145.05C83.32 145.66 82.44 143.92 81.83 141.65C81.22 139.38 81.12 137.43 83.39 136.83C85.66 136.23 89.44 137.19 90.05 139.46V139.45Z" fill="white"/>
<path d="M88.1101 139.97C87.5001 137.7 90.3 134.98 92.57 134.37C94.84 133.76 95.7201 135.5 96.3301 137.77C96.9401 140.04 97.04 141.99 94.77 142.59C92.5 143.2 88.7201 142.23 88.1101 139.96V139.97Z" fill="white"/>
<path d="M91.2901 139.25C91.6601 140.65 90.8301 142.09 89.4301 142.47C88.0301 142.84 86.5901 142.01 86.2101 140.61C85.8401 139.21 86.6701 137.77 88.0701 137.39C89.4701 137.02 90.9101 137.85 91.2901 139.25Z" fill="#E9EBEC"/>
<path d="M91.2901 139.25C91.6601 140.65 90.8301 142.09 89.4301 142.47C88.0301 142.84 86.5901 142.01 86.2101 140.61C85.8401 139.21 86.6701 137.77 88.0701 137.39C89.4701 137.02 90.9101 137.85 91.2901 139.25Z" fill="white"/>
<path d="M357.59 390.23C352.57 391.97 350.81 391.88 345.46 391.7L336.87 399.14C336.87 399.14 326.98 407.18 328.09 409.95C329.21 412.72 356.8 402.83 356.8 402.83C356.8 402.83 361.44 401.19 359.48 396.32C358.29 393.37 357.33 392.89 357.59 390.23Z" fill="#E1EADD"/>
<path d="M381.45 390.3C386.68 391.26 388.4 390.91 393.66 389.91L403.28 395.96C403.28 395.96 414.28 402.41 413.59 405.32C412.91 408.23 384.14 402.62 384.14 402.62C384.14 402.62 379.31 401.7 380.51 396.59C381.24 393.5 382.11 392.88 381.45 390.29V390.3Z" fill="#E1EADD"/>
<path d="M302.32 85.8501C302.19 85.3901 302.05 84.9301 301.87 84.4801C301.6 83.7801 301.32 82.1601 300.62 81.7601C300.56 81.7301 298.86 81.0901 299.05 81.6301C297.68 77.9101 295.45 82.1001 294.95 83.8101C293.88 87.5401 293.57 93.5201 294.54 97.3501C295.38 100.65 297.33 107.22 302 105.99C308.3 104.34 307.46 93.9401 307.52 89.0801C305.47 89.5101 304.94 91.2901 303.83 92.7201C303.23 91.3101 302.72 87.3101 302.3 85.8401L302.32 85.8501Z" fill="#E9EBEC"/>
<path d="M366.56 164.32L352.39 161.91L326.49 141.1L307.9 98.77C307.9 98.77 295.17 100.57 295.84 103.67C296.5 106.77 312.15 155.43 312.15 155.43L348.62 187.85L366.56 164.31V164.32Z" fill="url(#paint0_linear_263_655)"/>
<g style="mix-blend-mode:multiply" opacity="0.32">
<path d="M347.74 187.03L349.96 171.01L319.98 151.23L295.84 103.67L312.15 155.44L347.74 187.03Z" fill="#E9EBEC"/>
</g>
<path d="M450.22 81.4401C450.32 80.9701 450.44 80.5101 450.58 80.0501C450.81 79.3301 450.99 77.7001 451.67 77.2601C451.73 77.2201 453.39 76.4801 453.22 77.0401C454.36 73.2501 456.84 77.2901 457.44 78.9701C458.73 82.6301 459.4 88.5801 458.65 92.4701C458.01 95.8201 456.45 102.48 451.72 101.54C445.34 100.27 445.55 89.8301 445.2 84.9901C447.27 85.3001 447.91 87.0401 449.1 88.4001C449.62 86.9601 449.89 82.9301 450.21 81.4401H450.22Z" fill="#E9EBEC"/>
<path d="M390.78 163.6L404.79 160.34L429.4 138.02L445.43 94.66C445.43 94.66 458.24 95.7 457.77 98.84C457.3 101.98 444.58 151.49 444.58 151.49L405.29 188.99L390.8 163.6H390.78Z" fill="url(#paint1_linear_263_655)"/>
<g style="mix-blend-mode:multiply" opacity="0.32">
<path d="M406.15 187.82L404.18 175.56L436.5 147.75L457.76 98.8401L444.56 151.48L406.15 187.82Z" fill="#E9EBEC"/>
</g>
<path d="M344.64 245.06L342.5 392.22C342.5 392.22 359.03 394.28 360.6 389.69C362.17 385.1 370.68 251.66 370.68 251.66L344.64 245.05V245.06Z" fill="#081D1E"/>
<g style="mix-blend-mode:multiply" opacity="0.32">
<path d="M344.64 245.06L342.5 392.22C342.5 392.22 359.03 394.28 360.6 389.69C362.17 385.1 370.68 251.66 370.68 251.66L344.64 245.05V245.06Z" fill="#E9EBEC"/>
</g>
<path d="M398.76 250.54L399.27 391.09C399.27 391.09 381.2 394.75 379.41 391.68C377.61 388.61 369.69 275.54 369.69 275.54L363.15 265.8L346.63 245.28L398.75 250.54H398.76Z" fill="#081D1E"/>
<path d="M350.8 168.2C353.59 167.58 355.99 165.52 358.93 164.89C362.47 164.13 366.14 164.1 369.74 164.1C376.44 163.9 382.92 163.79 389.68 163.14C390.73 163.04 391.8 162.94 392.83 163.19C396.07 163.98 397.27 170.57 399.52 173C400.76 174.37 405.28 187.28 405.27 188.98C405.24 209.65 407.19 230.73 404.71 251.22C404.59 252.2 398.64 253.89 397.7 254.18C395.11 254.99 392.45 255.54 389.75 255.81C384.72 256.31 379.45 256.17 374.39 256.22C363.55 256.32 352.5 255.53 342.08 252.34C342.47 246.24 341.97 239.87 342.43 233.65C342.77 229.09 343.16 224.53 343.67 219.99C345.47 204.1 347.71 188.25 350.12 172.44C350.33 171.04 350.6 169.55 350.78 168.18L350.8 168.2Z" fill="url(#paint2_linear_263_655)"/>
<g style="mix-blend-mode:multiply" opacity="0.32">
<path d="M380.3 223.29C383.19 223.56 386.24 223.47 388.9 224.25C391.56 225.03 393.69 227.15 392.45 228.97C391.26 230.71 387.91 231.11 385.1 231.21C381.94 231.31 378.78 231.33 375.62 231.26C368.15 231.1 360.02 230.21 355.19 226.42C352.16 224.05 350.87 220.69 351.79 217.57C352.34 215.68 354.25 212.29 357.27 211.56C361.57 210.51 361.89 212.79 363.55 214.8C367.16 219.15 372.71 222.58 380.32 223.3L380.3 223.29Z" fill="#E9EBEC"/>
</g>
<path d="M397.4 130.69C398.57 131.17 399.12 132.52 399.27 133.78C399.71 137.49 397.31 141.34 393.79 142.58C392.73 142.95 391.39 143.04 390.64 142.21C389.88 141.36 390.14 140.02 390.52 138.95C391.26 136.86 394.21 129.38 397.39 130.7L397.4 130.69Z" fill="#E9EBEC"/>
<path d="M398.09 133.72C398.09 133.72 397.51 133.74 396.72 134.2C395.93 134.65 394.99 135.56 394.36 136.8C393.73 138.04 393.48 139.28 393.36 140.16C393.24 141.05 393.23 141.6 393.28 141.6C393.34 141.6 393.44 141.06 393.62 140.2C393.81 139.34 394.09 138.15 394.69 136.97C395.29 135.79 396.14 134.91 396.86 134.42C397.57 133.92 398.11 133.77 398.09 133.71V133.72Z" fill="#212C60"/>
<path d="M394.46 140.92C394.46 140.92 394.69 140.72 394.94 140.33C395.18 139.94 395.5 139.36 395.68 138.65C395.85 137.93 395.79 137.24 395.61 136.79C395.43 136.33 395.2 136.13 395.17 136.16C395.12 136.19 395.26 136.44 395.36 136.87C395.46 137.3 395.48 137.91 395.32 138.57C395.16 139.23 394.9 139.8 394.72 140.21C394.54 140.63 394.43 140.9 394.48 140.93L394.46 140.92Z" fill="#212C60"/>
<path d="M358.81 131.84C357.67 132.39 357.2 133.77 357.13 135.03C356.91 138.76 359.53 142.46 363.12 143.49C364.2 143.8 365.54 143.81 366.24 142.93C366.95 142.03 366.61 140.72 366.16 139.66C365.29 137.62 361.9 130.33 358.81 131.83V131.84Z" fill="#E9EBEC"/>
<path d="M358.31 134.9C358.31 134.9 358.89 134.89 359.71 135.3C360.53 135.7 361.52 136.55 362.22 137.76C362.92 138.96 363.24 140.18 363.42 141.05C363.59 141.93 363.63 142.48 363.58 142.49C363.52 142.5 363.39 141.97 363.16 141.12C362.92 140.27 362.57 139.1 361.89 137.96C361.22 136.82 360.32 135.99 359.57 135.55C358.83 135.1 358.28 134.98 358.3 134.92L358.31 134.9Z" fill="#212C60"/>
<path d="M362.36 141.88C362.36 141.88 362.12 141.7 361.85 141.32C361.58 140.94 361.23 140.39 361.01 139.68C360.79 138.98 360.82 138.28 360.97 137.82C361.12 137.35 361.34 137.13 361.37 137.16C361.42 137.19 361.29 137.45 361.23 137.88C361.16 138.31 361.17 138.93 361.37 139.57C361.57 140.21 361.87 140.77 362.07 141.18C362.28 141.59 362.4 141.85 362.35 141.88H362.36Z" fill="#212C60"/>
<path d="M371.7 150.19L370.73 163.32C370.63 166.18 373.76 169.39 376.61 169.31L379.02 169.24C381.52 169.17 384.18 165.41 384.41 162.92L385 145.8L371.7 150.19Z" fill="#E9EBEC"/>
<g style="mix-blend-mode:multiply" opacity="0.32">
<path d="M383.87 158.25L384.99 145.8L371.69 150.19L371.36 159.91C375.62 160.47 379.79 159.68 383.87 158.25Z" fill="#E9EBEC"/>
</g>
<path d="M363.32 142.53C363.76 146.04 365.48 149.37 368.09 151.75C372.93 156.16 378.67 156.16 384.38 153.55C389.13 151.38 391.37 148.79 391.9 143.59C392.45 138.19 393.78 132.82 391.62 127.66C390.44 124.77 388.4 122.58 386.15 121.07C383.91 119.56 381.46 118.65 379.03 117.79C374.88 116.31 368.7 114.47 365.47 119.43C361.75 125.15 362.59 135.83 363.28 142.29C363.28 142.37 363.3 142.45 363.31 142.53H363.32Z" fill="#E9EBEC"/>
<path d="M386.82 130.01C386.95 129.94 386.8 129.6 386.3 129.17C385.8 128.74 384.91 128.27 383.78 128.02C382.65 127.77 381.55 127.8 380.81 127.96C380.07 128.11 379.69 128.34 379.74 128.45C379.86 128.69 381.52 128.44 383.42 128.88C385.33 129.28 386.53 130.17 386.81 130.02L386.82 130.01Z" fill="#E9EBEC"/>
<path d="M373.81 128.89C373.78 128.77 373.26 128.71 372.43 128.77C371.6 128.83 370.47 129.05 369.4 129.45C368.33 129.85 367.56 130.33 367.17 130.76C366.78 131.19 366.89 131.5 367.12 131.52C367.36 131.54 367.65 131.34 368.17 131.09C368.68 130.84 369.46 130.49 370.35 130.16C372.12 129.49 373.86 129.13 373.81 128.89Z" fill="#E9EBEC"/>
<path d="M371.17 136.61C370.6 136.63 370.04 135.89 370.09 134.97C370.14 134.04 370.79 133.29 371.36 133.3C371.93 133.3 372.21 134.04 372.16 134.95C372.11 135.86 371.75 136.6 371.17 136.62V136.61Z" fill="#212C60"/>
<path d="M383.83 136.96C383.27 137.08 382.59 136.46 382.47 135.54C382.35 134.62 382.86 133.77 383.42 133.67C383.98 133.57 384.39 134.25 384.5 135.15C384.61 136.05 384.39 136.85 383.83 136.97V136.96Z" fill="#212C60"/>
<path d="M376.95 133.08C376.81 134 376.73 134.91 376.66 135.81L376.45 138.51L376.4 139.18L376.38 139.51C376.38 139.57 376.36 139.63 376.34 139.69C376.3 139.8 376.21 139.91 376.08 139.99C376.01 140.03 375.95 140.06 375.86 140.08C375.69 140.12 375.53 140.21 375.4 140.34C375.15 140.59 375.05 140.91 375.05 141.21C375.05 141.5 375.14 141.77 375.29 142C375.59 142.44 376.01 142.69 376.42 142.89C376.13 142.52 375.82 142.17 375.71 141.79C375.58 141.43 375.69 141.01 375.89 140.91C375.93 140.89 375.98 140.87 376.04 140.87C376.18 140.85 376.33 140.8 376.47 140.74C376.75 140.61 377.01 140.39 377.17 140.1C377.25 139.95 377.3 139.79 377.32 139.62L377.36 139.27L377.42 138.58C377.49 137.66 377.48 136.74 377.42 135.81C377.35 134.89 377.22 133.97 376.97 133.08H376.95Z" fill="#212C60"/>
<path d="M374.32 147.09C374.41 147.04 374.65 147.24 375.1 147.46C375.54 147.69 376.22 147.94 377.06 147.99C377.89 148.04 378.69 147.89 379.24 147.73C379.8 147.57 380.14 147.42 380.19 147.47C380.24 147.52 379.98 147.78 379.4 148.05C378.83 148.32 377.9 148.56 376.91 148.5C375.92 148.43 375.16 148.08 374.76 147.75C374.35 147.42 374.24 147.13 374.32 147.09Z" fill="#212C60"/>
<path d="M371.03 145.56L382.1 145.69C382.1 145.69 382.85 150.09 378.36 150.66C372.19 151.44 371.04 145.56 371.04 145.56H371.03Z" fill="#212C60"/>
<path d="M377.23 148.13C378.72 147.52 380.32 147.5 381.79 148.17C381.8 148.17 381.81 148.17 381.83 148.18C381.41 149.28 380.46 150.39 378.35 150.66C376.91 150.84 375.75 150.66 374.81 150.28C375.41 149.36 376.11 148.58 377.23 148.12V148.13Z" fill="#E9EBEC"/>
<path d="M387.09 125.06C385.98 125.31 384.82 125.33 383.69 125.05C384.49 124.14 383.38 122.42 382.22 122.78C379.88 125.71 375.78 127.12 372.12 126.24C372.9 125.13 371.73 123.31 370.39 123.57C369.72 125.05 369.05 126.53 368.37 128.01C363.92 127.77 360.01 123.76 359.87 119.31C359.53 108.45 374.9 108.21 382.34 108.78C387.62 109.18 394.26 111.68 393.52 118.24C393.14 121.58 390.31 124.33 387.08 125.07L387.09 125.06Z" fill="#102E50"/>
<path d="M389.44 113.44C392.19 113.72 394.22 116.21 395.23 118.77C396.78 122.69 396.66 127.23 394.91 131.07C394.53 131.91 394.08 132.71 393.62 133.51C392.82 134.93 391.18 139.14 389.67 136.39C389.21 135.55 389.76 132.94 389.71 131.92C389.64 130.43 389.5 128.94 389.19 127.47C388.41 123.79 386.51 120.2 383.34 118.18C380.51 116.38 376.83 116.04 373.68 117.19C370.53 118.34 367.96 120.93 366.74 124.05C364.77 129.1 366.26 134.98 364.41 140.08C365.3 137.63 362.02 134.77 360.8 133C359.33 130.88 358.67 128.25 358.65 125.69C358.63 121.93 359.5 117.12 361.83 114.1C363.95 111.36 370.72 112.28 372.96 114.55" fill="#102E50"/>
</g>
<defs>
<linearGradient id="paint0_linear_263_655" x1="365.753" y1="142.046" x2="296.883" y2="144.102" gradientUnits="userSpaceOnUse">
<stop offset="0.2" stop-color="#F0F1F2"/>
<stop offset="0.92" stop-color="#EFEFDE"/>
</linearGradient>
<linearGradient id="paint1_linear_263_655" x1="458.873" y1="140.666" x2="390.014" y2="142.722" gradientUnits="userSpaceOnUse">
<stop offset="0.2" stop-color="#F0F1F2"/>
<stop offset="0.92" stop-color="#EFEFDE"/>
</linearGradient>
<linearGradient id="paint2_linear_263_655" x1="405.715" y1="208.893" x2="340.714" y2="210.833" gradientUnits="userSpaceOnUse">
<stop offset="0.2" stop-color="#F0F1F2"/>
<stop offset="0.92" stop-color="#EFEFDE"/>
</linearGradient>
<clipPath id="clip0_263_655">
<rect width="495.27" height="446.13" fill="white"/>
</clipPath>
</defs>
</svg>
