<svg width="1920" height="551" viewBox="0 0 1920 551" fill="none" xmlns="http://www.w3.org/2000/svg">
<path d="M1938.62 177.176V129.374L1714.09 123.404L1712.46 186.115C1633.6 169.661 1514.17 123.675 1457.64 38.4034C1411.55 136.092 1220.15 172.494 1220.15 172.494V165.59C1220.15 165.59 1009.43 151.206 924.832 0C924.832 0 894.082 123.217 672.574 177.685V178.38L646.816 178.923V158.924L694.48 158.11L686.049 47.8688L183.266 67.7151V134.192C148.327 126.169 37.2238 98.0783 -1.026 57.4865V175.445L-34 173.24V201.67H-1.026V236.562C-5.9915 236.664 -11.0605 236.698 -16.3105 236.579C-12.4829 277.714 -2.24175 302.072 -2.24175 302.072C-2.24175 302.072 -1.82775 302.072 -1.05189 302.038V371.891C-8.55186 381.95 -18.6381 398.217 -18.6381 412.941C-18.6381 428.902 -9.17267 438.826 -3.12097 443.541L-13.3881 443.66L-11.0087 452.209H-1.026V482.81L-14.0864 483.845L-13.6984 485.965L-1.026 484.964V485.66L-2.81064 485.863L-13.8796 486.677L-13.802 487.152L-14.5521 487.237L-13.0001 496.889L-12.9483 497.347L-12.8451 498.042H-13.0519L-12.7933 500.197H-12.5089L-12.4053 500.892H-12.8451L-12.6124 503.046L-12.0691 503.012L-11.9659 503.725L-12.638 503.759L-12.4312 505.896L-11.6297 505.862L-11.5261 506.575L-12.4571 506.609L-12.2503 508.746L-11.1899 508.712L-11.0863 509.424L-12.2503 509.458L-12.0691 511.596L-10.7242 511.545L-10.621 512.257L-12.0173 512.291L-11.8623 514.428L-10.2589 514.378L-10.1036 515.395L-12.9228 515.463L-11.6811 517.278L-9.81913 517.227L-9.71558 517.94L-11.6038 517.974V518.313L-13.4916 518.33L-11.1122 526.896H2.1032V543.842L173.335 544.47V544.826H236.335L236.49 544.707L1942.29 551V470.58L1938.52 470.648V436.315L1944.59 435.772C1944.47 440.115 1944.91 444.304 1947 447.425L1946.43 435.603L1950.83 435.212C1950.62 438.978 1950.96 442.608 1952.9 445.475L1952.97 448.257C1952.97 447.358 1952.97 446.476 1952.97 445.577C1953.1 445.78 1953.23 445.984 1953.39 446.17L1952.97 438.385C1952.97 437.265 1952.97 436.146 1952.97 435.026L1958.15 434.568L1958.07 437.74C1958.12 436.671 1958.17 435.62 1958.22 434.551L1964.97 433.957L1965.47 443.66C1965.47 441.014 1965.75 437.553 1965.88 433.872L1970.9 433.431L1971.18 445.322C1971.18 442.574 1971.91 437.994 1972.34 433.296L1978.71 432.736C1978.81 435.687 1979.33 438.571 1980.72 441.149L1980.26 432.6L1986.03 432.092L1986.44 440.318C1986.44 437.672 1986.67 434.856 1986.88 432.007L1991.07 431.633V248.046H2001V244.467H1997.69L1938.52 177.142L1938.62 177.176ZM193.947 188.507V166.743L226.714 166.184V187.811L193.947 188.507ZM623.359 179.448L250.171 187.319V165.777L623.359 159.365V179.448Z" fill="#032D51" fill-opacity="0.36"/>
</svg>
