<svg width="1231" height="551" viewBox="0 0 1231 551" fill="none" xmlns="http://www.w3.org/2000/svg">
<path d="M1190.08 177.176V129.374L1042.78 123.404L1041.71 186.115C989.982 169.661 911.633 123.675 874.545 38.4034C844.312 136.092 718.747 172.494 718.747 172.494V165.59C718.747 165.59 580.508 151.206 525.013 0C525.013 0 504.84 123.217 359.527 177.685V178.38L342.629 178.923V158.924L373.897 158.11L368.366 47.8688L38.531 67.7151V134.192C15.61 126.169 -57.2758 98.0783 -82.3684 57.4865V175.445L-104 173.24V201.67H-82.3684V236.562C-85.6259 236.664 -88.9513 236.698 -92.3953 236.579C-89.8844 277.714 -83.166 302.072 -83.166 302.072C-83.166 302.072 -82.8944 302.072 -82.3854 302.038V371.891C-87.3055 381.95 -93.9223 398.217 -93.9223 412.941C-93.9223 428.902 -87.7128 438.826 -83.7428 443.541L-90.4782 443.66L-88.9172 452.209H-82.3684V482.81L-90.9363 483.845L-90.6818 485.965L-82.3684 484.964V485.66L-83.5392 485.863L-90.8006 486.677L-90.7497 487.152L-91.2418 487.237L-90.2237 496.889L-90.1897 497.347L-90.122 498.042H-90.2576L-90.088 500.197H-89.9014L-89.8335 500.892H-90.122L-89.9693 503.046L-89.6129 503.012L-89.5452 503.725L-89.9861 503.759L-89.8505 505.896L-89.3246 505.862L-89.2567 506.575L-89.8674 506.609L-89.7318 508.746L-89.0361 508.712L-88.9682 509.424L-89.7318 509.458L-89.6129 511.596L-88.7306 511.545L-88.6629 512.257L-89.5789 512.291L-89.4773 514.428L-88.4254 514.378L-88.3235 515.395L-90.1729 515.463L-89.3584 517.278L-88.1369 517.227L-88.0689 517.94L-89.3076 517.974V518.313L-90.5461 518.33L-88.9852 526.896H-80.3156V543.842L32.0159 544.47V544.826H73.345L73.4469 544.707L1192.49 551V470.58L1190.01 470.648V436.315L1194 435.772C1193.91 440.115 1194.2 444.304 1195.57 447.425L1195.2 435.603L1198.09 435.212C1197.95 438.978 1198.17 442.608 1199.44 445.475L1199.49 448.257C1199.49 447.358 1199.49 446.476 1199.49 445.577C1199.58 445.78 1199.66 445.984 1199.77 446.17L1199.49 438.385C1199.49 437.265 1199.49 436.146 1199.49 435.026L1202.89 434.568L1202.84 437.74C1202.87 436.671 1202.9 435.62 1202.94 434.551L1207.37 433.957L1207.69 443.66C1207.69 441.014 1207.88 437.553 1207.96 433.872L1211.25 433.431L1211.44 445.322C1211.44 442.574 1211.91 437.994 1212.2 433.296L1216.38 432.736C1216.44 435.687 1216.78 438.571 1217.7 441.149L1217.39 432.6L1221.18 432.092L1221.45 440.318C1221.45 437.672 1221.6 434.856 1221.74 432.007L1224.48 431.633V248.046H1231V244.467H1228.83L1190.01 177.142L1190.08 177.176ZM45.5379 188.507V166.743L67.0337 166.184V187.811L45.5379 188.507ZM327.241 179.448L82.4219 187.319V165.777L327.241 159.365V179.448Z" fill="#032D51" fill-opacity="0.36"/>
</svg>
